<svg version="1.1" xmlns="http://www.w3.org/2000/svg" viewBox="0 0 1138 562" width="1138" height="562">
  <!-- svg-source:excalidraw -->
  
  <defs>
    <style>
      @font-face {
        font-family: "Virgil";
        src: url("https://excalidraw.com/Virgil.woff2");
      }
      @font-face {
        font-family: "Cascadia";
        src: url("https://excalidraw.com/Cascadia.woff2");
      }
    </style>
  </defs>
  <rect x="0" y="0" width="1138" height="562" fill="transparent"></rect><g stroke-linecap="round" transform="translate(10 10) rotate(0 143 200)"><path d="M0.88 -1.01 C69.01 -3.64, 144.16 -2.14, 288.84 0.22 M0.86 -0.65 C106.12 -0.52, 210.46 -1.85, 286.42 1.04 M287.88 1.74 C290.6 146.33, 286.79 295.38, 285.17 401.88 M285.04 0.2 C282.76 138.73, 281.35 277.01, 286.94 400.24 M288.81 399.56 C212.18 404.63, 143.21 400.27, -2.82 402.81 M285.66 399.77 C208.34 398.08, 133.39 397.38, -0.31 400.32 M1.38 401.98 C0.48 261.8, -2.26 121.48, 0.86 -1.8 M0.77 400.59 C4.05 280.95, 3.74 161.83, 0.82 0.03" stroke="#2B1321" stroke-width="2" fill="none"></path></g><g transform="translate(10 20) rotate(0 143 14)"><text x="143" y="22.4" font-family="Cascadia, Segoe UI Emoji" font-size="24px" fill="#2B1321" text-anchor="middle" style="white-space: pre;" direction="ltr">DC 1</text></g><g stroke-linecap="round" transform="translate(30 65) rotate(0 123 162.5)"><path d="M0.02 -1.34 C63.42 2.21, 120.87 4.54, 243.87 2.82 M245.93 1.74 C247.84 81.56, 248.19 166.02, 245.88 324.17 M245.68 322.59 C189.86 326.66, 129.67 328.66, 1.37 322.01 M0.95 327.7 C-3.82 256.26, -1.47 183.63, 1.27 -1.04" stroke="#737A82" stroke-width="1.5" fill="none" stroke-dasharray="8 9"></path></g><g transform="translate(30 71) rotate(0 123 9.5)"><text x="123" y="15.1" font-family="Cascadia, Segoe UI Emoji" font-size="16px" fill="#737A82" text-anchor="middle" style="white-space: pre;" direction="ltr">server 1</text></g><g stroke-linecap="round" transform="translate(426 10) rotate(0 143 200)"><path d="M-0.85 -1.45 C71.2 -0.02, 143.45 2.76, 285.29 -1.09 M-0.94 -0.48 C97.04 -0.42, 194.81 0.44, 285.45 1.08 M288.21 -0.52 C288.36 124.43, 290.81 250.66, 284.18 398.54 M285.47 -0.25 C285.03 116.6, 283.84 234.99, 286.1 398.9 M283.4 396.98 C176.69 401.92, 69.27 403.08, 1.25 397.93 M286.34 401.06 C208.22 402.21, 129.77 401.25, -1.04 400.83 M-0.62 399.43 C-0.8 303.75, -1.12 207.53, 1.69 0.86 M0.47 400.57 C-0.36 317.77, -0.62 234.63, 0.28 -0.08" stroke="#2B1321" stroke-width="2" fill="none"></path></g><g transform="translate(426 20) rotate(0 143 14)"><text x="143" y="22.4" font-family="Cascadia, Segoe UI Emoji" font-size="24px" fill="#2B1321" text-anchor="middle" style="white-space: pre;" direction="ltr">DC 2</text></g><g stroke-linecap="round" transform="translate(446 65) rotate(0 123 162.5)"><path d="M-1.86 -1.81 C59.21 -2.21, 120.1 -5.06, 246.58 1.4 M248.17 2.06 C247.28 73.48, 245.35 146.91, 244.1 324.23 M246.16 325.89 C150.13 328.99, 58.02 326.09, -0.08 323.73 M2 326.61 C-6.33 205.99, -3.46 88.57, -0.8 1.22" stroke="#737A82" stroke-width="1.5" fill="none" stroke-dasharray="8 9"></path></g><g transform="translate(446 71) rotate(0 123 9.5)"><text x="123" y="15.1" font-family="Cascadia, Segoe UI Emoji" font-size="16px" fill="#737A82" text-anchor="middle" style="white-space: pre;" direction="ltr">server 2</text></g><g stroke-linecap="round" transform="translate(842 10) rotate(0 143 200)"><path d="M-2.58 -1.88 C73.39 3.59, 142.75 1.62, 287.79 -2.39 M0.29 -0.3 C87.96 2.72, 176.14 2.73, 287.5 1.11 M284.01 1.75 C281.58 102.52, 281.24 201.39, 287.72 399.72 M285.9 -0.7 C287.31 96.73, 286.33 192.97, 285.25 399.83 M284.04 400.45 C198.4 399.21, 109.73 399.85, -0.73 399.09 M287.03 399.32 C205.07 397.68, 126.15 396.47, 1.24 401.33 M1.91 401.41 C2.44 265.7, 0.01 133.58, -2.01 -1 M0.18 400.55 C-4.77 272.32, -4.98 145.16, -0.25 -0.19" stroke="#2B1321" stroke-width="2" fill="none"></path></g><g transform="translate(842 20) rotate(0 143 14)"><text x="143" y="22.4" font-family="Cascadia, Segoe UI Emoji" font-size="24px" fill="#2B1321" text-anchor="middle" style="white-space: pre;" direction="ltr">DC 3</text></g><g stroke-linecap="round" transform="translate(862 65) rotate(0 123 162.5)"><path d="M2.84 -2.29 C61.6 -5.11, 119.32 0.03, 242.72 -0.02 M244.88 2.38 C246.72 130.41, 248.04 257.81, 247.85 324.3 M246.65 322.61 C166.19 324.72, 91.36 323.53, -1.52 325.45 M-2.47 325.52 C0.15 220.72, 3.55 123.52, 2.68 -2.05" stroke="#737A82" stroke-width="1.5" fill="none" stroke-dasharray="8 9"></path></g><g transform="translate(862 71) rotate(0 123 9.5)"><text x="123" y="15.1" font-family="Cascadia, Segoe UI Emoji" font-size="16px" fill="#737A82" text-anchor="middle" style="white-space: pre;" direction="ltr">server 3</text></g><g stroke-linecap="round" transform="translate(55.5 105) rotate(0 97.5 32.5)"><path d="M1.69 -0.37 L198.67 1.06 L193.23 65.45 L2.67 64.73" stroke="none" stroke-width="0" fill="#A8C4F0"></path><path d="M2.31 -3.07 C46.53 0.22, 97 -0.69, 192.66 3.12 M-2 -0.16 C53.06 -2.48, 109.74 -3.58, 195.69 1.51 M192.08 -0.9 C194.11 25.04, 196.58 50.02, 196.28 66.6 M195.59 1.98 C196.34 24.61, 194.99 52.32, 196.19 66.33 M193.25 62.18 C150.01 67.86, 107.71 68, -3.58 65.35 M193.26 65.8 C136.81 66.62, 80.83 64.67, 0.67 63.43 M-0.15 62.98 C-1.53 48.85, -1.53 32.32, -2.08 2.93 M-0.19 65.95 C-1.38 50.88, -1.64 36.18, -1.39 -0.52" stroke="#4B7BE5" stroke-width="3" fill="none"></path></g><g transform="translate(55.5 128) rotate(0 97.5 9.5)"><text x="97.5" y="15.1" font-family="Cascadia, Segoe UI Emoji" font-size="16px" fill="#4B7BE5" text-anchor="middle" style="white-space: pre;" direction="ltr">RS 1 leader</text></g><g stroke-linecap="round" transform="translate(55.5 193) rotate(0 97.5 32.5)"><path d="M-3.12 3 L191.03 -0.45 L195.26 67.32 L2.07 68.99" stroke="none" stroke-width="0" fill="#CDF0EB"></path><path d="M1.17 -3.36 C51.98 -1.64, 100.52 -1.69, 194.31 -1.74 M0.81 1.96 C69.23 -2.9, 143.74 -0.56, 195.05 -0.46 M196.37 1.1 C195.11 18.44, 195.1 36, 191.41 67.64 M193.98 -0.41 C193.32 17.52, 196.15 32.1, 195.45 65.15 M193.67 68.47 C138.03 66.15, 77.79 69.94, 3.11 62.12 M193.72 64.65 C119.89 66.52, 42.77 70.4, 0.18 63.77 M2.09 68.73 C-0.61 43.05, 1.53 14.62, 2.66 1.28 M1.56 65.93 C-0.18 46.07, -0.4 29.82, -1.87 -0.62" stroke="#2D9B8E" stroke-width="2" fill="none"></path></g><g transform="translate(55.5 216) rotate(0 97.5 9.5)"><text x="97.5" y="15.1" font-family="Cascadia, Segoe UI Emoji" font-size="16px" fill="#2D9B8E" text-anchor="middle" style="white-space: pre;" direction="ltr">RS 2 follower</text></g><g stroke-linecap="round" transform="translate(55.5 281) rotate(0 97.5 32.5)"><path d="M0.08 -1.62 L191.39 -1.96 L197.29 61.2 L1.48 65.25" stroke="none" stroke-width="0" fill="#F8CDD6"></path><path d="M0.03 -3.64 C49.42 -3.5, 96.05 -2.69, 195.97 1.4 M-0.38 0.07 C50.4 0.67, 95.74 -1.54, 194.41 1.56 M192.67 3.11 C196.1 24.83, 193.63 39.97, 194.53 68.69 M196.36 1.19 C194.29 23.42, 193.31 41.89, 194.7 63.97 M194.1 66.76 C126.05 64.44, 55.87 63.88, 1.8 66.89 M194.17 63.5 C137.98 62.61, 78.72 64.32, -0.31 64.1 M-3.68 66.48 C2.9 42.25, -0.82 22.92, -0.61 -0.37 M-0.7 65.92 C1.01 41.26, 0.84 19.46, 1.66 -0.71" stroke="#E23956" stroke-width="2" fill="none"></path></g><g transform="translate(55.5 304) rotate(0 97.5 9.5)"><text x="97.5" y="15.1" font-family="Cascadia, Segoe UI Emoji" font-size="16px" fill="#E23956" text-anchor="middle" style="white-space: pre;" direction="ltr">RS 3 follower</text></g><g stroke-linecap="round" transform="translate(471.5 105) rotate(0 97.5 32.5)"><path d="M3.28 1.75 L191.76 -3.47 L191.32 63.07 L0.88 61.51" stroke="none" stroke-width="0" fill="#DBE6FA"></path><path d="M-1.11 -3.93 C46.87 2.45, 99.58 4.11, 197.62 -3.46 M-1.56 -1.81 C66.57 0.24, 129.74 1.47, 193.77 -0.42 M196.96 -2.89 C197.09 10.22, 192.15 25.95, 197.65 61.73 M194.74 -1.2 C193.86 12.32, 197.07 25.67, 193.96 66.79 M194.52 65.05 C153.07 62.73, 111.95 65.82, 0.5 63.66 M194.62 66.35 C156.06 62.51, 118.66 66.04, -0.8 64.44 M-1.44 64.23 C-4.19 49.46, 2.23 31.22, -3.87 -2.02 M1.04 65.91 C0.81 40.45, 0.68 13.09, 1.18 -0.81" stroke="#4B7BE5" stroke-width="2" fill="none"></path></g><g transform="translate(471.5 128) rotate(0 97.5 9.5)"><text x="97.5" y="15.1" font-family="Cascadia, Segoe UI Emoji" font-size="16px" fill="#4B7BE5" text-anchor="middle" style="white-space: pre;" direction="ltr">RS 1 follower</text></g><g stroke-linecap="round" transform="translate(471.5 193) rotate(0 97.5 32.5)"><path d="M-1.52 -2.88 L192.12 3.01 L193.35 64.94 L0.29 65.77" stroke="none" stroke-width="0" fill="#7ED4C8"></path><path d="M-2.26 3.78 C52.31 0.59, 95.1 -4.9, 191.27 -0.33 M1.25 0.31 C43.74 -0.18, 85.74 0.49, 193.12 1.6 M193.25 -0.88 C198.08 16.61, 198.67 37.92, 192.78 62.78 M193.12 0.4 C194.84 18.22, 194.23 35.46, 193.21 65.61 M194.94 63.35 C141.09 69.01, 82.04 67.76, -0.81 68.43 M195.07 65.2 C135.15 66.41, 76.6 67.77, -1.29 64.77 M0.79 61.97 C-0.68 48.66, -0.11 39.52, 0.86 -3.67 M-1.21 65.89 C2 48.64, 1.93 32.73, 0.71 -0.9" stroke="#2D9B8E" stroke-width="3" fill="none"></path></g><g transform="translate(471.5 216) rotate(0 97.5 9.5)"><text x="97.5" y="15.1" font-family="Cascadia, Segoe UI Emoji" font-size="16px" fill="#2D9B8E" text-anchor="middle" style="white-space: pre;" direction="ltr">RS 2 leader</text></g><g stroke-linecap="round" transform="translate(471.5 281) rotate(0 97.5 32.5)"><path d="M1.67 0.5 L192.49 1.5 L195.38 66.81 L-0.31 62.03" stroke="none" stroke-width="0" fill="#F8CDD6"></path><path d="M-3.4 3.49 C49.76 6.54, 98.63 1.9, 192.92 2.81 M0.06 -1.58 C59.91 3.39, 119.74 3.51, 196.48 -0.37 M197.55 1.12 C199.07 23.01, 197.19 41.89, 195.9 63.82 M195.5 -1.99 C191.81 24.12, 195.39 45.24, 196.47 64.42 M195.36 61.64 C129.11 67.3, 60.12 61.7, -2.12 65.21 M195.53 64.05 C153.23 66.3, 112.55 69.49, -1.78 65.11 M3.03 67.72 C0.24 42.86, 2.94 13.82, -2.4 2.69 M0.53 65.88 C-0.8 43.83, -0.83 26.37, 0.24 -1" stroke="#E23956" stroke-width="2" fill="none"></path></g><g transform="translate(471.5 304) rotate(0 97.5 9.5)"><text x="97.5" y="15.1" font-family="Cascadia, Segoe UI Emoji" font-size="16px" fill="#E23956" text-anchor="middle" style="white-space: pre;" direction="ltr">RS 3 follower</text></g><g stroke-linecap="round" transform="translate(887.5 105) rotate(0 97.5 32.5)"><path d="M-3.13 3.87 L192.85 -0.01 L197.4 68.69 L-0.91 66.29" stroke="none" stroke-width="0" fill="#DBE6FA"></path><path d="M3.46 3.2 C47.2 -3.32, 94.15 0.9, 194.57 -2.05 M-1.13 0.54 C76.08 2.97, 153.74 2.53, 195.84 1.65 M193.84 3.13 C192.06 16.4, 195.72 27.87, 191.03 64.87 M193.88 -0.39 C195.38 13.03, 195.16 29.03, 195.72 63.24 M195.79 67.93 C156.12 65.59, 116.2 63.64, -3.43 61.98 M195.98 66.9 C132.32 62.4, 74.49 63.42, 1.74 65.44 M-2.74 65.47 C1.15 42.06, -2.01 22.12, 2.33 1.04 M-1.73 65.86 C0.39 43.02, 0.41 20.01, -0.24 -1.1" stroke="#4B7BE5" stroke-width="2" fill="none"></path></g><g transform="translate(887.5 128) rotate(0 97.5 9.5)"><text x="97.5" y="15.1" font-family="Cascadia, Segoe UI Emoji" font-size="16px" fill="#4B7BE5" text-anchor="middle" style="white-space: pre;" direction="ltr">RS 1 follower</text></g><g stroke-linecap="round" transform="translate(887.5 193) rotate(0 97.5 32.5)"><path d="M0.07 -0.76 L193.22 -1.52 L191.43 62.56 L-1.5 62.55" stroke="none" stroke-width="0" fill="#CDF0EB"></path><path d="M2.32 2.91 C44.65 -5.18, 97.68 -0.11, 196.22 1.09 M1.68 -1.34 C53.25 -1.26, 109.74 -2.26, 195.19 -0.33 M198.13 -2.87 C193.05 14.79, 194.24 39.84, 194.15 65.91 M196.26 1.22 C196.36 18.93, 196.32 38.81, 194.98 66.06 M196.21 66.22 C144.14 63.88, 86.28 65.58, 3.26 66.75 M196.43 65.75 C154.4 62.29, 110.44 65.14, 1.25 65.77 M-0.5 63.22 C-3.34 49.27, 3.64 30.42, -0.94 -0.61 M0.02 65.85 C0.18 51.21, 0.26 35.65, -0.71 -1.19" stroke="#2D9B8E" stroke-width="2" fill="none"></path></g><g transform="translate(887.5 216) rotate(0 97.5 9.5)"><text x="97.5" y="15.1" font-family="Cascadia, Segoe UI Emoji" font-size="16px" fill="#2D9B8E" text-anchor="middle" style="white-space: pre;" direction="ltr">RS 2 follower</text></g><g stroke-linecap="round" transform="translate(887.5 281) rotate(0 97.5 32.5)"><path d="M3.27 2.61 L193.58 -3.03 L193.46 64.43 L-2.1 66.81" stroke="none" stroke-width="0" fill="#F09CAB"></path><path d="M1.18 2.62 C50.09 0.77, 93.21 -1.31, 197.87 -3.77 M0.49 0.77 C69.42 -1.68, 139.74 -3.24, 194.55 1.69 M194.43 -0.87 C194.04 21.19, 192.76 43.82, 197.28 66.96 M194.64 -1.17 C195.93 24.83, 196.08 48.59, 194.23 64.88 M196.63 64.52 C132.16 62.17, 64.36 67.52, 1.95 63.52 M196.88 64.6 C133.49 66.19, 72.38 66.87, 0.76 66.11 M1.73 68.97 C-2.43 48.47, -1.3 38.71, 3.8 -2.26 M1.76 65.83 C1.38 46.4, 1.5 29.28, -1.19 -1.29" stroke="#E23956" stroke-width="3" fill="none"></path></g><g transform="translate(887.5 304) rotate(0 97.5 9.5)"><text x="97.5" y="15.1" font-family="Cascadia, Segoe UI Emoji" font-size="16px" fill="#E23956" text-anchor="middle" style="white-space: pre;" direction="ltr">RS 3 leader</text></g><g stroke-linecap="round"><g transform="translate(250.5 137.5) rotate(0 110.5 0)"><path d="M1.62 0.02 C38.97 0.01, 185.93 -0.58, 222.63 -0.58" stroke="#4B7BE5" stroke-width="2.5" fill="none" stroke-dasharray="8 10"></path></g></g><g stroke-linecap="round"><g transform="translate(666.5 137.5) rotate(0 110.5 0)"><path d="M2.75 2.42 C39.62 2.1, 183.61 -0.81, 219.73 -1.48" stroke="#4B7BE5" stroke-width="2.5" fill="none" stroke-dasharray="8 10"></path></g></g><g stroke-linecap="round"><g transform="translate(250.5 225.5) rotate(0 110.5 0)"><path d="M-1.71 -0.78 C35.6 -1.41, 185.02 -2.91, 222.43 -2.37" stroke="#2D9B8E" stroke-width="2.5" fill="none" stroke-dasharray="8 10"></path></g></g><g stroke-linecap="round"><g transform="translate(666.5 225.5) rotate(0 110.5 0)"><path d="M-0.58 1.62 C36.25 1.62, 182.7 2.45, 219.53 2.33" stroke="#2D9B8E" stroke-width="2.5" fill="none" stroke-dasharray="8 10"></path></g></g><g stroke-linecap="round"><g transform="translate(250.5 313.5) rotate(0 110.5 0)"><path d="M0.56 -1.57 C37.84 -0.95, 185.05 1.29, 222.23 1.44" stroke="#E23956" stroke-width="2.5" fill="none" stroke-dasharray="8 10"></path></g></g><g stroke-linecap="round"><g transform="translate(666.5 313.5) rotate(0 110.5 0)"><path d="M1.69 0.83 C38.49 1.14, 182.73 1.05, 219.33 0.54" stroke="#E23956" stroke-width="2.5" fill="none" stroke-dasharray="8 10"></path></g></g><g stroke-linecap="round"><g transform="translate(985 170) rotate(0 -416 135)"><path d="M-2.77 -2.37 C-2.36 42.63, 139.57 223.95, 1.03 269.64 C-137.52 315.34, -695.02 316.55, -834.04 271.78 C-973.06 227.01, -833.54 46.31, -833.11 1.04" stroke="#4B7BE5" stroke-width="2.5" fill="none" stroke-dasharray="8 10"></path></g></g><g stroke-linecap="round"><g transform="translate(985 258) rotate(0 -416 98.5)"><path d="M-1.64 0.03 C-1.71 32.56, 136.32 162.89, -1.87 195.75 C-140.07 228.61, -692.37 230.03, -830.79 197.21 C-969.2 164.39, -832.42 31.46, -832.35 -1.19" stroke="#2D9B8E" stroke-width="2.5" fill="none" stroke-dasharray="8 10"></path></g></g><g stroke-linecap="round"><g transform="translate(985 346) rotate(0 -416 62)"><path d="M-0.5 2.43 C-0.12 22.48, 139.6 101.82, 0.82 121.85 C-137.95 141.89, -694.39 142.59, -833.13 122.64 C-971.86 102.7, -832.24 22.21, -831.6 2.19" stroke="#E23956" stroke-width="2.5" fill="none" stroke-dasharray="8 10"></path></g></g><g transform="translate(10 500) rotate(0 559 12)"><text x="559" y="19.0" font-family="Cascadia, Segoe UI Emoji" font-size="20px" fill="#2B1321" text-anchor="middle" style="white-space: pre;" direction="ltr">shared-nothing: each instance = dedicated CPU core(s)</text></g><g stroke-linecap="round" transform="translate(210 530) rotate(0 11 11)"><path d="M-1.55 -1.15 L22.77 3.9 L24.64 24.67 L2.33 25.37" stroke="none" stroke-width="0" fill="#A8C4F0"></path><path d="M2.32 0.89 C7.84 -0.58, 12.5 2.46, 18.78 -0.94 M1.35 1.47 C5.79 -1.1, 10.44 -2, 21.69 1.83 M23.19 3.16 C24.63 9.6, 24.55 15.78, 19.02 22.23 M23.93 0.46 C21.65 3.89, 22.93 10.6, 20.76 22.79 M18.16 19.27 C18.51 17.99, 6.33 21.26, 2.1 25.15 M22.6 22.71 C14.89 23.88, 6.82 23.52, 1.83 21.12 M-0.86 20.46 C2.94 19.17, 0.91 10.48, 0.21 3.85 M0.22 22.75 C-0.61 12.69, -0.2 4.43, -0.03 -1.86" stroke="#4B7BE5" stroke-width="3" fill="none"></path></g><g transform="translate(238 530) rotate(0 32.5 11)"><text x="0" y="16.6" font-family="Cascadia, Segoe UI Emoji" font-size="16px" fill="#2B1321" text-anchor="start" style="white-space: pre;" direction="ltr">leader</text></g><g stroke-linecap="round" transform="translate(330 530) rotate(0 11 11)"><path d="M1.65 2.23 L23.13 2.38 L18.67 18.54 L1.73 21.62" stroke="none" stroke-width="0" fill="#DBE6FA"></path><path d="M1.18 0.6 C5.28 1.24, 8.02 -2.86, 20.43 2.2 M0.16 -0.41 C7.19 1.53, 14.89 0.07, 21.05 -0.15 M19.48 -2.83 C25.49 8.58, 22.94 12.93, 22.15 23.27 M22.31 -1.93 C23.26 6.63, 20.72 14.06, 20.02 21.6 M18.59 25.56 C17.38 24.43, 6.1 23.34, 0.8 21.92 M23.05 21.56 C16.31 21.31, 9.43 22.78, 1.34 21.45 M1.38 18.2 C-2.49 16.1, -2.38 14.24, -3.06 2.2 M1.97 22.74 C0.98 14.65, 1.44 11.6, -0.5 -1.96" stroke="#4B7BE5" stroke-width="2" fill="none"></path></g><g transform="translate(358 530) rotate(0 40 11)"><text x="0" y="16.6" font-family="Cascadia, Segoe UI Emoji" font-size="16px" fill="#2B1321" text-anchor="start" style="white-space: pre;" direction="ltr">follower</text></g><g stroke-linecap="round"><g transform="translate(470 541) rotate(0 25 0)"><path d="M0.71 0.03 C9.32 -0.56, 41.73 -1.99, 50.22 -1.92" stroke="#2B1321" stroke-width="2.5" fill="none" stroke-dasharray="8 10"></path></g></g><g transform="translate(526 530) rotate(0 60 11)"><text x="0" y="16.6" font-family="Cascadia, Segoe UI Emoji" font-size="16px" fill="#2B1321" text-anchor="start" style="white-space: pre;" direction="ltr">replication</text></g></svg>