<svg version="1.1" xmlns="http://www.w3.org/2000/svg" viewBox="0 0 488 474" width="488" height="474">
  <!-- svg-source:excalidraw -->
  
  <defs>
    <style>
      @font-face {
        font-family: "Virgil";
        src: url("https://excalidraw.com/Virgil.woff2");
      }
      @font-face {
        font-family: "Cascadia";
        src: url("https://excalidraw.com/Cascadia.woff2");
      }
    </style>
  </defs>
  <rect x="0" y="0" width="488" height="474" fill="transparent"></rect><g transform="translate(10 10) rotate(0 62 14)"><text x="62" y="14.0" dominant-baseline="central" font-family="Cascadia, Segoe UI Emoji" font-size="16px" fill="#E23956" text-anchor="middle" style="white-space: pre;" direction="ltr">RS 1</text></g><g stroke-linecap="round" transform="translate(10 38) rotate(0 62 73)"><path d="M2.04 -2.81 L127.94 -0.52 L122.57 142.7 L1.22 142.92" stroke="none" stroke-width="0" fill="#F8CDD6"></path><path d="M1.28 3.47 C34.37 -4.67, 73.97 -1.51, 125.65 -3.04 M1.43 -0.08 C51.18 -1.63, 98.3 -0.19, 123.37 -0.44 M122.31 -2.61 C118.95 31.64, 126.17 70.27, 125.65 146.86 M123.04 -1.66 C121.83 39.45, 121.73 74.65, 122.66 144.58 M124.25 144.54 C82.92 143.59, 39.27 150.71, -1.06 147.41 M122.46 146.73 C89 145.66, 55.38 146.78, 1.3 147.46 M-1.27 142.78 C-3.17 107.17, -5.62 69.1, 3.95 -0.16 M1.61 147.63 C-0.34 110.96, 0.01 70.83, -0.67 -1.98" stroke="#B91A36" stroke-width="1" fill="none"></path></g><g transform="translate(24 52) rotate(0 48 10)"><text x="48" y="10.0" dominant-baseline="central" font-family="Cascadia, Segoe UI Emoji" font-size="13px" fill="#B91A36" text-anchor="middle" style="white-space: pre;" direction="ltr">★ Leader</text></g><g stroke-linecap="round" transform="translate(24 74) rotate(0 22 22)"><path d="M-2.76 0.56 L40.3 -2.03 L44.6 42.57 L0.63 45.18" stroke="none" stroke-width="0" fill="#F09CAB"></path><path d="M0.14 3.18 C16.02 -1.57, 29.91 2.44, 47.3 0.1 M0.24 -1.96 C13.73 -1.68, 25.04 -0.79, 42.73 1.59 M46.61 -0.61 C40.8 12.46, 45.55 23.1, 40.77 45.91 M45.42 -0.06 C42.52 13.49, 42.61 28.7, 45.91 45.4 M44.67 40.83 C27.04 47.32, 9.55 42.09, -2.37 42.18 M42.91 43.58 C25.94 42.46, 9.03 45.41, 0.81 45.79 M0.97 46.52 C1.86 28.07, 1.55 6.79, 0.69 -1.8 M-0.65 45.62 C-2.18 31.02, -1.78 16.2, -1.15 1.92" stroke="#B91A36" stroke-width="1" fill="none"></path></g><g transform="translate(24 74) rotate(0 22 22)"><text x="22" y="22.0" dominant-baseline="central" font-family="Cascadia, Segoe UI Emoji" font-size="13px" fill="#B91A36" text-anchor="middle" style="white-space: pre;" direction="ltr">1</text></g><g stroke-linecap="round" transform="translate(76 74) rotate(0 22 22)"><path d="M0.44 3.94 L40.67 -3.55 L46.63 44.45 L0.03 41.44" stroke="none" stroke-width="0" fill="#F09CAB"></path><path d="M-1 2.89 C13.46 -0.98, 25.43 3.89, 40.95 3.23 M-0.95 0.15 C17 1.07, 33.25 1.4, 42.09 -0.39 M42.9 1.4 C41.73 17.39, 44.01 32.14, 43.9 46.95 M43.8 1.55 C43.8 9.04, 44.08 17.79, 45.17 44.22 M45.09 47.12 C33.33 45.74, 24.16 44.16, -3.68 46.95 M43.37 42.43 C29.47 44.98, 19.88 45.75, 0.32 42.13 M3.2 44.27 C3.15 26.16, -3.02 12.88, -2.58 -3.45 M1.09 45.61 C0.97 27.37, 1.42 12.15, -1.62 1.83" stroke="#B91A36" stroke-width="1" fill="none"></path></g><g transform="translate(76 74) rotate(0 22 22)"><text x="22" y="22.0" dominant-baseline="central" font-family="Cascadia, Segoe UI Emoji" font-size="13px" fill="#B91A36" text-anchor="middle" style="white-space: pre;" direction="ltr">47</text></g><g stroke-linecap="round" transform="translate(24 126) rotate(0 22 22)"><path d="M0 0 C0 0, 0 0, 0 0 M0 0 C0 0, 0 0, 0 0 M-0.76 6.19 C2.47 3.71, 1.99 4.5, 5.11 -1.21 M-0.19 6.25 C2.42 4.55, 4.39 1.01, 4.98 0.76 M3.13 11.97 C5.47 6.39, 8.55 3.12, 9.61 1.36 M0.51 10.71 C1.88 8.79, 4.83 8.31, 9.32 0.46 M-3.89 21.79 C1.37 15.68, 8.75 10, 17.42 3.74 M0.6 18.98 C6.55 11.65, 10.4 9.9, 14.42 -0.98 M-0.27 27.85 C10.69 16.41, 16.56 5.01, 22.88 -0.91 M-1.01 24.48 C4.13 20.96, 8.53 16.08, 22.6 -0.89 M2.9 26.78 C4.63 24.87, 13.43 17.09, 27.1 -1.87 M1.55 32.03 C7.54 23.73, 12.48 13.63, 24.34 1.96 M-0.66 38.81 C13.42 23.68, 19.49 14.08, 30.07 -0.33 M-0.4 36.67 C11.56 26.06, 19.68 13.79, 33.47 -1.94 M3.82 42.57 C8.98 35.38, 23.03 21.89, 38.52 -2.4 M0.38 42.36 C9.9 29.28, 24.07 16.25, 35.94 -0.03 M2.07 47.04 C17.03 29.04, 28.44 17.95, 40.56 3.49 M1.98 47.84 C14.43 31.7, 27.72 18.34, 43.35 0.99 M6.98 49.63 C20.85 36.66, 30.97 22.15, 44.48 -1.27 M8.41 44.85 C17.06 34.81, 25.64 23.26, 44.7 1.35 M13.88 47.08 C21.4 34.8, 32.05 17.39, 44.72 5.93 M13.86 47.09 C22.32 34.41, 34.64 20.75, 47.3 7.69 M21.28 44.33 C25.23 41.24, 31.86 31.44, 49.16 10.69 M18.36 47.15 C27.39 36.25, 37.72 21.71, 45.01 12.89 M22.18 44.85 C35.07 37.73, 37.26 28.81, 44.01 20.62 M24.03 44.87 C29.48 38.14, 37.39 32.56, 46.07 19.13 M32.2 45.34 C37.79 35.99, 42.47 29.3, 47.07 24.86 M30.14 46.15 C32.24 41.05, 35.94 39.23, 47.25 27.5 M36.03 46.24 C35.33 44.31, 42.45 39.74, 43.45 32.92 M32.87 47.34 C39.4 40.44, 45.27 35.65, 44.47 32.89 M39.92 46.4 C42.25 42.89, 43.25 38.74, 44.69 38.29 M39.43 46.53 C41.41 42.46, 45.1 40.59, 45.01 37.97 M0.1 44.09 C0.1 44.09, 0.1 44.09, 0.1 44.09 M0.1 44.09 C0.1 44.09, 0.1 44.09, 0.1 44.09 M4.42 44.94 C3.07 42.89, 1.74 38.37, 0.28 38.22 M5.18 43.03 C4.71 42.01, 1.89 41.17, -0.43 38.11 M9.33 46.74 C8.37 41.16, 2.75 37.45, -3.09 32.43 M12.42 43.82 C7.96 39.64, 3.64 36.79, 0.52 34.41 M21.38 47.38 C13.96 35.77, 8.36 33.46, 0.5 30.7 M18.21 43.99 C10.97 38.15, 3.38 30.87, -1.89 27.67 M24.08 46 C20.45 36.95, 15.57 31.03, -1.22 24.88 M24.58 42.61 C16.48 36.22, 9.08 33.44, 0.36 23.4 M30.65 47.84 C20.34 38.4, 7.28 30.64, -2.93 16.34 M31.22 46.06 C24.54 39.04, 19.77 34.88, -1.96 16.59 M37.6 42.6 C26.08 33.1, 13.8 26.39, -1.5 10.77 M35.3 45.33 C25.11 36.04, 16.69 27.32, -1.79 12.02 M39.45 47.07 C32.25 32.6, 16.19 19.89, 3.29 5.95 M41.95 45.88 C26.51 29.39, 8.63 16.85, 1.41 6.56 M49.83 42.5 C35.32 34.84, 27.77 20.36, -3.58 -1.64 M46.22 43.15 C29.84 27.42, 12.21 11.39, 0.18 -0.19 M47.88 35.13 C32.63 24.12, 10.85 9.41, 4.76 -4.92 M46.48 35.13 C33.41 26.66, 19.19 15.55, 1.22 -3.89 M46.1 31.47 C38.67 24.54, 30.1 17.56, 5.92 -1.53 M45.2 31.68 C32.39 21.39, 19.78 6.57, 9.1 -2.75 M48.78 24.3 C32.62 19.52, 22.06 5.92, 14.85 0.9 M46.25 24.64 C37.83 19.17, 30.06 12.38, 13.84 -0.73 M47.03 23.38 C36.1 15.3, 22.85 5.04, 19.5 1.81 M46.96 20.55 C39.6 14.26, 34.08 8.19, 21.51 -2.37 M50.21 17.27 C43.92 13.16, 38.83 8.2, 24.47 -0.11 M44.46 14.55 C40.42 11.76, 31.21 5.94, 26.78 -2.68 M45.39 8.8 C40.39 3.64, 38.19 5.2, 34.14 -4.87 M44.15 8.03 C41.61 6.27, 38.42 3.14, 31.33 -1.24 M45.32 6.6 C45.23 4.3, 44.37 2.75, 38.26 -1.2 M45.67 5.19 C44.56 2.28, 40.66 0.12, 39.55 -2.76" stroke="#FFE0B2" stroke-width="0.5" fill="none"></path><path d="M-2.14 2.6 C10.91 -0.38, 28.95 -2.67, 42.6 -1.63 M1.86 -1.73 C11.47 -0.18, 23.86 -0.41, 45.44 1.63 M47.19 3.4 C42.65 13.51, 42.47 23.57, 47.02 48 M42.18 -0.85 C46.84 13.4, 43.31 24.48, 44.42 43.03 M45.52 45.41 C30.81 44.16, 13.18 46.23, 3.01 43.72 M43.82 45.28 C28.21 41.73, 9.12 44.33, -0.17 42.46 M-2.56 42.02 C-1.8 32.26, 2.18 18.96, 2.15 2.9 M-1.16 45.59 C-1.65 32.51, -1.15 25.7, 1.91 1.73" stroke="#E65100" stroke-width="1" fill="none"></path></g><g transform="translate(24 126) rotate(0 22 22)"><text x="22" y="22.0" dominant-baseline="central" font-family="Cascadia, Segoe UI Emoji" font-size="13px" fill="#E65100" text-anchor="middle" style="white-space: pre;" direction="ltr">2044</text></g><g stroke-linecap="round" transform="translate(76 126) rotate(0 22 22)"><path d="M-1.17 2.68 L41.4 1.43 L42.69 40.19 L-1.16 41.96" stroke="none" stroke-width="0" fill="#F09CAB"></path><path d="M-3.29 2.31 C16.35 1.97, 24.47 0.54, 44.26 1.51 M0.67 0.39 C14.75 -1.43, 28.07 1.78, 44.8 -0.34 M43.49 -2.59 C43.58 10.43, 40.92 24.61, 42.15 41.04 M44.56 0.76 C44.13 13.76, 44.78 31.18, 43.68 45.85 M45.94 43.71 C28.3 42.57, 10.19 40.3, 1.7 40.49 M44.27 44.13 C31.75 44.24, 19.97 44.68, -0.66 42.8 M-0.33 47.77 C-0.51 30.35, -2.39 25.04, -1.11 1.25 M0.58 45.58 C-0.26 32.86, 0.29 21.65, 1.43 1.64" stroke="#B91A36" stroke-width="1" fill="none"></path></g><g transform="translate(76 126) rotate(0 22 22)"><text x="22" y="22.0" dominant-baseline="central" font-family="Cascadia, Segoe UI Emoji" font-size="13px" fill="#B91A36" text-anchor="middle" style="white-space: pre;" direction="ltr">203</text></g><g stroke-linecap="round"><g transform="translate(72 186) rotate(0 0 10)"><path d="M1.46 2.5 C1.71 5.99, 1.31 17.36, 1.42 20.49 M-1.2 1.39 C-1.19 4, -0.49 13.24, -0.05 15.75" stroke="#4B7BE5" stroke-width="1.5" fill="none"></path></g></g><g transform="translate(78 186) rotate(0 25 10)"><text x="0" y="10.0" dominant-baseline="central" font-family="Cascadia, Segoe UI Emoji" font-size="9px" fill="#4B7BE5" text-anchor="start" style="white-space: pre;" direction="ltr">repl.</text></g><g stroke-linecap="round" transform="translate(10 208) rotate(0 62 73)"><path d="M-2.77 1.43 L122.12 -1.59 L126.75 145.94 L-2.35 144.48" stroke="none" stroke-width="0" fill="#E8E9EB"></path><path d="M2.43 1.74 C35.03 -2.02, 71.11 -1.74, 127.56 -0.21 M-1.7 0.62 C37.42 1.49, 76.74 3.59, 123.52 -0.3 M124.07 1.41 C126.38 37.62, 126.79 77.37, 120.39 145.13 M125.33 -0.03 C125.99 44.22, 127.02 88.07, 122.19 145.49 M126.78 142.29 C87.34 149.69, 44.37 146.72, -0.91 144.04 M125.18 147.83 C86.06 148.18, 48.16 148.27, -1.63 145.47 M-3.86 145.27 C-4.95 93.63, -2.56 45.38, 0.36 -2.05 M0.07 147.55 C2.03 88.54, 2.67 33.53, 0.48 1.45" stroke="#737A82" stroke-width="1" fill="none"></path></g><g transform="translate(24 222) rotate(0 48 10)"><text x="48" y="10.0" dominant-baseline="central" font-family="Cascadia, Segoe UI Emoji" font-size="13px" fill="#737A82" text-anchor="middle" style="white-space: pre;" direction="ltr">Follower</text></g><g stroke-linecap="round" transform="translate(24 244) rotate(0 22 22)"><path d="M0.42 -3.2 L42.49 -3.11 L40.78 45.81 L-2.95 46.74" stroke="none" stroke-width="0" fill="#CFD3D6"></path><path d="M1.29 1.45 C16.68 -2.5, 27.04 -1.37, 41.21 2.93 M1.11 -1.26 C15.77 1.06, 35.09 -1.4, 42.87 1.72 M40.37 3.42 C46.35 16.4, 44.3 26.11, 43.52 44.18 M43.71 1.58 C45.74 18.03, 42.96 33.66, 45.44 42.31 M47.21 46.58 C29.55 45.83, 10.84 46.51, -2.22 46.81 M45.63 44.68 C33.55 42.02, 26.91 43.94, 1.88 43.8 M-1.62 41.01 C-1.11 31.83, 3.42 17.69, -2.91 -3.7 M1.81 45.53 C1.67 34.7, -1.64 23.1, 0.01 1.35" stroke="#9E9E9E" stroke-width="1" fill="none"></path></g><g transform="translate(24 244) rotate(0 22 22)"><text x="22" y="22.0" dominant-baseline="central" font-family="Cascadia, Segoe UI Emoji" font-size="13px" fill="#9E9E9E" text-anchor="middle" style="white-space: pre;" direction="ltr">1</text></g><g stroke-linecap="round" transform="translate(76 244) rotate(0 22 22)"><path d="M3.62 0.17 L42.85 3.38 L42.81 47.68 L-3.54 43" stroke="none" stroke-width="0" fill="#CFD3D6"></path><path d="M0.15 1.16 C14.12 -1.9, 22.56 0.08, 42.86 -1.93 M-0.08 0.85 C14.24 -0.19, 25.69 0.79, 42.23 -0.25 M44.66 -2.58 C47.28 21.32, 42.76 35.15, 46.64 45.22 M42.09 -0.82 C43.03 9.58, 44.43 22.75, 44.7 45.12 M47.63 44.88 C35.84 44.25, 25.45 40.58, -3.53 43.58 M42.08 43.53 C32.29 44.54, 16.15 44.28, 1.39 44.14 M0.61 46.76 C0.18 29.93, -1.14 23.78, 1.83 2.65 M-0.45 45.52 C-0.94 31.04, -0.2 19.05, -0.46 1.25" stroke="#9E9E9E" stroke-width="1" fill="none"></path></g><g transform="translate(76 244) rotate(0 22 22)"><text x="22" y="22.0" dominant-baseline="central" font-family="Cascadia, Segoe UI Emoji" font-size="13px" fill="#9E9E9E" text-anchor="middle" style="white-space: pre;" direction="ltr">47</text></g><g stroke-opacity="0.6" fill-opacity="0.6" stroke-linecap="round" transform="translate(24 296) rotate(0 22 22)"><path d="M0 0 C0 0, 0 0, 0 0 M0 0 C0 0, 0 0, 0 0 M1.33 6.46 C0.02 3.58, 2.59 2.93, 5.75 1.88 M-0.81 6.19 C1.08 5.08, 1.68 3.76, 4.3 -0.18 M2.34 14.15 C4.64 11.43, 6.57 8.89, 12.07 1.2 M-1.02 12.35 C3.33 7.49, 8.63 4.1, 10.47 -0.02 M-1.27 16.81 C0.12 15.6, 8.37 4.38, 11.92 0.58 M1.43 19.84 C5.37 12.93, 10.82 7.23, 14.64 1.42 M-3.3 20.95 C9.96 15.27, 14.37 6.01, 23.01 3.65 M-0.21 26.02 C5.99 20.33, 9.63 12.16, 21.93 -0.29 M3.44 31.26 C12.6 19.54, 16.89 7.79, 27.9 3.75 M1.04 31.23 C8.37 23.31, 13.73 15.05, 27.7 -0.75 M-4.19 36.31 C9.01 28.68, 17.4 18.79, 35.04 0.21 M-1.99 34.9 C10.29 25.3, 22.34 12.97, 30.87 -1.43 M-0.76 41.06 C13.69 29.41, 22.95 19.42, 38.19 -1.63 M-0.13 42.19 C13.75 27.46, 28.43 10.88, 35.39 -1.38 M4.77 43.66 C16.18 29.59, 28.76 8.12, 46.1 1.15 M3.62 45.31 C11.88 36.68, 20.15 26.48, 44.35 0.83 M8.15 42.63 C17.17 33.83, 34.59 15.03, 48.27 2.22 M5.6 45.3 C17.64 34.79, 29.56 20.73, 48.16 0.91 M12.21 48.72 C26.75 35.91, 34.78 25.26, 43.98 10.32 M14.32 44.44 C26.96 30.73, 39.07 15.82, 46.02 7.75 M14.51 46.79 C22.47 42.53, 28.74 35, 44.5 12.16 M18.56 46.69 C24.35 36.75, 33.52 31.14, 46.63 14.77 M21.73 43.12 C32.22 40.83, 34.64 28.71, 45.06 16.29 M24.14 45.58 C29.55 38.42, 33.28 35.05, 44.49 18.49 M28.74 45.15 C32.86 43.7, 37.33 35.24, 45.07 29.76 M29.49 46.45 C33.35 39.4, 40.85 35.72, 46.64 27.67 M36.07 48.67 C40.68 41.03, 45.02 36.83, 46.49 33.77 M33.8 46.55 C38.39 40.47, 43.21 37.06, 47.34 33.56 M38.67 44.64 C42.9 42.5, 43.44 40.72, 47.17 37.54 M39.8 45.89 C40.68 44.42, 43.8 41.01, 45.76 38.88 M0.1 44.09 C0.1 44.09, 0.1 44.09, 0.1 44.09 M0.1 44.09 C0.1 44.09, 0.1 44.09, 0.1 44.09 M4.45 42.72 C5.06 42.75, 3.84 42.66, -1.77 37.19 M5.87 44.43 C3.74 41.19, 1.58 40.57, -0.46 37.65 M13.36 43.74 C8.35 40.57, 2.67 40.18, -0.88 35.44 M13.15 43.24 C8.65 42.13, 7.27 39.29, 1 32.26 M15.06 41.53 C16.27 41.97, 11.81 38.31, -3.55 30.13 M17.12 44.06 C10.95 38.69, 5.22 30.78, -0.01 27.85 M20.49 40.26 C15.68 39.57, 7.27 31.16, -1.03 21.56 M25.63 42.54 C15.8 35.13, 4.45 27.95, 0.04 21.57 M31.89 42.36 C22.78 33.01, 6.71 26.64, 2.92 16.99 M31.34 44.77 C20.95 36.3, 15.92 28.94, -0.11 15.92 M38.36 44.44 C25.41 39.11, 19.64 27.69, -2.64 13.14 M36.16 42.85 C27.94 36.18, 18.04 28.35, -1.07 12.48 M38.64 40.08 C29.95 27.56, 7.54 14.97, 3.05 9.75 M42.42 44.21 C32.9 35.87, 23.67 28.1, -1.04 5.23 M45.12 38.21 C33.38 26.16, 15.18 10.48, 3.11 1.15 M47.3 42.53 C36.09 33.81, 22.24 23.67, -0.75 2.7 M45.33 36.69 C33.33 20.09, 15.51 12.24, -0.88 -2.83 M44.78 37.82 C32.82 24.71, 16.62 14.21, 3.18 -2.59 M44.76 30.52 C36.76 20.24, 28.47 16.28, 7.03 0.84 M46.87 29.27 C33.91 19.83, 22.1 9.87, 6.44 -1.83 M48.25 22.92 C34.74 13.92, 30.3 8.66, 14.68 -3.9 M45.46 24.86 C34.18 13.77, 20.71 3.11, 13.12 -1.69 M46.07 16.95 C33.02 11.74, 24.43 1, 20.55 -2.12 M44.83 21.54 C37.06 13.04, 28.48 3.54, 18.86 -3.61 M44.37 18.39 C40.37 11.05, 33.34 7.6, 28.32 -2.78 M44.51 14.69 C40.28 9.61, 34.66 4.82, 27.79 -2.19 M47.31 8.29 C45.54 5.8, 38.55 3.1, 29.58 -3.69 M44.27 10.9 C41.01 6.39, 37.25 2.89, 31.53 -3.58 M47.29 2.87 C46.53 4.4, 41.58 1.71, 40.06 -2.61 M46.13 5.41 C43.55 3.36, 40.75 0.22, 38.48 -1.27" stroke="#FFE0B2" stroke-width="0.5" fill="none"></path><path d="M-1 0.87 C11.56 0.45, 26.08 3.28, 44.51 1.21 M-1.27 -1.03 C17.51 -1.44, 33.9 -1.01, 45.59 1.77 M40.96 -0.57 C48.21 9.44, 41.21 26.58, 41.77 46.27 M44.47 0.79 C46.07 13.94, 43.67 29.45, 43.95 43.94 M40.05 43.17 C33.32 42.66, 14.46 42.65, 3.16 40.35 M42.53 42.38 C35.83 43.05, 27 44.62, 0.9 44.47 M2.85 44.51 C3.23 27.22, 4.05 12.26, -1.44 1.01 M1.3 45.51 C0.44 27.39, 1.23 15.01, -0.94 1.16" stroke="#E65100" stroke-width="1" fill="none"></path></g><g transform="translate(24 296) rotate(0 22 22)"><text x="22" y="22.0" dominant-baseline="central" font-family="Cascadia, Segoe UI Emoji" font-size="13px" fill="#E65100" text-anchor="middle" style="white-space: pre;" direction="ltr">2044</text></g><g stroke-linecap="round" transform="translate(76 296) rotate(0 22 22)"><path d="M2.02 -1.08 L43.58 0.36 L46.87 43.43 L3.27 43.52" stroke="none" stroke-width="0" fill="#CFD3D6"></path><path d="M-2.14 0.58 C17 1.04, 29.6 -3.27, 46.16 -3.66 M1.54 1.09 C11.99 1.31, 20.51 1.18, 44.94 -0.21 M45.25 1.43 C39.37 14.37, 45.91 27.61, 44.89 47.31 M42.85 -1.61 C43.35 18.3, 45.14 36.14, 43.21 42.76 M40.47 41.46 C30.81 41.08, 11.48 44.72, 1.85 45.12 M42.99 45.23 C30.56 45.57, 16.25 44.97, 0.41 44.81 M-2.92 42.26 C-3.48 33.32, -0.52 18.34, 3.3 -0.64 M-0.96 45.49 C-2.17 36.53, -1.33 24.56, -1.41 1.06" stroke="#9E9E9E" stroke-width="1" fill="none"></path></g><g transform="translate(76 296) rotate(0 22 22)"><text x="22" y="22.0" dominant-baseline="central" font-family="Cascadia, Segoe UI Emoji" font-size="13px" fill="#9E9E9E" text-anchor="middle" style="white-space: pre;" direction="ltr">203</text></g><g transform="translate(182 10) rotate(0 62 14)"><text x="62" y="14.0" dominant-baseline="central" font-family="Cascadia, Segoe UI Emoji" font-size="16px" fill="#E23956" text-anchor="middle" style="white-space: pre;" direction="ltr">RS 2</text></g><g stroke-linecap="round" transform="translate(182 208) rotate(0 62 73)"><path d="M-1.19 -0.02 L120.13 -1.91 L121.91 148.24 L-1.63 147.91" stroke="none" stroke-width="0" fill="#F8CDD6"></path><path d="M0.15 -3.85 C36.97 0.02, 70.49 0.99, 124.64 1.05 M1.75 0.26 C45.41 -2.42, 93.83 -1.39, 125.98 0.82 M127.69 -3.56 C126.27 33.57, 125.11 72.81, 125.58 146.88 M122.42 0.8 C121.5 28.47, 123.56 61.45, 124.09 144.99 M125.11 148.9 C91.53 148.61, 63.98 145.73, -0.11 142.28 M123.67 145.5 C77.51 144.11, 33.8 144.26, -0.32 147.31 M-3.56 148.88 C2.62 111.55, 0.79 71.64, 2.4 0.88 M1.66 147.47 C-0.59 91.35, -1.68 33.07, -0.12 0.92" stroke="#B91A36" stroke-width="1" fill="none"></path></g><g transform="translate(196 222) rotate(0 48 10)"><text x="48" y="10.0" dominant-baseline="central" font-family="Cascadia, Segoe UI Emoji" font-size="13px" fill="#B91A36" text-anchor="middle" style="white-space: pre;" direction="ltr">★ Leader</text></g><g stroke-linecap="round" transform="translate(196 244) rotate(0 22 22)"><path d="M2.01 3.35 L40.49 -3.42 L43.94 40.11 L-2.22 42.17" stroke="none" stroke-width="0" fill="#F09CAB"></path><path d="M-0.99 3.86 C10.61 0.28, 26.4 2.1, 46.29 -3.81 M0.57 -1.62 C13.37 1.3, 23.43 -2.22, 45.34 -1.15 M43.98 -1.56 C46.57 13.87, 42.94 24.6, 40.7 45.93 M44.81 -1.59 C45.21 11.99, 43.46 22.47, 43.34 45.8 M45.53 45.19 C29.32 45.13, 13.62 45.89, -1.42 45.05 M44.12 42.35 C30.6 42.09, 19.76 44.06, -0.81 45.64 M-1.33 44.63 C-1.61 23.75, -1.3 7.95, -0.87 -0.76 M-0.6 45.46 C-0.06 33.8, -1.1 23.23, -0.6 0.82" stroke="#B91A36" stroke-width="1" fill="none"></path></g><g transform="translate(196 244) rotate(0 22 22)"><text x="22" y="22.0" dominant-baseline="central" font-family="Cascadia, Segoe UI Emoji" font-size="13px" fill="#B91A36" text-anchor="middle" style="white-space: pre;" direction="ltr">742</text></g><g stroke-linecap="round" transform="translate(248 244) rotate(0 22 22)"><path d="M-2.79 -1.28 L40.86 3.07 L45.97 41.98 L-2.82 46.43" stroke="none" stroke-width="0" fill="#F09CAB"></path><path d="M-2.13 3.57 C16.05 2.63, 29.92 -2.69, 47.94 -0.67 M-0.62 0.49 C16.64 0.05, 31.63 -0.03, 44.69 0.87 M40.28 0.45 C47.49 18.79, 41.4 33.64, 43.83 46.97 M43.19 0.02 C42.49 16.35, 44.93 29.17, 42.6 44.62 M45.95 43.49 C26.8 43.54, 10.63 39.96, -2.73 41.83 M44.57 45.2 C29.34 44.6, 9.01 44.4, -1.3 45.98 M0.91 42.38 C-0.32 29.85, 2.13 14.03, 3.87 -2.41 M1.14 45.44 C1.33 30.14, 0.34 19.18, -1.07 0.73" stroke="#B91A36" stroke-width="1" fill="none"></path></g><g transform="translate(248 244) rotate(0 22 22)"><text x="22" y="22.0" dominant-baseline="central" font-family="Cascadia, Segoe UI Emoji" font-size="13px" fill="#B91A36" text-anchor="middle" style="white-space: pre;" direction="ltr">1055</text></g><g stroke-linecap="round" transform="translate(196 296) rotate(0 22 22)"><path d="M0.4 2.1 L41.22 1.56 L40 43.85 L-3.41 42.69" stroke="none" stroke-width="0" fill="#F09CAB"></path><path d="M-3.28 3.28 C13.5 3.22, 25.44 -1.25, 41.59 2.47 M-1.81 -1.39 C11.12 -1.2, 22.24 2.17, 44.05 -1.11 M44.57 2.45 C48.42 14.92, 47.86 25.07, 46.95 40.02 M45.57 1.62 C43.77 7.9, 42.41 18.26, 45.85 43.44 M46.37 41.78 C33.09 41.96, 25.24 42.03, 3.97 46.6 M45.02 44.05 C32.88 43.12, 19.85 44.74, -1.79 42.31 M3.14 40.13 C2.74 27.94, -0.68 20.12, 0.6 3.94 M-1.11 45.43 C-1.28 30.49, 1.78 15.13, -1.55 0.63" stroke="#B91A36" stroke-width="1" fill="none"></path></g><g transform="translate(196 296) rotate(0 22 22)"><text x="22" y="22.0" dominant-baseline="central" font-family="Cascadia, Segoe UI Emoji" font-size="13px" fill="#B91A36" text-anchor="middle" style="white-space: pre;" direction="ltr">1650</text></g><g stroke-linecap="round" transform="translate(248 296) rotate(0 22 22)"><path d="M0 0 C0 0, 0 0, 0 0 M0 0 C0 0, 0 0, 0 0 M0.66 7.28 C0.24 2.61, 4.58 1.34, 3.51 0.7 M-0.82 6.65 C1.82 3.59, 3.03 2.59, 4.9 0.26 M-2.79 11.18 C4.58 9.4, 4.17 1.95, 11.54 3.16 M0.25 10.93 C2.59 9.02, 5.68 4.89, 9.31 0 M-0.43 15.41 C2.77 15.52, 11.15 6.86, 17.97 -2.19 M0.01 19.1 C5.86 12.85, 10.56 6.93, 17.55 -1.31 M4.08 26.82 C3.86 20.38, 13.28 10.38, 21.15 3.26 M0.65 22.36 C8.49 16.67, 12.35 9.72, 22.2 -0.97 M-1.3 28.1 C8.15 27.16, 11.46 21.83, 24.1 -0.84 M-1.51 32.36 C6.46 22.99, 16.58 13.55, 28.01 0.64 M1.32 36.27 C10.06 33.02, 17.49 19.27, 29.09 -1.88 M0.28 35.99 C12.12 23.97, 23.16 12.1, 33.38 -1.87 M1.61 42.08 C7.63 29.44, 19.86 24.69, 37.17 1.87 M-0.02 41.66 C10.22 29.89, 22.6 16.8, 37.46 1.48 M6.36 46.66 C16.4 25.78, 28.24 15.46, 46.09 -3.38 M4.06 44.9 C10.26 38.57, 18.43 26.5, 44.09 -1.68 M6.76 48.38 C15.91 34.07, 25.35 19.06, 48.38 -2.01 M8.89 46.12 C20.96 31.41, 34.46 14.16, 47.9 -0.23 M13.07 42.5 C17.08 34.42, 29.95 28.98, 44.5 7.09 M11.49 47.24 C21.59 33.84, 33.26 25.47, 45.64 7.47 M18.52 42.78 C23.03 33.38, 30.85 30.52, 45.45 17.08 M19.44 48.19 C30.62 33.96, 38.44 19.45, 46.71 13.13 M21.92 44.58 C27.06 42.84, 39.86 28.23, 44.87 20.94 M25.58 47 C27.49 40.24, 34.56 32.48, 47.45 21.14 M30.99 48.27 C31.6 40.21, 37.08 30.24, 47.57 23.75 M29.45 46.12 C33.38 38.62, 40.95 34.56, 47.64 25.87 M32.52 42.9 C41.87 41.99, 40.38 32.49, 44.38 30.5 M35.12 44.8 C38.97 42.35, 40.25 37.66, 47.16 33.99 M40.99 45.08 C42.85 42.9, 42.02 41.6, 45.85 37.72 M40.2 45.53 C41.79 43.62, 43.18 41.8, 45.57 38.36 M0.1 44.09 C0.1 44.09, 0.1 44.09, 0.1 44.09 M0.1 44.09 C0.1 44.09, 0.1 44.09, 0.1 44.09 M5.29 43.26 C4.54 43.56, 4.41 42.69, -1.06 37.15 M6.22 43.67 C4.11 42.72, 2.87 40.08, -0.36 38.09 M14.54 41.55 C10.2 40.71, 6.65 41.57, -2.22 35.49 M11 45.28 C8.6 42.49, 4.26 37.02, 0.99 34.46 M20.22 40.53 C12.64 39.57, 11.46 41.24, -3.94 24.83 M19.93 43.81 C15.06 38.5, 8.11 34.52, -1.63 28.7 M22.61 44.03 C17.35 40.84, 15.13 29.9, 1.85 19.96 M23.1 45.14 C19.89 37.87, 13.84 32.89, 1.36 22.25 M27.9 45.09 C18.56 33.67, 7.09 20.59, 1.26 14.35 M29.8 42.36 C19.36 35.01, 12.38 25.5, 0.57 18.19 M35.86 45.11 C25.63 32.65, 22.61 25.65, -1.21 14.38 M38.1 43.84 C25.76 36.27, 19.66 26.53, -0.95 12.98 M39.09 43.83 C26 30.37, 10.79 17.81, 0.12 8.54 M43.26 43.08 C24.7 31.69, 10.37 14.58, -0.03 6.47 M43.35 45.57 C25.12 27.59, 8.28 12.61, -0.98 2.84 M46.14 41.86 C30.92 27.14, 11.56 9.38, -0.42 0.16 M45.24 36.37 C32.77 24.46, 22.21 19.95, 1.68 -2.56 M44.94 38.39 C30.02 23.57, 16.35 11.05, 3.63 -1.18 M43.3 28.16 C35.07 26.91, 26.24 16.96, 6.89 0.08 M46.36 32.32 C39.91 23.96, 29.86 18.57, 9.54 -1.17 M43.67 25.41 C33.46 16.29, 23.78 12.26, 11.82 1.56 M45.28 26.43 C35.44 15.69, 22.99 3.06, 12.35 -3.39 M46.37 20.64 C41.85 14.79, 26.67 3.69, 19.01 -2.39 M47.19 18.96 C37.01 10.81, 26.17 2.41, 21.65 -2.61 M44.03 16.94 C40.06 13.74, 32.93 6.52, 23.15 -6.34 M44.9 17.19 C39.86 10.09, 36.11 6.83, 24.55 -2.99 M44.6 11.93 C44.32 4.99, 37.6 6.29, 33.63 -4.22 M45.3 10.41 C42.32 7.15, 38.18 5.63, 30.54 -0.72 M45.76 5.15 C43.99 3.78, 41.28 1.66, 40.67 -3.8 M45.96 4.31 C44.59 2.85, 42.83 2.37, 38.32 -1.65" stroke="#FFE0B2" stroke-width="0.5" fill="none"></path><path d="M3.58 2.99 C10.94 -2.42, 28.96 1.96, 43.24 -2.39 M1 0.73 C14.39 1.55, 26.45 0.36, 43.41 0.91 M40.86 -3.54 C41.35 11.84, 46.31 26.1, 42.08 41.06 M43.95 -0.77 C42.82 12.26, 45.64 24.96, 45.11 42.26 M46.8 40.07 C30.58 40.38, 14.26 44.1, 2.66 43.37 M45.48 42.9 C27.61 45.63, 9.1 45.09, 1.73 42.65 M-2.62 45.87 C4.03 34.04, 2.76 26.2, -2.67 2.29 M0.63 45.41 C0.11 35.63, -0.79 24.68, 1.98 0.54" stroke="#E65100" stroke-width="1" fill="none"></path></g><g transform="translate(248 296) rotate(0 22 22)"><text x="22" y="22.0" dominant-baseline="central" font-family="Cascadia, Segoe UI Emoji" font-size="13px" fill="#E65100" text-anchor="middle" style="white-space: pre;" direction="ltr">2877</text></g><g stroke-linecap="round"><g transform="translate(244 206) rotate(0 0 -10)"><path d="M-0.44 1.71 C-0.11 -1.09, 2.05 -13.88, 1.89 -17.7 M-4.12 0.17 C-3.99 -3.3, 0.65 -18.31, 0.68 -21.46" stroke="#4B7BE5" stroke-width="1.5" fill="none"></path></g></g><g transform="translate(250 186) rotate(0 25 10)"><text x="0" y="10.0" dominant-baseline="central" font-family="Cascadia, Segoe UI Emoji" font-size="9px" fill="#4B7BE5" text-anchor="start" style="white-space: pre;" direction="ltr">repl.</text></g><g stroke-linecap="round" transform="translate(182 38) rotate(0 62 73)"><path d="M2 -3.78 L122.32 -2.98 L126.09 143.47 L2.8 149.47" stroke="none" stroke-width="0" fill="#E8E9EB"></path><path d="M1.3 2.41 C37.64 -2.29, 75.63 -4.2, 126.55 3.88 M-1.38 0.96 C35.64 -4.26, 72.27 -2.57, 122.12 0.96 M121.45 0.47 C119.86 39.55, 119.9 79.91, 120.33 145.15 M124.71 -1.56 C119.82 37.24, 123.01 70.88, 123.62 145.89 M127.64 146.66 C95.95 146.7, 69.09 141.73, 0.04 146.91 M122.38 146.6 C74.57 146.63, 26.57 145.74, 0.75 145.32 M1.85 143.37 C0.84 98, 3.85 47.92, -1.2 -1.01 M0.12 147.39 C1.78 98.12, 0.98 54.17, 1.03 0.34" stroke="#737A82" stroke-width="1" fill="none"></path></g><g transform="translate(196 52) rotate(0 48 10)"><text x="48" y="10.0" dominant-baseline="central" font-family="Cascadia, Segoe UI Emoji" font-size="13px" fill="#737A82" text-anchor="middle" style="white-space: pre;" direction="ltr">Follower</text></g><g stroke-linecap="round" transform="translate(196 74) rotate(0 22 22)"><path d="M-2.81 -0.41 L42.68 3.51 L40.12 43.34 L2.2 43.73" stroke="none" stroke-width="0" fill="#CFD3D6"></path><path d="M0.16 2.13 C11.27 1.11, 23.52 0.05, 40.2 -0.98 M1.43 -0.92 C15.41 0.04, 33.47 1.18, 45.48 -1.02 M45.75 2.47 C42.36 17.81, 39.93 27.61, 43.45 44.2 M43.09 0.04 C44.43 12.53, 43.82 27.44, 42.87 42.71 M40.06 42.95 C31.83 43.63, 14.9 42.31, -1.27 41.69 M42.83 43.45 C29.42 43.41, 16.04 44.35, 0.26 43.65 M-3.92 47.12 C1.66 35.52, -1.19 18.85, 3.54 -2.66 M1.86 45.37 C2.03 28.67, 1.28 12.53, 0.56 0.25" stroke="#9E9E9E" stroke-width="1" fill="none"></path></g><g transform="translate(196 74) rotate(0 22 22)"><text x="22" y="22.0" dominant-baseline="central" font-family="Cascadia, Segoe UI Emoji" font-size="13px" fill="#9E9E9E" text-anchor="middle" style="white-space: pre;" direction="ltr">742</text></g><g stroke-linecap="round" transform="translate(248 74) rotate(0 22 22)"><path d="M0.39 2.96 L43.04 2 L42.15 45.22 L1.61 47.99" stroke="none" stroke-width="0" fill="#CFD3D6"></path><path d="M-0.99 1.84 C16.71 1.7, 27.04 1.5, 41.85 2.16 M0.24 1.2 C9.89 -1.21, 24.07 -0.63, 44.84 1 M42.04 -3.52 C43.29 5.93, 46.39 19.04, 46.57 45.24 M45.48 1.65 C45.72 16.89, 45.29 34.13, 42.13 45.53 M40.49 41.24 C29.32 42.05, 11.92 44.38, -2.58 46.46 M43.29 42.3 C28.16 45.92, 9.29 44.69, -0.23 43.99 M-1.68 44.87 C-3.29 33.62, 4 24.93, 0.27 3.7 M-0.39 45.36 C-0.58 33.82, -1.28 26.08, 0.08 0.15" stroke="#9E9E9E" stroke-width="1" fill="none"></path></g><g transform="translate(248 74) rotate(0 22 22)"><text x="22" y="22.0" dominant-baseline="central" font-family="Cascadia, Segoe UI Emoji" font-size="13px" fill="#9E9E9E" text-anchor="middle" style="white-space: pre;" direction="ltr">1055</text></g><g stroke-linecap="round" transform="translate(196 126) rotate(0 22 22)"><path d="M3.59 -1.66 L43.41 0.49 L44.18 47.09 L1.01 44.25" stroke="none" stroke-width="0" fill="#CFD3D6"></path><path d="M-2.13 1.55 C14.15 4.06, 22.56 4.7, 43.5 -2.7 M-0.95 -0.69 C17.16 1.54, 32.28 1.56, 44.19 -0.97 M46.33 -1.52 C44.22 10.85, 44.84 20.08, 41.7 46.29 M43.86 -0.74 C43 12.44, 42.76 23.23, 45.38 44.35 M40.91 47.53 C35.6 40.47, 26.53 46.45, -3.88 43.23 M43.74 45.15 C31.7 42.68, 16.13 43.27, -0.72 44.32 M0.55 42.61 C-2 30.91, -0.56 13.41, -2.99 2.05 M1.35 45.34 C0.81 30.16, 0.16 18.03, -0.39 0.06" stroke="#9E9E9E" stroke-width="1" fill="none"></path></g><g transform="translate(196 126) rotate(0 22 22)"><text x="22" y="22.0" dominant-baseline="central" font-family="Cascadia, Segoe UI Emoji" font-size="13px" fill="#9E9E9E" text-anchor="middle" style="white-space: pre;" direction="ltr">1650</text></g><g stroke-opacity="0.6" fill-opacity="0.6" stroke-linecap="round" transform="translate(248 126) rotate(0 22 22)"><path d="M0 0 C0 0, 0 0, 0 0 M0 0 C0 0, 0 0, 0 0 M-0.45 7.55 C0.18 3.9, 3.32 2.4, 4.15 0.59 M0.16 6.58 C1.28 4.52, 3.78 1.32, 4.23 0.92 M2.83 13.36 C5.85 5.62, 6.4 2.88, 7.6 3 M-1.29 12.58 C4.05 7.71, 6.29 3.88, 10.47 -0.48 M2.2 18.43 C0.79 16.07, 10.05 9.87, 12.47 2.65 M0.85 19.96 C2.26 13.75, 5.4 11.5, 13.78 1.09 M1.04 27.93 C2.17 19.23, 10.13 11.38, 21.27 -0.18 M1.44 23.9 C5.38 16.05, 12.49 9.8, 21.52 -0.36 M-0.75 32.58 C8.11 21.83, 22.92 12.52, 24.9 -3.22 M1.97 31.56 C7.3 22.57, 13.83 14.97, 27.37 1.93 M-2.22 33.78 C4.18 28.73, 13.93 22.69, 34.06 -1.35 M-1.31 38.22 C12.33 23.21, 23.29 7.28, 30.78 -1.36 M-2.97 40.57 C12.34 32.94, 19.79 23.69, 36.84 2.64 M-0.53 41.49 C14.08 28.08, 26.96 11.43, 36.91 0.13 M1.05 43.28 C7.56 37.13, 20.56 25.64, 43.63 2.29 M1.7 46.37 C17.56 30.34, 28.7 16.22, 41.09 -1.84 M7.93 49.37 C20.24 29.69, 36.96 18.4, 44.17 1.48 M6.09 46.57 C21.54 28.94, 34.38 13.18, 47.36 3.33 M11.4 44.14 C22.43 36.84, 24.68 30.16, 43.76 11.49 M11.95 44.58 C26.23 32.84, 37.69 19.23, 44.36 7.52 M19.76 45.24 C20.27 35.8, 27.72 35.21, 48.79 10.55 M19.64 47.73 C23.58 39.58, 34.25 30, 48.32 15 M21.47 42.85 C29.7 32.81, 39.18 25.87, 45.93 16.62 M25.69 47.71 C32.03 35.38, 39.38 28.71, 45.87 20.51 M27.53 48.08 C35.45 40.61, 40.73 36.87, 45.58 28.65 M28.8 46.43 C31.07 40.89, 35.03 38.9, 47.03 26.04 M32.56 45.33 C40.03 38.71, 42.95 36.78, 47.41 31.35 M36.05 44.01 C37.96 41.9, 38.19 38.59, 46.44 31.06 M39.75 47.32 C39.49 42.51, 42.22 43.59, 44.33 36.97 M38.57 46.89 C42.67 44.06, 44.81 39.2, 46.32 39.26 M0.1 44.09 C0.1 44.09, 0.1 44.09, 0.1 44.09 M0.1 44.09 C0.1 44.09, 0.1 44.09, 0.1 44.09 M5.32 44.24 C5.32 42.13, 0.9 41.44, 0.09 39.33 M5.32 43.47 C4.34 42.95, 3.37 41.58, -0.39 39.24 M12.17 44.95 C10.61 40.12, 6.98 37.9, -0.01 32.09 M11.73 44.7 C6.87 39.68, 3.05 38.52, 1.47 32.31 M21.9 42.69 C11.18 41.73, 7.36 30.78, 0.01 24.26 M18.84 43.89 C15.05 39.8, 9.95 35.18, 0.25 28.87 M27.02 46.28 C19.74 35.46, 6 30.03, 2.05 24.63 M24.15 45.08 C15.21 36.78, 5.2 27.39, 1.04 24.43 M29.15 47.61 C19.19 34.9, 18.9 28.59, -0.89 15 M29.92 45.07 C20.85 36.27, 5.61 23.56, -1.58 17.52 M36.63 46.95 C25.71 33.81, 5.96 23.81, -2.35 8.75 M34.96 45.36 C28.59 36.41, 17.01 27.56, -0.23 13.44 M46.28 44.84 C32.14 30.98, 19.03 25.89, -0.12 4.34 M43.73 45.42 C26.64 28.51, 8.5 16.83, 1.53 9.14 M46.64 41.28 C30.79 25.08, 12.5 16.89, -2.3 -2.37 M47.22 41.24 C31.57 31.68, 20 19.82, -1.35 3.05 M42.69 37.93 C33.47 26.65, 26.87 21, 4.04 -0.47 M47.24 37.08 C29.43 21.62, 13.78 9.7, 1.58 -3.88 M49.96 27.21 C41.16 22.62, 32.61 15.69, 7.99 -5.55 M44.03 29.91 C33.89 21.35, 21.08 6.27, 6.88 -0.25 M43.13 24.02 C35.58 17.39, 24.02 5.7, 11.65 -3.23 M44.49 26.65 C34.28 17.23, 26.63 6.38, 15.63 -0.35 M45.42 22.2 C37.88 11.22, 27.35 7.65, 20.05 1.67 M45.05 19.95 C40.49 14.05, 31.72 6.68, 19 -3.84 M46.19 18.06 C44.52 11.63, 35.44 5.93, 26.99 -1.01 M44.96 17.33 C38.93 8.39, 30.69 2.63, 25.56 -2.5 M46.53 11.42 C39.55 5.34, 39.72 0.01, 29.07 -3.04 M45.41 9.68 C41.24 7.27, 36.55 1.78, 30.73 -3.05 M47.74 5.42 C45.29 3.88, 42.48 0.62, 38.46 -1.21 M46.42 4.53 C43.58 3.92, 42.92 0.47, 39.25 -2.15" stroke="#FFE0B2" stroke-width="0.5" fill="none"></path><path d="M-3.27 1.26 C11.6 -3.35, 26.08 -1.85, 45.15 0.44 M1.86 1.43 C11.63 0.29, 18.89 -0.25, 43.55 1.05 M42.63 0.48 C45.14 15.77, 43.3 29.11, 44.82 47.33 M42.24 0.86 C46.04 16.8, 45.99 29.92, 44.64 43.17 M41.33 45.83 C33.09 46.89, 15.55 40.52, 2.81 40 M44.19 44 C35.23 45.19, 26.98 43.62, -1.21 44.66 M2.79 40.36 C1.06 29, -3.37 19.5, 1.74 0.4 M-0.91 45.33 C-0.04 30.51, -0.65 13.98, -0.86 -0.04" stroke="#E65100" stroke-width="1" fill="none"></path></g><g transform="translate(248 126) rotate(0 22 22)"><text x="22" y="22.0" dominant-baseline="central" font-family="Cascadia, Segoe UI Emoji" font-size="13px" fill="#E65100" text-anchor="middle" style="white-space: pre;" direction="ltr">2877</text></g><g transform="translate(354 10) rotate(0 62 14)"><text x="62" y="14.0" dominant-baseline="central" font-family="Cascadia, Segoe UI Emoji" font-size="16px" fill="#2E7D32" text-anchor="middle" style="white-space: pre;" direction="ltr">RS 3</text></g><g stroke-linecap="round" transform="translate(354 38) rotate(0 62 73)"><path d="M3.58 2.77 L120.32 -3.29 L121.25 145.77 L3.52 144.9" stroke="none" stroke-width="0" fill="#C8E6C9"></path><path d="M-0.98 -3.17 C39.58 4.72, 75.01 3.5, 123.63 -2.85 M-1.92 0.6 C43.63 0.79, 89.36 -2.59, 124.59 -1.92 M125.07 3.49 C119.75 35.5, 118.21 75.35, 125.51 146.9 M125.81 -0.73 C125.17 50.68, 125.4 102.66, 125.52 145.39 M125.97 145.26 C75.33 145.63, 31.1 140.74, 0.85 145.16 M124.87 144.28 C90.82 147.52, 57.81 146.69, -1.94 147.16 M2.14 146.99 C0.41 107.92, -0.8 74.17, 0.84 1.92 M1.71 147.31 C-4.84 100.93, -3.37 53.72, 0.42 -0.18" stroke="#2E7D32" stroke-width="1" fill="none"></path></g><g transform="translate(368 52) rotate(0 48 10)"><text x="48" y="10.0" dominant-baseline="central" font-family="Cascadia, Segoe UI Emoji" font-size="13px" fill="#2E7D32" text-anchor="middle" style="white-space: pre;" direction="ltr">★ Leader</text></g><g stroke-linecap="round" transform="translate(368 126) rotate(0 22 22)"><path d="M-2.12 -3.46 C13.2 3.89, 22.89 3.52, 45.28 0.29 M45.78 -2.56 C40.23 11.87, 43.9 22.96, 43.88 44.21 M41.36 41.5 C29.33 45.78, 19.4 42.67, -3.37 45.95 M0.38 45.75 C-2.18 35.41, -1.34 25.36, 1.55 -3.58" stroke="#43A047" stroke-width="1.5" fill="none" stroke-dasharray="8 9"></path></g><g transform="translate(368 126) rotate(0 22 22)"><text x="22" y="22.0" dominant-baseline="central" font-family="Cascadia, Segoe UI Emoji" font-size="13px" fill="#43A047" text-anchor="middle" style="white-space: pre;" direction="ltr">2044</text></g><g stroke-linecap="round" transform="translate(420 126) rotate(0 22 22)"><path d="M-3.27 -3.75 C10.65 -3.52, 26.41 -3.03, 46.93 3.42 M43.4 1.68 C46.45 12.65, 44.48 26.38, 42.6 40.26 M45.65 43.5 C27.04 46.67, 11.56 44.59, -0.24 46.99 M-2.85 40.96 C0.58 34.41, 1.8 19.32, 0.06 2.06" stroke="#43A047" stroke-width="1.5" fill="none" stroke-dasharray="8 9"></path></g><g transform="translate(420 126) rotate(0 22 22)"><text x="22" y="22.0" dominant-baseline="central" font-family="Cascadia, Segoe UI Emoji" font-size="13px" fill="#43A047" text-anchor="middle" style="white-space: pre;" direction="ltr">2877</text></g><g stroke-linecap="round"><g transform="translate(416 186) rotate(0 0 10)"><path d="M-1.28 2.51 C-0.81 6.13, 2.74 18.74, 2.77 22.09 M3.22 1.41 C3.58 4.23, 3.16 15.37, 2.04 18.21" stroke="#4B7BE5" stroke-width="1.5" fill="none"></path></g></g><g transform="translate(422 186) rotate(0 25 10)"><text x="0" y="10.0" dominant-baseline="central" font-family="Cascadia, Segoe UI Emoji" font-size="9px" fill="#4B7BE5" text-anchor="start" style="white-space: pre;" direction="ltr">repl.</text></g><g stroke-linecap="round" transform="translate(354 208) rotate(0 62 73)"><path d="M0.37 0.26 L121.78 -1.34 L121.37 145.26 L1.14 145.93" stroke="none" stroke-width="0" fill="#E8F5E9"></path><path d="M2.45 3.67 C37.36 -1.14, 73.1 1.05, 122.23 1.7 M1.32 1.07 C38.45 1.54, 77.65 -0.07, 122.01 -1.83 M126.24 3.51 C124.71 46.55, 121.3 94.22, 122.01 143.08 M123.34 1.69 C122.1 35.73, 123.08 72.67, 122.54 144.67 M127.66 146.43 C94.81 147.02, 70.24 140.74, 3.61 148.25 M122.68 147.68 C90.2 147.54, 55.66 146.03, 0.11 144.5 M3.08 145.98 C1.89 116.63, 1.24 83.16, 3.78 3.33 M0.68 147.25 C-1.2 97.05, -3.54 46.99, -1.47 -0.56" stroke="#66BB6A" stroke-width="1" fill="none"></path></g><g transform="translate(368 222) rotate(0 48 10)"><text x="48" y="10.0" dominant-baseline="central" font-family="Cascadia, Segoe UI Emoji" font-size="13px" fill="#66BB6A" text-anchor="middle" style="white-space: pre;" direction="ltr">Follower</text></g><g stroke-linecap="round" transform="translate(368 296) rotate(0 22 22)"><path d="M1.31 3.38 C10.97 1.78, 28.97 -3.18, 43.89 -3.16 M44.26 -1.62 C44.66 14.18, 41.73 35.04, 46.74 44.39 M42.53 41.51 C28.98 44.84, 5.65 45.86, 1.13 42.13 M3.44 42.6 C-3.61 32.21, -1.26 18.8, 3.59 2.97" stroke="#43A047" stroke-width="1.5" fill="none" stroke-dasharray="8 9"></path></g><g transform="translate(368 296) rotate(0 22 22)"><text x="22" y="22.0" dominant-baseline="central" font-family="Cascadia, Segoe UI Emoji" font-size="13px" fill="#43A047" text-anchor="middle" style="white-space: pre;" direction="ltr">2044</text></g><g stroke-linecap="round" transform="translate(420 296) rotate(0 22 22)"><path d="M0.17 3.09 C16.42 2.37, 24.49 -1.73, 45.54 -0.02 M41.88 2.61 C42.88 14.16, 42.31 20.86, 45.45 40.44 M46.83 43.52 C35.49 45.73, 23.41 39.78, -3.74 43.17 M0.2 45.81 C0.92 23.21, 3.64 12.77, 2.1 0.6" stroke="#43A047" stroke-width="1.5" fill="none" stroke-dasharray="8 9"></path></g><g transform="translate(420 296) rotate(0 22 22)"><text x="22" y="22.0" dominant-baseline="central" font-family="Cascadia, Segoe UI Emoji" font-size="13px" fill="#43A047" text-anchor="middle" style="white-space: pre;" direction="ltr">2877</text></g><g stroke-linecap="round"><g transform="translate(68 148) rotate(0 150 0)"><path d="M0 0 C50 0, 250 0, 300 0" stroke="#E65100" stroke-width="2" fill="none" stroke-dasharray="8 9.5"></path></g><g transform="translate(68 148) rotate(0 150 0)"><path d="M271.81 10.26 C280.21 7.2, 288.61 4.15, 300 0" stroke="#E65100" stroke-width="2" fill="none"></path></g><g transform="translate(68 148) rotate(0 150 0)"><path d="M271.81 -10.26 C280.21 -7.2, 288.61 -4.15, 300 0" stroke="#E65100" stroke-width="2" fill="none"></path></g></g><g stroke-linecap="round"><g transform="translate(292 318) rotate(0 64 -85)"><path d="M0 0 C21.33 -28.33, 106.67 -141.67, 128 -170" stroke="#E65100" stroke-width="2" fill="none" stroke-dasharray="8 9.5"></path></g><g transform="translate(292 318) rotate(0 64 -85)"><path d="M119.24 -141.31 C121.85 -149.86, 124.46 -158.4, 128 -170" stroke="#E65100" stroke-width="2" fill="none"></path></g><g transform="translate(292 318) rotate(0 64 -85)"><path d="M102.85 -153.65 C110.34 -158.52, 117.83 -163.39, 128 -170" stroke="#E65100" stroke-width="2" fill="none"></path></g></g><g transform="translate(10 364) rotate(0 234 8)"><text x="234" y="8.0" dominant-baseline="central" font-family="Cascadia, Segoe UI Emoji" font-size="13px" fill="#2B1321" text-anchor="middle" style="white-space: pre;" direction="ltr">rebalancing: leader → leader</text></g><g transform="translate(10 382) rotate(0 234 7)"><text x="234" y="7.0" dominant-baseline="central" font-family="Cascadia, Segoe UI Emoji" font-size="10px" fill="#4B7BE5" text-anchor="middle" style="white-space: pre;" direction="ltr">follower receives buckets via replication</text></g><g transform="translate(10 400) rotate(0 234 10)"><text x="0" y="10.0" dominant-baseline="central" font-family="Cascadia, Segoe UI Emoji" font-size="14px" fill="#2B1321" text-anchor="start" style="white-space: pre;" direction="ltr">• 3 000 buckets by default — fixed-size units of rebalancing</text></g><g transform="translate(10 422) rotate(0 234 10)"><text x="0" y="10.0" dominant-baseline="central" font-family="Cascadia, Segoe UI Emoji" font-size="14px" fill="#2B1321" text-anchor="start" style="white-space: pre;" direction="ltr">• rebalancing begins when new RS is fully online (RF satisfied)</text></g><g transform="translate(10 444) rotate(0 234 10)"><text x="0" y="10.0" dominant-baseline="central" font-family="Cascadia, Segoe UI Emoji" font-size="14px" fill="#2B1321" text-anchor="start" style="white-space: pre;" direction="ltr">• drivers cache bucket→shard map → queries routed directly</text></g></svg>