<svg version="1.1" xmlns="http://www.w3.org/2000/svg" viewBox="0 0 780 312" width="780" height="312">
  <!-- svg-source:excalidraw -->
  
  <defs>
    <style>
      @font-face {
        font-family: "Virgil";
        src: url("https://excalidraw.com/Virgil.woff2");
      }
      @font-face {
        font-family: "Cascadia";
        src: url("https://excalidraw.com/Cascadia.woff2");
      }
    </style>
  </defs>
  <rect x="0" y="0" width="780" height="312" fill="transparent"></rect><g stroke-linecap="round" transform="translate(10 10) rotate(0 110 65)"><path d="M0.44 -0.5 L219.76 0.23 L217.56 133.76 L-2.48 128.79" stroke="none" stroke-width="0" fill="#F8CDD6"></path><path d="M-1.86 -0.33 C64.35 -0.38, 132.97 -1.48, 217.25 2.94 M0.02 -0.99 C78.36 1.28, 155.95 1.04, 221.47 0.48 M220.17 -3.61 C221.1 26.39, 217.55 52.17, 216.09 126.34 M221.85 1.53 C220.68 42.98, 220.49 82.71, 221.03 131.17 M216.57 129.47 C150.26 129.39, 84.33 130.51, -0.35 132.62 M218.47 131.13 C148.14 127.62, 77.58 129.53, 1.33 131.12 M1.62 127.9 C3.87 97.87, 0.35 61.55, 1.58 -3.33 M0.73 131.64 C2.08 88.19, 0.41 43.65, 1.56 -1.93" stroke="#E23956" stroke-width="2" fill="none"></path></g><g transform="translate(10 16) rotate(0 110 11)"><text x="110" y="17.3" font-family="Cascadia, Segoe UI Emoji" font-size="18px" fill="#E23956" text-anchor="middle" style="white-space: pre;" direction="ltr">RS 1</text></g><g stroke-linecap="round" transform="translate(61 44) rotate(0 17 17)"><path d="M3.64 2.88 L34.12 -1.28 L33.59 31.64 L-3.08 37.05" stroke="none" stroke-width="0" fill="#F09CAB"></path><path d="M-3.29 -0.67 C6.32 0.55, 18.2 0.13, 32.48 -1.47 M-1.16 0.98 C7.67 -0.25, 16.1 -1.09, 35.05 -1.42 M30.46 -1.61 C35.09 11.29, 37.07 21.16, 33.21 31.38 M34.23 -0.86 C35.03 11.76, 35.02 26.25, 34.28 33.99 M30.46 31.68 C17.94 38.03, 8.33 34.97, -1.72 33.79 M32.69 34.15 C25.26 35.2, 17.8 35.23, 1.05 35.63 M3.85 37.65 C-3.58 26.07, 3.04 15.85, -1.68 3.02 M-1.52 35.63 C1.93 20.24, 0.3 7.02, 1.09 1.97" stroke="#E23956" stroke-width="1" fill="none"></path></g><g transform="translate(61 44) rotate(0 17 17)"><text x="17" y="21.9" font-family="Cascadia, Segoe UI Emoji" font-size="14px" fill="#E23956" text-anchor="middle" style="white-space: pre;" direction="ltr">1</text></g><g stroke-linecap="round" transform="translate(103 44) rotate(0 17 17)"><path d="M-1.16 -1.75 L34.49 -2.79 L35.62 33.51 L-3.67 33.31" stroke="none" stroke-width="0" fill="#F09CAB"></path><path d="M3.57 -0.96 C11.77 2.66, 21.72 3.1, 34.13 1.66 M1.65 -0.91 C10.09 2.44, 22.6 1.05, 34.41 0.6 M34.75 0.39 C35.99 15.51, 35.5 20.8, 36.33 32.43 M32.61 0.75 C32.46 8.58, 32.65 17.87, 33.54 32.81 M30.88 37.98 C22.85 36.45, 20.19 37.05, -3.03 30.56 M33.14 33 C21.03 33.62, 13.11 35.48, 0.56 35.96 M-1.91 35.4 C-0.75 24.83, 0.01 7.27, 3.05 1.37 M0.22 35.61 C-0.59 27.94, 1.83 17.67, 0.62 1.88" stroke="#E23956" stroke-width="1" fill="none"></path></g><g transform="translate(103 44) rotate(0 17 17)"><text x="17" y="21.9" font-family="Cascadia, Segoe UI Emoji" font-size="14px" fill="#E23956" text-anchor="middle" style="white-space: pre;" direction="ltr">2</text></g><g stroke-linecap="round" transform="translate(145 44) rotate(0 17 17)"><path d="M2.03 1.62 L34.85 3.7 L37.65 35.38 L3.73 37.57" stroke="none" stroke-width="0" fill="#F09CAB"></path><path d="M2.43 -1.25 C9.21 3.42, 17.24 -3.29, 35.78 -3.2 M0.46 1.21 C5.71 1.14, 15.5 -0.81, 33.77 -1.38 M31.05 2.4 C36.88 4.93, 33.93 14.83, 31.46 33.47 M34.99 -1.65 C35.25 12.2, 35.63 23.1, 32.79 35.63 M31.31 36.27 C20.97 34.88, 10.46 31.13, 3.67 35.34 M33.59 35.85 C27.61 36.04, 18.03 35.73, 0.07 32.29 M0.32 33.15 C0.72 22.4, 3.62 12.3, -0.21 -0.28 M1.96 35.6 C0.89 24.84, -0.64 14.72, 0.14 1.78" stroke="#E23956" stroke-width="1" fill="none"></path></g><g transform="translate(145 44) rotate(0 17 17)"><text x="17" y="21.9" font-family="Cascadia, Segoe UI Emoji" font-size="14px" fill="#E23956" text-anchor="middle" style="white-space: pre;" direction="ltr">3</text></g><g stroke-linecap="round" transform="translate(61 86) rotate(0 17 17)"><path d="M-2.77 -3.01 L35.21 2.19 L31.68 37.25 L3.14 33.83" stroke="none" stroke-width="0" fill="#F09CAB"></path><path d="M1.28 -1.54 C6.65 -2.47, 20.76 -0.32, 37.43 -0.06 M-0.73 -0.67 C12.13 -1.53, 22 -0.03, 33.12 0.64 M35.34 -3.6 C36.42 9.16, 31 22.46, 34.58 34.52 M33.37 -0.04 C32.69 9.02, 33.25 14.72, 32.05 34.44 M31.73 34.56 C19.08 33.31, 8.73 33.21, 2.36 32.11 M34.05 34.7 C23.38 33.1, 9.35 34.62, -0.41 32.63 M2.56 30.89 C3.55 27.97, 0.6 17.33, -3.48 -1.93 M-0.29 35.58 C-1.63 21.73, 0.89 11.77, -0.33 1.69" stroke="#E23956" stroke-width="1" fill="none"></path></g><g transform="translate(61 86) rotate(0 17 17)"><text x="17" y="21.9" font-family="Cascadia, Segoe UI Emoji" font-size="14px" fill="#E23956" text-anchor="middle" style="white-space: pre;" direction="ltr">4</text></g><g stroke-linecap="round" transform="translate(103 86) rotate(0 17 17)"><path d="M0.43 0.37 L35.58 0.67 L33.71 31.13 L2.54 30.09" stroke="none" stroke-width="0" fill="#F09CAB"></path><path d="M0.14 -1.83 C12.09 -1.71, 16.28 1.28, 31.08 3.08 M-1.92 1.44 C14.55 1.17, 24.5 -1.9, 32.48 -1.33 M31.63 -1.59 C37.31 13.38, 37.43 22.1, 37.71 35.56 M35.75 1.56 C35.48 8.64, 36.23 19.94, 35.3 33.26 M32.15 32.85 C23.99 31.73, 20.6 35.29, 1.05 36.88 M34.5 33.55 C25.95 35.53, 18.27 34.87, -0.9 32.96 M-3.21 36.64 C-2.97 25.53, -3.79 22.36, 1.26 -3.58 M1.45 35.57 C1.21 18.63, -0.22 4.83, -0.81 1.59" stroke="#E23956" stroke-width="1" fill="none"></path></g><g transform="translate(103 86) rotate(0 17 17)"><text x="17" y="21.9" font-family="Cascadia, Segoe UI Emoji" font-size="14px" fill="#E23956" text-anchor="middle" style="white-space: pre;" direction="ltr">5</text></g><g stroke-linecap="round" transform="translate(145 86) rotate(0 17 17)"><path d="M3.63 3.74 L35.94 -0.84 L35.74 33 L1.95 34.35" stroke="none" stroke-width="0" fill="#F09CAB"></path><path d="M-1 -2.12 C9.54 -0.96, 19.81 2.89, 32.73 -1.78 M0.89 -0.44 C10.17 -0.14, 17.4 0.24, 35.84 0.69 M35.93 0.41 C30.21 10.8, 35.85 16.13, 32.83 36.61 M34.14 -0.83 C32.91 12.26, 33.85 25.16, 34.56 32.08 M32.57 31.15 C22.1 30.16, 18.87 37.37, -0.26 33.65 M34.95 32.4 C21.73 33.95, 9.59 35.12, -1.39 33.3 M-0.97 34.39 C-1.5 24.3, -0.18 5.78, -2.01 2.78 M-0.8 35.56 C-1.31 26.33, 1.31 15.48, -1.28 1.49" stroke="#E23956" stroke-width="1" fill="none"></path></g><g transform="translate(145 86) rotate(0 17 17)"><text x="17" y="21.9" font-family="Cascadia, Segoe UI Emoji" font-size="14px" fill="#E23956" text-anchor="middle" style="white-space: pre;" direction="ltr">6</text></g><g stroke-linecap="round" transform="translate(280 10) rotate(0 110 65)"><path d="M-1.18 -0.89 L222.31 -2.35 L223.77 130.87 L1.35 126.61" stroke="none" stroke-width="0" fill="#F8CDD6"></path><path d="M-1.86 -2.09 C62.73 1.85, 133.58 -1.01, 220.33 1.18 M-0.26 1.45 C78.42 -1.17, 155.73 -1.32, 221.04 -1.12 M218.22 2.42 C216.23 34.99, 219.4 79.71, 221.96 133.65 M218.52 0.77 C219.15 31.77, 220.28 62.16, 219.81 130.9 M219.13 132.98 C143.19 132.74, 68.74 128.28, -1.36 126.9 M221.22 131.08 C163.72 134.62, 110.83 133.75, -1.63 129.68 M1.26 128.14 C1.64 88.29, -2.89 47.66, 2.73 1.13 M0.94 131.54 C-0.55 89.46, -1.88 49.01, -1.75 1.4" stroke="#E23956" stroke-width="2" fill="none"></path></g><g transform="translate(280 16) rotate(0 110 11)"><text x="110" y="17.3" font-family="Cascadia, Segoe UI Emoji" font-size="18px" fill="#E23956" text-anchor="middle" style="white-space: pre;" direction="ltr">RS 2</text></g><g stroke-linecap="round" transform="translate(331 44) rotate(0 17 17)"><path d="M2.02 2.49 L36.67 -3.86 L31.8 36.74 L0.75 34.87" stroke="none" stroke-width="0" fill="#F09CAB"></path><path d="M-3.28 -2.7 C12.42 1.91, 18.85 -0.53, 36.03 -3.5 M-1.49 -0.21 C8.21 1.25, 16.8 0.52, 34.55 0.73 M36.52 -3.58 C32 11.25, 32.71 23.4, 31.08 30.7 M34.9 -1.62 C33.14 8.71, 34.45 22.01, 33.07 33.71 M33.42 35.73 C25.13 35.01, 21 33.52, -2.88 35.2 M35.86 34.1 C20.07 33.43, 9.83 34.26, 1.63 33.97 M3.5 37.89 C2.8 27.43, 0.41 15.84, -0.54 -0.52 M-1.32 35.53 C-2.35 20.12, 0.37 9.58, 1.77 1.3" stroke="#E23956" stroke-width="1" fill="none"></path></g><g transform="translate(331 44) rotate(0 17 17)"><text x="17" y="21.9" font-family="Cascadia, Segoe UI Emoji" font-size="14px" fill="#E23956" text-anchor="middle" style="white-space: pre;" direction="ltr">7</text></g><g stroke-linecap="round" transform="translate(373 44) rotate(0 17 17)"><path d="M-2.78 -2.14 L37.04 2.63 L33.82 30.62 L0.16 31.13" stroke="none" stroke-width="0" fill="#F09CAB"></path><path d="M3.57 -2.99 C9.87 4.02, 22.37 2.43, 37.69 -0.36 M1.32 1.91 C10.63 -0.05, 23.29 -1.34, 33.91 -1.24 M32.81 -1.57 C32.89 8.67, 31.14 17.44, 34.21 31.75 M33.28 -0.01 C34.57 12.33, 32.07 27.23, 32.32 32.53 M33.84 34.02 C23.24 33.44, 19.27 35.6, 3.82 31.97 M32.31 32.95 C26.64 31.85, 14.75 34.51, 1.14 34.3 M-2.27 35.64 C-2.36 25, -2.62 20.87, -3.81 -2.17 M0.43 35.51 C0.49 27.81, -0.74 20.23, 1.3 1.21" stroke="#E23956" stroke-width="1" fill="none"></path></g><g transform="translate(373 44) rotate(0 17 17)"><text x="17" y="21.9" font-family="Cascadia, Segoe UI Emoji" font-size="14px" fill="#E23956" text-anchor="middle" style="white-space: pre;" direction="ltr">8</text></g><g stroke-linecap="round" transform="translate(415 44) rotate(0 17 17)"><path d="M0.42 1.23 L37.4 1.12 L35.85 32.49 L-0.44 35.39" stroke="none" stroke-width="0" fill="#F09CAB"></path><path d="M2.43 -3.27 C7.31 -3.22, 17.89 -3.96, 31.34 2.77 M0.13 0.03 C6.24 -1.36, 16.19 0.79, 33.27 0.78 M37.1 0.43 C33.79 12.89, 37.56 17.07, 37.33 32.79 M35.66 1.59 C32 9.15, 33.69 18.85, 35.58 35.35 M34.26 32.32 C21.35 31.87, 9.54 37.68, 2.51 36.74 M32.76 35.8 C22.42 34.27, 10.07 34.76, 0.66 34.64 M-0.03 33.38 C-0.89 23.77, 0.99 12.3, 0.93 -3.82 M-1.83 35.5 C1.97 24.71, 0.78 17.28, 0.82 1.11" stroke="#E23956" stroke-width="1" fill="none"></path></g><g transform="translate(415 44) rotate(0 17 17)"><text x="17" y="21.9" font-family="Cascadia, Segoe UI Emoji" font-size="14px" fill="#E23956" text-anchor="middle" style="white-space: pre;" direction="ltr">9</text></g><g stroke-linecap="round" transform="translate(331 86) rotate(0 17 17)"><path d="M3.61 -3.39 L37.76 -0.4 L37.88 34.36 L-1.03 31.65" stroke="none" stroke-width="0" fill="#F09CAB"></path><path d="M1.29 -3.56 C12.75 -2.47, 21.41 -2.35, 32.99 -2.09 M-1.06 -1.86 C8.66 -0.02, 18.69 -2.43, 32.62 -1.2 M33.4 2.44 C34.68 9.11, 35.99 24.7, 32.45 33.84 M34.04 -0.8 C34.79 12.77, 32.67 24.07, 34.83 34.17 M34.69 30.61 C19.46 30.29, 7.81 31.76, 1.2 33.51 M33.21 34.65 C24.99 32.7, 14.99 35.01, 0.17 34.97 M2.2 31.13 C1.94 21.34, -2.03 17.32, -2.34 2.53 M-0.09 35.49 C-0.55 21.61, -1.69 10.34, 0.35 1.02" stroke="#E23956" stroke-width="1" fill="none"></path></g><g transform="translate(331 86) rotate(0 17 17)"><text x="17" y="21.9" font-family="Cascadia, Segoe UI Emoji" font-size="14px" fill="#E23956" text-anchor="middle" style="white-space: pre;" direction="ltr">10</text></g><g stroke-linecap="round" transform="translate(373 86) rotate(0 17 17)"><path d="M-1.19 -0.02 L30.13 -1.91 L31.91 36.24 L-1.63 35.91" stroke="none" stroke-width="0" fill="#F09CAB"></path><path d="M0.15 -3.85 C10.19 -0.35, 16.93 0.61, 34.64 1.05 M1.75 0.26 C11.08 -1.33, 25.19 -0.29, 35.98 0.82 M37.69 -3.56 C35.58 6.53, 34.42 18.74, 35.58 34.88 M32.42 0.8 C32.23 5.59, 34.29 15.7, 34.09 32.99 M35.11 36.9 C24.37 36.72, 19.68 33.84, -0.11 30.28 M33.67 33.5 C20.76 33.76, 10.31 33.9, -0.32 35.31 M-3.56 36.88 C3.41 26.9, 1.58 14.35, 2.4 0.88 M1.66 35.47 C0.93 22.5, -0.16 7.39, -0.12 0.92" stroke="#E23956" stroke-width="1" fill="none"></path></g><g transform="translate(373 86) rotate(0 17 17)"><text x="17" y="21.9" font-family="Cascadia, Segoe UI Emoji" font-size="14px" fill="#E23956" text-anchor="middle" style="white-space: pre;" direction="ltr">11</text></g><g stroke-linecap="round" transform="translate(550 10) rotate(0 110 65)"><path d="M2.01 3.35 L216.49 -3.42 L219.94 126.11 L-2.22 128.17" stroke="none" stroke-width="0" fill="#F8CDD6"></path><path d="M-0.86 3.34 C63.32 -1.59, 131.12 -0.01, 221.99 -3.3 M0.49 -1.41 C60.1 0.11, 117.33 -2.95, 221.16 -1 M219.98 -1.56 C223.36 40.65, 219.73 78.16, 216.7 131.93 M220.81 -1.59 C222.81 35.88, 221.07 70.26, 219.34 131.8 M221.33 131.03 C149.71 130.66, 78.53 131.32, -1.23 130.91 M220.1 128.57 C158.71 126.95, 99.64 128.66, -0.7 131.42 M-1.33 130.63 C-0.33 76.09, -0.02 26.61, -0.87 -0.76 M-0.6 131.46 C1.42 99.12, 0.38 67.88, -0.6 0.82" stroke="#E23956" stroke-width="2" fill="none"></path></g><g transform="translate(550 16) rotate(0 110 11)"><text x="110" y="17.3" font-family="Cascadia, Segoe UI Emoji" font-size="18px" fill="#E23956" text-anchor="middle" style="white-space: pre;" direction="ltr">RS 3</text></g><g transform="translate(550 50) rotate(0 110 30)"><text x="110" y="24.4" font-family="Cascadia, Segoe UI Emoji" font-size="16px" fill="#737A82" text-anchor="middle" style="white-space: pre;" direction="ltr">(empty —</text><text x="110" y="43.6" font-family="Cascadia, Segoe UI Emoji" font-size="16px" fill="#737A82" text-anchor="middle" style="white-space: pre;" direction="ltr">just joined)</text></g><g stroke-linecap="round" transform="translate(508 160) rotate(0 17 17)"><path d="M-1.19 -3.59 L35.04 2.31 L36.99 32.92 L0.88 34.56" stroke="none" stroke-width="0" fill="#F09CAB"></path><path d="M1.29 -0.57 C11.8 -1.11, 21.73 -2.01, 34.77 0.9 M0.78 1.55 C12.33 -1.27, 27.84 0.37, 32.37 -0.12 M36.42 1.45 C33.14 6.29, 29.81 16.22, 31.39 33.49 M34.38 0.82 C33.85 11.24, 36.38 17.95, 34.23 32.03 M32.16 32.63 C30.45 32.79, 20.95 35.03, -3.38 30.21 M34.8 34.63 C24.4 35.81, 13 34.53, -1.54 32.14 M-1.98 31.25 C-2.87 26.02, 0.65 13.32, -1.77 0.76 M-1.98 35.44 C1.31 26.94, -1.66 20.42, 0.69 0.68" stroke="#E23956" stroke-width="1" fill="none"></path></g><g transform="translate(508 160) rotate(0 17 17)"><text x="17" y="21.9" font-family="Cascadia, Segoe UI Emoji" font-size="14px" fill="#E23956" text-anchor="middle" style="white-space: pre;" direction="ltr">12</text></g><g stroke-linecap="round"><g transform="translate(500 177) rotate(0 2 0)"><path d="M1.75 0.11 C2.33 -0.3, 3.01 -0.25, 3.4 -0.61" stroke="#E23956" stroke-width="2.5" fill="none" stroke-dasharray="8 10"></path></g></g><g stroke-linecap="round"><g transform="translate(546 177) rotate(0 2 0)"><path d="M-2.71 2.51 C-1.68 1.79, 5.36 -1.41, 6.09 -1.51" stroke="#E23956" stroke-width="2.5" fill="none" stroke-dasharray="8 10"></path></g></g><g transform="translate(500 200) rotate(0 25 10)"><text x="25" y="15.6" font-family="Cascadia, Segoe UI Emoji" font-size="16px" fill="#2B1321" text-anchor="middle" style="white-space: pre;" direction="ltr">rebalancing</text></g><g transform="translate(10 234) rotate(0 380 10)"><text x="0" y="15.6" font-family="Cascadia, Segoe UI Emoji" font-size="16px" fill="#2B1321" text-anchor="start" style="white-space: pre;" direction="ltr">• co-distributed tables → join locality</text></g><g transform="translate(10 258) rotate(0 380 10)"><text x="0" y="15.6" font-family="Cascadia, Segoe UI Emoji" font-size="16px" fill="#2B1321" text-anchor="start" style="white-space: pre;" direction="ltr">• drivers cache bucket→shard map</text></g><g transform="translate(10 282) rotate(0 380 10)"><text x="0" y="15.6" font-family="Cascadia, Segoe UI Emoji" font-size="16px" fill="#2B1321" text-anchor="start" style="white-space: pre;" direction="ltr">• new node joins with 0 buckets, receives them gradually</text></g></svg>