<svg version="1.1" xmlns="http://www.w3.org/2000/svg" viewBox="0 0 312 334" width="312" height="334">
  <!-- svg-source:excalidraw -->
  
  <defs>
    <style>
      @font-face {
        font-family: "Virgil";
        src: url("https://excalidraw.com/Virgil.woff2");
      }
      @font-face {
        font-family: "Cascadia";
        src: url("https://excalidraw.com/Cascadia.woff2");
      }
    </style>
  </defs>
  <rect x="0" y="0" width="312" height="334" fill="transparent"></rect><g stroke-linecap="round" transform="translate(10 10) rotate(0 73 18)"><path d="M-3.68 -0.28 L142.31 -3.56 L142.58 36.86 L-3.93 36.03" stroke="none" stroke-width="0" fill="#E8EAED"></path><path d="M-0.77 1.51 C59.13 -1.76, 116.76 -1.52, 144.96 1.59 M1.8 -1.7 C49.83 3.57, 97.67 2.24, 145.98 -1.1 M147.86 -0.99 C147.85 8.93, 142.66 22.45, 145.19 34.36 M146.93 -0.09 C145.63 7.99, 146.02 19.83, 145.77 34.66 M142.68 35.33 C87.48 38.66, 29.32 38.08, -1.77 37.63 M145.61 36.5 C109.03 32.86, 73.42 33.31, 1.43 35.03 M-0.03 38.72 C-3.01 27.32, -3.88 13.57, 1.72 -3.64 M-0.5 34.86 C0.82 23.33, 0.93 10.76, 1.79 -1.9" stroke="#737A82" stroke-width="2" fill="none"></path></g><g transform="translate(10 10) rotate(0 73 18)"><text x="73" y="22.9" font-family="Cascadia, Segoe UI Emoji" font-size="14px" fill="#737A82" text-anchor="middle" style="white-space: pre;" direction="ltr">server 1</text></g><g stroke-linecap="round" transform="translate(156 10) rotate(0 73 18)"><path d="M-0.48 3.1 L142.68 2.92 L144.6 38.74 L3.48 32.29" stroke="none" stroke-width="0" fill="#E8EAED"></path><path d="M-1.91 1.22 C56.57 -2.82, 112.29 -1.73, 146.61 -3.27 M0.61 0.42 C32.62 -2.97, 64.9 -0.85, 145.34 0.93 M144.16 1.02 C148.75 13.29, 149.09 22.36, 148.31 35.41 M145.31 1.52 C144.47 11.76, 145.05 25.34, 145.02 37.48 M143.11 33.62 C107.77 36.99, 71.95 40.06, -3.08 34.4 M146.06 35.35 C97.2 36.31, 45.52 34.59, 0.94 35.36 M2.2 36.47 C-0.13 24.99, 1.14 18.81, -1.55 2.71 M1.24 34.84 C-1.71 27.32, -1.56 17.99, 1.32 -2" stroke="#737A82" stroke-width="2" fill="none"></path></g><g transform="translate(156 10) rotate(0 73 18)"><text x="73" y="22.9" font-family="Cascadia, Segoe UI Emoji" font-size="14px" fill="#737A82" text-anchor="middle" style="white-space: pre;" direction="ltr">server 2</text></g><g stroke-linecap="round" transform="translate(10 56) rotate(0 146 134)"><path d="M-2.28 0.7 C112.89 -5.01, 231.58 -3.56, 293.69 -0.1 M291.09 -2.3 C290.13 84.71, 292.17 162.78, 289.95 266.35 M293.83 270.26 C235.35 272.94, 174.61 271.55, -1.91 268.34 M2.66 266.62 C0.7 209.88, 1.91 151.45, -2.71 0.47" stroke="#2B1321" stroke-width="2.5" fill="none" stroke-dasharray="8 10"></path></g><g transform="translate(10 60) rotate(0 146 10)"><text x="146" y="15.6" font-family="Cascadia, Segoe UI Emoji" font-size="16px" fill="#2B1321" text-anchor="middle" style="white-space: pre;" direction="ltr">Cluster</text></g><g stroke-linecap="round" transform="translate(26 84) rotate(0 130 48)"><path d="M-2.08 1.84 L257.4 -0.1 L262.66 94.48 L2.29 92.81" stroke="none" stroke-width="0" fill="#F8CDD6"></path><path d="M3.04 0.51 C104.35 1.12, 209.03 3.36, 263.13 2.4 M-1.41 0.52 C101.27 -0.68, 204.92 0.12, 258.44 0.78 M258.74 -2.97 C257.25 23.17, 260.65 48.5, 260.56 97.5 M260.08 0.73 C260.19 29.68, 257.15 57.13, 261.53 95.11 M258.36 97.77 C160.04 94.39, 58.87 96.29, 1.84 95.96 M260.77 96.84 C168.4 100, 77.33 98.35, -0.03 96.02 M-1.33 99.97 C5.19 58.18, 2.75 20.97, -0.08 -0.58 M0.73 94.81 C0.36 64.29, 0.61 30.45, 0.37 1.81" stroke="#E23956" stroke-width="1" fill="none"></path></g><g transform="translate(26 86) rotate(0 130 9)"><text x="130" y="13.6" font-family="Cascadia, Segoe UI Emoji" font-size="13px" fill="#E23956" text-anchor="middle" style="white-space: pre;" direction="ltr">replica set 1</text></g><g stroke-linecap="round" transform="translate(46 108) rotate(0 50 22)"><path d="M1.11 -2.79 L97.77 -1.61 L96.69 44.35 L1.69 45.07" stroke="none" stroke-width="0" fill="#F09CAB"></path><path d="M2.66 0.35 C38.66 0.38, 78.38 -3.97, 97.57 -1.86 M1.04 -1.23 C26.66 -1.1, 53.95 -0.65, 101.41 -1.01 M103.04 -0.97 C97.57 13.92, 98.51 29.19, 103.69 46.55 M98.46 -1.67 C100.18 14.8, 101.32 33.36, 100.79 45.93 M98.37 44.5 C75.63 47.88, 51.81 45.91, 1 40.72 M101.42 43.9 C73.91 41.5, 48.26 41.27, -0.53 44.37 M0.91 45.72 C-2.39 32.17, -2.7 14.85, -3.34 -2.23 M-1.53 42.8 C0.25 26.49, 0.54 10.11, -0.1 1.72" stroke="#E23956" stroke-width="1" fill="none"></path></g><g transform="translate(46 108) rotate(0 50 22)"><text x="50" y="26.6" font-family="Cascadia, Segoe UI Emoji" font-size="13px" fill="#E23956" text-anchor="middle" style="white-space: pre;" direction="ltr">instance 1</text></g><g transform="translate(46 154) rotate(0 50 8)"><text x="50" y="11.8" font-family="Cascadia, Segoe UI Emoji" font-size="11px" fill="#2B1321" text-anchor="middle" style="white-space: pre;" direction="ltr">active</text></g><g stroke-linecap="round" transform="translate(166 108) rotate(0 50 22)"><path d="M-2.09 -1.73 L102.32 -3.88 L99.74 47.16 L-3.2 47.46" stroke="none" stroke-width="0" fill="#FDECEF"></path><path d="M-3.05 3.92 C42.83 -0.09, 79.66 0.84, 96.04 2.85 M1.26 1.95 C20.74 -0.51, 40.61 -2.9, 98.44 0.03 M97.48 2.04 C102.08 8.5, 103.32 25.14, 96.37 44.11 M98.03 0.74 C98.98 16.93, 100.41 34.6, 101.67 42.16 M103.01 41.94 C62.6 45.44, 28.8 44.94, -0.97 43.88 M98.1 42.17 C67.31 42.04, 38.72 42.55, -1.26 44.87 M0.26 42.34 C-3.57 33.31, -0.67 23.98, 3.76 -0.71 M1.09 42.78 C-2.55 27.41, -0.18 8.83, 1.19 1.57" stroke="#E23956" stroke-width="1" fill="none"></path></g><g transform="translate(166 108) rotate(0 50 22)"><text x="50" y="26.6" font-family="Cascadia, Segoe UI Emoji" font-size="13px" fill="#E23956" text-anchor="middle" style="white-space: pre;" direction="ltr">instance 3</text></g><g transform="translate(166 154) rotate(0 50 8)"><text x="50" y="11.8" font-family="Cascadia, Segoe UI Emoji" font-size="11px" fill="#2B1321" text-anchor="middle" style="white-space: pre;" direction="ltr">standby</text></g><g stroke-linecap="round"><g transform="translate(148 130) rotate(0 8 0)"><path d="M-2.74 -0.53 C-0.58 -0.54, 12.81 -0.74, 15.64 -0.46" stroke="#E23956" stroke-width="2.5" fill="none" stroke-dasharray="8 10"></path></g></g><g transform="translate(146 106) rotate(0 10 8)"><text x="10" y="11.5" font-family="Cascadia, Segoe UI Emoji" font-size="10px" fill="#737A82" text-anchor="middle" style="white-space: pre;" direction="ltr">replication</text></g><g stroke-linecap="round" transform="translate(26 200) rotate(0 130 48)"><path d="M-2.1 2.71 L259.23 0.34 L256.81 95.84 L-0.69 98.11" stroke="none" stroke-width="0" fill="#F8CDD6"></path><path d="M-1.52 -0.64 C100.54 -0.28, 203.96 -1.03, 256.94 2.16 M0.23 -0.61 C57.56 -2.88, 114.55 -4.31, 259.07 -0.73 M256.21 -0.95 C258.83 19.59, 257.9 45.28, 260.18 94.73 M259.98 0.76 C258.44 24.19, 260.34 52.07, 261.81 97.2 M260.05 97.34 C183.52 93.72, 107.6 97.42, 3.01 95.84 M259.38 95.44 C190.04 91.73, 119.71 90.99, 1.22 97.36 M1.85 96.71 C-1.36 67.17, -1.11 32.42, -0.41 -0.83 M1.45 94.74 C0.58 74.1, 1.07 54.37, -2 1.33" stroke="#E23956" stroke-width="1" fill="none"></path></g><g transform="translate(26 202) rotate(0 130 9)"><text x="130" y="13.6" font-family="Cascadia, Segoe UI Emoji" font-size="13px" fill="#E23956" text-anchor="middle" style="white-space: pre;" direction="ltr">replica set 2</text></g><g stroke-linecap="round" transform="translate(46 224) rotate(0 50 22)"><path d="M1.1 -1.92 L99.59 -1.17 L98.84 45.72 L-1.29 42.37" stroke="none" stroke-width="0" fill="#F09CAB"></path><path d="M-3.05 -1.09 C41.88 -1.2, 79.99 -1.28, 97.82 -2.16 M-0.9 1.35 C30.94 -1.82, 58.82 -0.16, 98.19 1.11 M100.51 1.05 C100.44 12.93, 97.04 23.16, 103.31 43.77 M98.36 -1.64 C102.12 14.98, 100.21 27.63, 101.06 44.02 M100.48 43.96 C65.51 47.73, 25.77 40.02, 2.46 40.58 M99.68 42.15 C62.57 44.63, 24.45 41.54, 1.03 42.04 M-3.92 42.46 C-0.41 29.84, 1.98 19.67, -3.67 -2.48 M-0.81 42.73 C0.95 33.82, 1.48 21.06, 1.53 1.24" stroke="#E23956" stroke-width="1" fill="none"></path></g><g transform="translate(46 224) rotate(0 50 22)"><text x="50" y="26.6" font-family="Cascadia, Segoe UI Emoji" font-size="13px" fill="#E23956" text-anchor="middle" style="white-space: pre;" direction="ltr">instance 2</text></g><g transform="translate(46 270) rotate(0 50 8)"><text x="50" y="11.8" font-family="Cascadia, Segoe UI Emoji" font-size="11px" fill="#2B1321" text-anchor="middle" style="white-space: pre;" direction="ltr">active</text></g><g stroke-linecap="round" transform="translate(166 224) rotate(0 50 22)"><path d="M-2.1 -0.86 L96.14 -3.44 L101.89 40.52 L1.82 44.76" stroke="none" stroke-width="0" fill="#FDECEF"></path><path d="M-0.76 2.48 C38.05 -1.67, 81.27 3.52, 96.3 2.54 M-0.69 0.53 C25.02 2.77, 45.48 1.59, 99.23 -1.86 M102.95 -3.94 C98.71 16.31, 103.61 36.71, 103.99 41.34 M101.94 0.77 C100.92 17.12, 99.29 28.87, 101.95 44.25 M97.12 41.4 C72.47 45.29, 50.76 47.05, 0.49 43.73 M100.36 44.42 C75.96 45.17, 54.9 42.82, 0.3 42.54 M3.44 47.08 C-1.6 30.19, -3.99 11.19, 3.43 -0.95 M1.81 42.71 C-0.09 30.74, 2.52 19.79, -1.19 1.09" stroke="#E23956" stroke-width="1" fill="none"></path></g><g transform="translate(166 224) rotate(0 50 22)"><text x="50" y="26.6" font-family="Cascadia, Segoe UI Emoji" font-size="13px" fill="#E23956" text-anchor="middle" style="white-space: pre;" direction="ltr">instance 4</text></g><g transform="translate(166 270) rotate(0 50 8)"><text x="50" y="11.8" font-family="Cascadia, Segoe UI Emoji" font-size="11px" fill="#2B1321" text-anchor="middle" style="white-space: pre;" direction="ltr">standby</text></g><g stroke-linecap="round"><g transform="translate(148 246) rotate(0 8 0)"><path d="M-2.59 1.07 C-0.6 1.72, 12 1.58, 14.63 1.78" stroke="#E23956" stroke-width="2.5" fill="none" stroke-dasharray="8 10"></path></g></g><g transform="translate(146 222) rotate(0 10 8)"><text x="10" y="11.5" font-family="Cascadia, Segoe UI Emoji" font-size="10px" fill="#737A82" text-anchor="middle" style="white-space: pre;" direction="ltr">replication</text></g><g stroke-linecap="round"><g transform="translate(83 46) rotate(0 0 5)"><path d="M-0.32 0.27 C-1.03 1.97, -1.31 8.52, -1.57 9.99" stroke="#737A82" stroke-width="1.5" fill="none" stroke-dasharray="8 9"></path></g></g><g stroke-linecap="round"><g transform="translate(229 46) rotate(0 0 5)"><path d="M0.82 2.67 C0.55 4.06, 1.03 8.28, 1.13 9.1" stroke="#737A82" stroke-width="1.5" fill="none" stroke-dasharray="8 9"></path></g></g></svg>