<svg version="1.1" xmlns="http://www.w3.org/2000/svg" viewBox="0 0 420 244" width="420" height="244">
  <!-- svg-source:excalidraw -->
  
  <defs>
    <style>
      @font-face {
        font-family: "Virgil";
        src: url("https://excalidraw.com/Virgil.woff2");
      }
      @font-face {
        font-family: "Cascadia";
        src: url("https://excalidraw.com/Cascadia.woff2");
      }
    </style>
  </defs>
  <rect x="0" y="0" width="420" height="244" fill="transparent"></rect><g transform="translate(10 10) rotate(0 80 12)"><text x="80" y="12.0" dominant-baseline="central" font-family="Cascadia, Segoe UI Emoji" font-size="16px" fill="#737A82" text-anchor="middle" style="white-space: pre;" direction="ltr">server 1</text></g><g stroke-linecap="round" transform="translate(10 38) rotate(0 80 98)"><path d="M2.66 -2.63 C63.4 1.78, 125.63 -1.56, 163.79 3.16 M-0.79 -0.64 C59.11 0.33, 121.05 0.73, 161.66 1.91 M160.01 0.02 C155 54.72, 160.57 113.62, 156.75 198.89 M158.12 0.71 C160.87 39.72, 161.36 82.27, 161.4 196.07 M160.89 194.48 C127.03 197.89, 87.44 195.14, -2.42 196.02 M159.84 195.92 C95 194.48, 35.24 193.85, 1.18 195.19 M-2.92 197.6 C2.76 131.83, 2.96 75.53, -3.91 -0.46 M0.37 194.85 C-0.95 134.42, -2.82 74.55, -0.44 -1.95" stroke="#737A82" stroke-width="2" fill="none"></path></g><g transform="translate(250 10) rotate(0 80 12)"><text x="80" y="12.0" dominant-baseline="central" font-family="Cascadia, Segoe UI Emoji" font-size="16px" fill="#737A82" text-anchor="middle" style="white-space: pre;" direction="ltr">server 2</text></g><g stroke-linecap="round" transform="translate(250 38) rotate(0 80 98)"><path d="M1.52 -2.92 C60.85 0.49, 129.15 -1.99, 157.44 -1.7 M-1.98 1.48 C40.29 -0.29, 85.07 -0.45, 161.02 -0.06 M156.3 2.02 C156.39 70.28, 159.5 143.94, 159.87 199.93 M160.5 -1.68 C155.9 55.26, 156.58 111.33, 160.65 194.89 M161.32 192.77 C117.24 196.21, 69.92 197.11, -3.73 192.79 M160.29 194.77 C113.71 198.06, 64.43 195.26, 0.69 195.53 M-0.68 195.35 C-6.7 145.94, -4.36 89.65, 0.82 -2.11 M-1.89 194.84 C2.88 126.39, 5.06 53.76, -0.92 1.96" stroke="#737A82" stroke-width="2" fill="none"></path></g><g stroke-linecap="round" transform="translate(22 74) rotate(0 68 24)"><path d="M2.72 -1.53 L133.04 1.41 L136.63 44.61 L2.88 48.55" stroke="none" stroke-width="0" fill="#F09CAB"></path><path d="M-3.05 0.93 C50.05 -3.68, 107.88 -1.74, 138.26 -0.13 M-0.58 -1.46 C41.55 0.44, 84.41 -2, 134.69 -1.05 M138.45 3.02 C139.76 12.88, 137.63 20.74, 133.44 48.46 M137.69 -0.88 C135.83 10.96, 136.6 21.73, 134.28 48.3 M133.53 51.92 C92.08 47.28, 44.62 46, 3.61 51.17 M136.51 46.2 C103.06 47.69, 67.01 47.8, 0.45 47.7 M-3.56 46.22 C1.25 39.84, -3.34 22.4, 3.19 1.06 M-1.01 46.83 C-0.31 32.65, -0.11 19.9, 0.84 1.91" stroke="#E23956" stroke-width="2" fill="none"></path></g><g transform="translate(22 74) rotate(0 68 24)"><text x="68" y="24.0" dominant-baseline="central" font-family="Cascadia, Segoe UI Emoji" font-size="13px" fill="#E23956" text-anchor="middle" style="white-space: pre;" direction="ltr">instance 1</text></g><g transform="translate(22 123) rotate(0 68 8)"><text x="68" y="8.0" dominant-baseline="central" font-family="Cascadia, Segoe UI Emoji" font-size="11px" fill="#2B1321" text-anchor="middle" style="white-space: pre;" direction="ltr">RS 1 leader</text></g><g stroke-linecap="round" transform="translate(22 158) rotate(0 68 24)"><path d="M-0.49 -0.47 L137.59 -0.85 L139.68 47.42 L-2.01 50.94" stroke="none" stroke-width="0" fill="#FFF3EC"></path><path d="M-0.77 -3.5 C54.22 -3.59, 109.17 -4.37, 136.74 -3.43 M-0.36 1.71 C33.04 2.04, 61.9 0.76, 135.73 -0.02 M132.89 -1.97 C136.2 16.69, 134.37 27.13, 134.12 46.02 M137.27 1.53 C134.63 9.14, 135.68 23.05, 135.16 48.52 M138.16 49.35 C102.86 44.79, 77.24 44.99, 1.65 46.33 M137.19 48.47 C94.46 47.28, 53.48 44.13, -0.28 48.2 M3.79 50.84 C0.03 31.7, -1.34 12.96, 2.29 2.59 M1.6 46.81 C-1.32 33.63, 0.95 22.77, -1.87 1.76" stroke="#FF611D" stroke-width="1" fill="none"></path></g><g transform="translate(22 158) rotate(0 68 24)"><text x="68" y="24.0" dominant-baseline="central" font-family="Cascadia, Segoe UI Emoji" font-size="13px" fill="#FF611D" text-anchor="middle" style="white-space: pre;" direction="ltr">instance 4</text></g><g transform="translate(22 207) rotate(0 68 8)"><text x="68" y="8.0" dominant-baseline="central" font-family="Cascadia, Segoe UI Emoji" font-size="11px" fill="#2B1321" text-anchor="middle" style="white-space: pre;" direction="ltr">RS 2 follower</text></g><g stroke-linecap="round" transform="translate(262 74) rotate(0 68 24)"><path d="M-3.69 0.59 L134.13 -3.12 L134.72 50.23 L1.1 45.33" stroke="none" stroke-width="0" fill="#FDECEF"></path><path d="M1.52 0.07 C50.38 4.5, 110.45 1, 135.22 1.28 M-0.15 0.89 C47.74 2.2, 97.78 2.09, 136.77 1.02 M135.33 1.04 C134.57 10.89, 133.04 22.32, 134.81 51.59 M136.84 -0.06 C137.43 11.32, 134.76 24.37, 136.04 48.75 M134.8 46.79 C94.44 50.3, 55.46 51.98, -0.31 49.49 M137.87 46.75 C85.86 48.32, 35.94 45.91, -1.02 48.7 M3.14 47.46 C-1.18 33.16, 0.65 22.72, 1.39 -3.88 M0.22 46.79 C1.66 34.62, 2.01 25.63, -0.58 1.62" stroke="#E23956" stroke-width="1" fill="none"></path></g><g transform="translate(262 74) rotate(0 68 24)"><text x="68" y="24.0" dominant-baseline="central" font-family="Cascadia, Segoe UI Emoji" font-size="13px" fill="#E23956" text-anchor="middle" style="white-space: pre;" direction="ltr">instance 2</text></g><g transform="translate(262 123) rotate(0 68 8)"><text x="68" y="8.0" dominant-baseline="central" font-family="Cascadia, Segoe UI Emoji" font-size="11px" fill="#2B1321" text-anchor="middle" style="white-space: pre;" direction="ltr">RS 1 follower</text></g><g stroke-linecap="round" transform="translate(262 158) rotate(0 68 24)"><path d="M1.11 1.65 L138.68 2.61 L137.77 45.03 L-3.8 47.72" stroke="none" stroke-width="0" fill="#FFB08E"></path><path d="M3.81 3.63 C54.55 -0.85, 111.74 0.93, 133.7 -2.01 M0.07 0.06 C39.24 -1.65, 79.26 -0.59, 137.8 -1.95 M137.77 -3.96 C139.02 14.7, 137.78 28.72, 135.5 49.16 M136.41 -1.65 C136.23 13.49, 133.84 25.7, 136.93 48.98 M139.43 44.23 C105.21 47.81, 80.08 50.96, -2.27 44.65 M134.55 49.02 C108.46 49.35, 76.8 47.69, -1.75 49.2 M2.5 44.09 C-0.47 25.02, 4.57 13.27, 0.49 -2.35 M-1.17 46.76 C0.65 35.61, -0.93 24.5, 0.71 1.48" stroke="#FF611D" stroke-width="2" fill="none"></path></g><g transform="translate(262 158) rotate(0 68 24)"><text x="68" y="24.0" dominant-baseline="central" font-family="Cascadia, Segoe UI Emoji" font-size="13px" fill="#FF611D" text-anchor="middle" style="white-space: pre;" direction="ltr">instance 3</text></g><g transform="translate(262 207) rotate(0 68 8)"><text x="68" y="8.0" dominant-baseline="central" font-family="Cascadia, Segoe UI Emoji" font-size="11px" fill="#2B1321" text-anchor="middle" style="white-space: pre;" direction="ltr">RS 2 leader</text></g><g stroke-linecap="round"><g transform="translate(160 98) rotate(0 50 0)"><path d="M-0.47 -1.33 C15.66 -1.96, 82.84 -2.14, 99.44 -2.26" stroke="#E23956" stroke-width="2.5" fill="none" stroke-dasharray="8 10"></path></g></g><g stroke-linecap="round"><g transform="translate(260 182) rotate(0 -50 0)"><path d="M0.67 1.07 C-16.09 1.07, -81.48 2.29, -97.86 2.45" stroke="#FF611D" stroke-width="2.5" fill="none" stroke-dasharray="8 10"></path></g></g></svg>