<svg version="1.1" xmlns="http://www.w3.org/2000/svg" viewBox="0 0 630 190" width="630" height="190">
  <!-- svg-source:excalidraw -->
  
  <defs>
    <style>
      @font-face {
        font-family: "Virgil";
        src: url("https://excalidraw.com/Virgil.woff2");
      }
      @font-face {
        font-family: "Cascadia";
        src: url("https://excalidraw.com/Cascadia.woff2");
      }
    </style>
  </defs>
  <rect x="0" y="0" width="630" height="190" fill="transparent"></rect><g transform="translate(10 10) rotate(0 180 10)"><text x="180" y="15.2" font-family="Cascadia, Segoe UI Emoji" font-size="15px" fill="#737A82" text-anchor="middle" style="white-space: pre;" direction="ltr">Traditional: client–server</text></g><g stroke-linecap="round" transform="translate(10 40) rotate(0 70 40)"><path d="M-2.32 -2.15 L141.6 -3.91 L143.62 84 L-3.11 80.64" stroke="none" stroke-width="0" fill="#E8EAED"></path><path d="M-2.58 1.16 C52.16 1.09, 114.33 0.76, 140.06 -0.44 M-1.24 -1.75 C47.54 -1, 91.7 1.31, 138.23 -1.39 M143.41 -2.73 C142.72 20.51, 137 31.61, 142.95 78.94 M140.29 1.47 C138.02 25.58, 139.68 48.17, 138.87 79.05 M142.18 78.35 C111.59 81.91, 76.49 83.41, 2.86 77.23 M138.58 78.31 C107.53 76.67, 75.99 76.53, 0.96 78.66 M1.79 83.24 C0.14 57.48, -2.36 41.06, -3.65 -1.08 M1.9 81.28 C-3.28 62.43, -1.61 44.21, 0.01 -1.89" stroke="#737A82" stroke-width="2" fill="none"></path></g><g transform="translate(10 40) rotate(0 70 40)"><text x="70" y="35.1" font-family="Cascadia, Segoe UI Emoji" font-size="14px" fill="#2B1321" text-anchor="middle" style="white-space: pre;" direction="ltr">Application</text><text x="70" y="51.9" font-family="Cascadia, Segoe UI Emoji" font-size="14px" fill="#2B1321" text-anchor="middle" style="white-space: pre;" direction="ltr">Server</text></g><g stroke-linecap="round"><g transform="translate(150 80) rotate(0 40 0)"><path d="M-2.42 -2.61 C10.58 -2.36, 66.49 1.29, 80.61 1.64 M1.47 2.15 C13.9 1.57, 65.32 -2.52, 78.7 -2.48" stroke="#737A82" stroke-width="2" fill="none"></path></g></g><g transform="translate(150 58) rotate(0 40 8)"><text x="40" y="11.8" font-family="Cascadia, Segoe UI Emoji" font-size="11px" fill="#737A82" text-anchor="middle" style="white-space: pre;" direction="ltr">network</text></g><g stroke-linecap="round" transform="translate(230 40) rotate(0 70 40)"><path d="M-3.92 -3.41 L142.33 1.06 L139.68 79.74 L3.7 81.16" stroke="none" stroke-width="0" fill="#E8EAED"></path><path d="M3.13 0.58 C55.05 -3.24, 113.38 -1.86, 143.37 -2.16 M0.38 -1.52 C42.48 1.55, 84.91 2.74, 140.94 -1.34 M143.99 1.28 C144.79 27.4, 142.14 59.76, 141.2 81.03 M141.05 0.68 C138.72 19.6, 140.76 40.15, 141.38 80.68 M143.03 82.94 C94.53 78.58, 46.45 79.39, 0.24 78.78 M139.49 80.01 C109.1 79.45, 74.69 78.97, -0.02 79.33 M-1.74 78.74 C4.62 49.46, -1.6 28.82, -2.18 3.63 M1.39 81.25 C2.03 55.15, -0.2 28.19, -0.94 1.92" stroke="#737A82" stroke-width="2" fill="none"></path></g><g transform="translate(230 40) rotate(0 70 40)"><text x="70" y="44.9" font-family="Cascadia, Segoe UI Emoji" font-size="14px" fill="#2B1321" text-anchor="middle" style="white-space: pre;" direction="ltr">Database</text></g><g transform="translate(10 130) rotate(0 180 9)"><text x="180" y="13.9" font-family="Cascadia, Segoe UI Emoji" font-size="14px" fill="#737A82" text-anchor="middle" style="white-space: pre;" direction="ltr">~1 ms per data access</text></g><g transform="translate(430 10) rotate(0 95 10)"><text x="95" y="15.2" font-family="Cascadia, Segoe UI Emoji" font-size="15px" fill="#E23956" text-anchor="middle" style="white-space: pre;" direction="ltr">Co-located: plugin in DB</text></g><g stroke-linecap="round" transform="translate(430 40) rotate(0 95 55)"><path d="M2.47 3.34 L193.06 -1.96 L193.74 113.49 L2.51 111.68" stroke="none" stroke-width="0" fill="#F8CDD6"></path><path d="M0.85 0 C77.68 0.86, 151.9 3.95, 188.67 -3.89 M2 -1.28 C51.22 4.99, 105.71 5.07, 189.66 -1.3 M186.58 -2.71 C185.12 35.29, 185.54 65.92, 189.45 113.12 M191.82 -0.11 C189.71 23.77, 192.13 44.45, 189.89 108.32 M193.87 109.52 C141.98 104.98, 87.45 105.09, -2.38 110.32 M190.39 111.71 C144.58 105.77, 99.19 104.94, -1 110 M2.73 112.23 C1.48 88.53, -0.46 56.75, -0.71 0.33 M0.88 111.22 C-0.31 82.89, -2.44 60.17, -1.89 1.73" stroke="#E23956" stroke-width="2" fill="none"></path></g><g transform="translate(430 40) rotate(0 95 11)"><text x="95" y="15.6" font-family="Cascadia, Segoe UI Emoji" font-size="13px" fill="#E23956" text-anchor="middle" style="white-space: pre;" direction="ltr">Picodata instance</text></g><g stroke-linecap="round" transform="translate(445 68) rotate(0 80 20)"><path d="M-1.16 -0.64 L161.71 -1.74 L158.89 38.68 L0.96 38.97" stroke="none" stroke-width="0" fill="#F09CAB"></path><path d="M-0.15 -0.14 C63.23 -0.34, 125.04 -2.37, 160.16 -0.37 M0.4 0.42 C56.97 -1.28, 116.4 -1.52, 159.51 0.36 M160.44 -0.35 C158.65 12.86, 161.62 30.99, 161.29 38.08 M160.1 0.75 C160.19 10.31, 159.49 22.07, 159.57 40.57 M158.15 38.91 C108.56 40.73, 54.88 38.61, -1.84 38.55 M160.42 40.28 C104.63 39.93, 49.16 38.43, -0.74 40.17 M-1.52 39.99 C0.98 24.72, 1.08 9.24, -1.99 -0.66 M-0.69 40.6 C-0.11 29.12, 0.85 16.07, 0.82 0.82" stroke="#E23956" stroke-width="1" fill="none"></path></g><g transform="translate(445 68) rotate(0 80 20)"><text x="80" y="24.9" font-family="Cascadia, Segoe UI Emoji" font-size="14px" fill="#2B1321" text-anchor="middle" style="white-space: pre;" direction="ltr">Plugin (Rust)</text></g><g transform="translate(430 112) rotate(0 95 8)"><text x="95" y="11.8" font-family="Cascadia, Segoe UI Emoji" font-size="11px" fill="#737A82" text-anchor="middle" style="white-space: pre;" direction="ltr">data in RAM</text></g><g transform="translate(430 160) rotate(0 95 9)"><text x="95" y="13.9" font-family="Cascadia, Segoe UI Emoji" font-size="14px" fill="#E23956" text-anchor="middle" style="white-space: pre;" direction="ltr">~1 μs per data access</text></g><g transform="translate(390 70) rotate(0 10 10)"><text x="10" y="17.0" font-family="Cascadia, Segoe UI Emoji" font-size="20px" fill="#737A82" text-anchor="middle" style="white-space: pre;" direction="ltr">→</text></g><g transform="translate(10 160) rotate(0 300 10)"><text x="0" y="15.6" font-family="Cascadia, Segoe UI Emoji" font-size="16px" fill="#E23956" text-anchor="start" style="white-space: pre;" direction="ltr">1000x faster data access = plugins run where data lives</text></g></svg>