<svg version="1.1" xmlns="http://www.w3.org/2000/svg" viewBox="0 0 940 328.6" width="940" height="328.6">
  <!-- svg-source:excalidraw -->
  
  <defs>
    <style>
      @font-face {
        font-family: "Virgil";
        src: url("https://excalidraw.com/Virgil.woff2");
      }
      @font-face {
        font-family: "Cascadia";
        src: url("https://excalidraw.com/Cascadia.woff2");
      }
    </style>
  </defs>
  <rect x="0" y="0" width="940" height="328.6" fill="transparent"></rect><g transform="translate(10 10) rotate(0 140 12)"><text x="140" y="19.0" font-family="Cascadia, Segoe UI Emoji" font-size="20px" fill="#4B7BE5" text-anchor="middle" style="white-space: pre;" direction="ltr">Shared-Storage</text></g><g transform="translate(10 36) rotate(0 140 8.399999999999999)"><text x="140" y="13.3" font-family="Cascadia, Segoe UI Emoji" font-size="14px" fill="#2B1321" text-anchor="middle" style="white-space: pre;" direction="ltr">Neon, Aurora</text></g><g transform="translate(330 10) rotate(0 140 12)"><text x="140" y="19.0" font-family="Cascadia, Segoe UI Emoji" font-size="20px" fill="#2D9B8E" text-anchor="middle" style="white-space: pre;" direction="ltr">Shared-Memory</text></g><g transform="translate(330 36) rotate(0 140 8.399999999999999)"><text x="140" y="13.3" font-family="Cascadia, Segoe UI Emoji" font-size="14px" fill="#2B1321" text-anchor="middle" style="white-space: pre;" direction="ltr">PostgreSQL</text></g><g transform="translate(650 10) rotate(0 140 12)"><text x="140" y="19.0" font-family="Cascadia, Segoe UI Emoji" font-size="20px" fill="#E23956" text-anchor="middle" style="white-space: pre;" direction="ltr">Shared-Nothing</text></g><g transform="translate(650 36) rotate(0 140 8.399999999999999)"><text x="140" y="13.3" font-family="Cascadia, Segoe UI Emoji" font-size="14px" fill="#2B1321" text-anchor="middle" style="white-space: pre;" direction="ltr">Picodata</text></g><g stroke-linecap="round" transform="translate(35 70) rotate(0 35 20)"><path d="M2.03 1.62 L70.85 3.7 L73.65 41.38 L3.73 43.57" stroke="none" stroke-width="0" fill="#DBE6FA"></path><path d="M2.43 -1.25 C19.92 3.06, 38.66 -3.65, 71.78 -3.2 M0.46 1.21 C13.37 1.81, 30.81 -0.14, 69.77 -1.38 M67.05 2.4 C72.99 6.2, 70.04 17.37, 67.46 39.47 M70.99 -1.65 C71.29 14.25, 71.67 27.2, 68.79 41.63 M67.31 42.27 C46.54 41.12, 25.61 37.36, 3.67 41.34 M69.59 41.85 C55.09 42.74, 37 42.42, 0.07 38.29 M0.32 39.15 C0.7 26.49, 3.6 14.47, -0.21 -0.28 M1.96 41.6 C0.82 29.1, -0.7 17.25, 0.14 1.78" stroke="#4B7BE5" stroke-width="2" fill="none"></path></g><g transform="translate(35 82.8) rotate(0 35 7.200000000000003)"><text x="35" y="11.4" font-family="Cascadia, Segoe UI Emoji" font-size="12px" fill="#4B7BE5" text-anchor="middle" style="white-space: pre;" direction="ltr">Compute 1</text></g><g stroke-linecap="round" transform="translate(115 70) rotate(0 35 20)"><path d="M-2.77 -3.01 L71.21 2.19 L67.68 43.25 L3.14 39.83" stroke="none" stroke-width="0" fill="#DBE6FA"></path><path d="M1.28 -1.54 C17.36 -1.97, 42.18 0.18, 73.43 -0.06 M-0.73 -0.67 C22.86 -2.1, 43.46 -0.61, 69.12 0.64 M71.34 -3.6 C72.31 10.84, 66.89 25.84, 70.58 40.52 M69.37 -0.04 C68.64 10.32, 69.2 17.31, 68.05 40.44 M67.73 40.56 C42.39 39.51, 19.36 39.41, 2.36 38.11 M70.05 40.7 C47.13 38.69, 20.85 40.2, -0.41 38.63 M2.56 36.89 C3.66 32.37, 0.7 20.13, -3.48 -1.93 M-0.29 41.58 C-1.75 25.66, 0.77 13.64, -0.33 1.69" stroke="#4B7BE5" stroke-width="2" fill="none"></path></g><g transform="translate(115 82.8) rotate(0 35 7.200000000000003)"><text x="35" y="11.4" font-family="Cascadia, Segoe UI Emoji" font-size="12px" fill="#4B7BE5" text-anchor="middle" style="white-space: pre;" direction="ltr">Compute 2</text></g><g stroke-linecap="round" transform="translate(195 70) rotate(0 35 20)"><path d="M0.43 0.37 L71.58 0.67 L69.71 37.13 L2.54 36.09" stroke="none" stroke-width="0" fill="#DBE6FA"></path><path d="M0.14 -1.83 C22.8 -1.8, 37.7 1.2, 67.08 3.08 M-1.92 1.44 C28.35 0.79, 52.11 -2.27, 68.48 -1.33 M67.63 -1.59 C73.22 15.49, 73.33 26.31, 73.71 41.56 M71.75 1.56 C71.58 10.38, 72.33 23.41, 71.3 39.26 M68.15 38.85 C52.25 37.91, 41.12 41.46, 1.05 42.88 M70.5 39.55 C53.17 41.44, 36.71 40.78, -0.9 38.96 M-3.21 42.64 C-2.98 30.25, -3.79 25.79, 1.26 -3.58 M1.45 41.57 C1.27 22.23, -0.15 6.03, -0.81 1.59" stroke="#4B7BE5" stroke-width="2" fill="none"></path></g><g transform="translate(195 82.8) rotate(0 35 7.200000000000003)"><text x="35" y="11.4" font-family="Cascadia, Segoe UI Emoji" font-size="12px" fill="#4B7BE5" text-anchor="middle" style="white-space: pre;" direction="ltr">Compute 3</text></g><g stroke-linecap="round"><g transform="translate(70 110) rotate(0 40 50)"><path d="M2.59 -0.7 C15.69 15.81, 65.65 82.86, 78.52 99.6 M0.55 -3.55 C14.59 13.36, 71.23 85.31, 84.11 103.01" stroke="#4B7BE5" stroke-width="2" fill="none"></path></g></g><g stroke-linecap="round"><g transform="translate(150 110) rotate(0 0 50)"><path d="M-1.87 1.7 C-1.66 17.9, 1.33 82.63, 1.22 98.7 M2.31 0.16 C2.26 16.59, -0.45 84.95, -0.36 101.63" stroke="#4B7BE5" stroke-width="2" fill="none"></path></g></g><g stroke-linecap="round"><g transform="translate(230 110) rotate(0 -40 50)"><path d="M-0.74 -1.5 C-14.34 14.4, -68.59 80.53, -81.69 97.81 M4.06 3.86 C-8.63 21.26, -62.06 84.59, -76.2 100.24" stroke="#4B7BE5" stroke-width="2" fill="none"></path></g></g><g stroke-linecap="round" transform="translate(50 210) rotate(0 100 25)"><path d="M0.42 -3.2 L198.49 -3.11 L196.78 51.81 L-2.95 52.74" stroke="none" stroke-width="0" fill="#A8C4F0"></path><path d="M1.16 1.3 C62.73 -2.64, 119.77 -1.63, 197.49 2.63 M1 -1.14 C77.87 -1.4, 158.94 -3.61, 198.99 1.55 M196.37 3.42 C202.43 18.36, 200.37 30.03, 199.52 50.18 M199.71 1.58 C201.74 20.27, 198.96 38.14, 201.44 48.31 M202.89 52.33 C127.37 52.01, 50.9 52.63, -2 52.53 M201.47 50.61 C158.03 45.48, 119.47 47.21, 1.69 49.82 M-1.62 47.01 C-1.03 36.14, 3.51 20.31, -2.91 -3.7 M1.81 51.53 C1.72 39.27, -1.59 26.25, 0.01 1.35" stroke="#4B7BE5" stroke-width="3" fill="none"></path></g><g transform="translate(50 226.6) rotate(0 100 8.400000000000006)"><text x="100" y="13.3" font-family="Cascadia, Segoe UI Emoji" font-size="14px" fill="#4B7BE5" text-anchor="middle" style="white-space: pre;" direction="ltr">Shared Storage</text></g><g stroke-linecap="round" transform="translate(355 70) rotate(0 35 20)"><path d="M3.62 0.17 L68.85 3.38 L68.81 43.68 L-3.54 39" stroke="none" stroke-width="0" fill="#CDF0EB"></path><path d="M0.15 1.16 C21.85 -2.4, 38.03 -0.42, 68.86 -1.93 M-0.08 0.85 C21.58 -0.49, 40.38 0.5, 68.23 -0.25 M70.66 -2.58 C73.22 19.73, 68.69 31.97, 72.64 41.22 M68.09 -0.82 C69.08 8.6, 70.49 20.78, 70.7 41.12 M73.63 40.88 C55.74 40.29, 39.26 36.63, -3.53 39.58 M68.08 39.53 C50.32 40.27, 26.21 40.01, 1.39 40.14 M0.61 42.76 C0.2 26.84, -1.13 21.61, 1.83 2.65 M-0.45 41.52 C-0.94 28.21, -0.2 17.4, -0.46 1.25" stroke="#2D9B8E" stroke-width="2" fill="none"></path></g><g transform="translate(355 82.8) rotate(0 35 7.200000000000003)"><text x="35" y="11.4" font-family="Cascadia, Segoe UI Emoji" font-size="12px" fill="#2D9B8E" text-anchor="middle" style="white-space: pre;" direction="ltr">Backend 1</text></g><g stroke-linecap="round" transform="translate(435 70) rotate(0 35 20)"><path d="M-1.18 3.55 L69.22 1.87 L70.84 37.55 L3.86 43.26" stroke="none" stroke-width="0" fill="#CDF0EB"></path><path d="M-1 0.87 C19.3 0.57, 41.55 3.41, 70.51 1.21 M-1.27 -1.03 C27.08 -1.59, 53.03 -1.17, 71.59 1.77 M66.96 -0.57 C74.13 8.38, 67.14 24.45, 67.77 42.27 M70.47 0.79 C72.03 12.66, 69.62 26.88, 69.95 39.94 M66.05 39.17 C51.6 38.69, 25.01 38.67, 3.16 36.35 M68.53 38.38 C56.36 39.02, 42.06 40.59, 0.9 40.47 M2.85 40.51 C3.16 24.73, 3.98 11.27, -1.44 1.01 M1.3 41.51 C0.49 24.78, 1.28 13.79, -0.94 1.16" stroke="#2D9B8E" stroke-width="2" fill="none"></path></g><g transform="translate(435 82.8) rotate(0 35 7.200000000000003)"><text x="35" y="11.4" font-family="Cascadia, Segoe UI Emoji" font-size="12px" fill="#2D9B8E" text-anchor="middle" style="white-space: pre;" direction="ltr">Backend 2</text></g><g stroke-linecap="round" transform="translate(515 70) rotate(0 35 20)"><path d="M2.02 -1.08 L69.58 0.36 L72.87 39.43 L3.27 39.52" stroke="none" stroke-width="0" fill="#CDF0EB"></path><path d="M-2.14 0.58 C24.74 0.74, 45.07 -3.57, 72.16 -3.66 M1.54 1.09 C18.57 1.3, 33.68 1.17, 70.94 -0.21 M71.25 1.43 C65.45 13.02, 71.99 24.92, 70.89 43.31 M68.85 -1.61 C69.37 16.72, 71.16 32.99, 69.21 38.76 M66.47 37.46 C47.45 37.08, 18.77 40.72, 1.85 41.12 M68.99 41.23 C48.4 41.77, 25.92 41.17, 0.41 40.81 M-2.92 38.26 C-3.48 30.61, -0.52 16.93, 3.3 -0.64 M-0.96 41.49 C-2.09 33.34, -1.25 22.18, -1.41 1.06" stroke="#2D9B8E" stroke-width="2" fill="none"></path></g><g transform="translate(515 82.8) rotate(0 35 7.200000000000003)"><text x="35" y="11.4" font-family="Cascadia, Segoe UI Emoji" font-size="12px" fill="#2D9B8E" text-anchor="middle" style="white-space: pre;" direction="ltr">Backend 3</text></g><g stroke-linecap="round"><g transform="translate(390 110) rotate(0 40 50)"><path d="M-1.72 -2.3 C11.65 14.56, 66.25 84.02, 80.2 100.95 M2.53 2.63 C15.57 18.63, 64.96 79.9, 78.08 96.45" stroke="#2D9B8E" stroke-width="2" fill="none"></path></g></g><g stroke-linecap="round"><g transform="translate(470 110) rotate(0 0 50)"><path d="M-0.59 0.1 C-1.03 16.65, -2.74 83.79, -2.7 100.05 M4.29 -2.31 C4.68 14.66, 3.35 86.74, 2.24 103.71" stroke="#2D9B8E" stroke-width="2" fill="none"></path></g></g><g stroke-linecap="round"><g transform="translate(550 110) rotate(0 -40 50)"><path d="M0.55 2.5 C-12.78 18.75, -66.12 82.62, -80 99.16 M-2.6 1.4 C-16.29 17.89, -69.78 86.38, -82.23 102.33" stroke="#2D9B8E" stroke-width="2" fill="none"></path></g></g><g stroke-linecap="round" transform="translate(370 210) rotate(0 100 25)"><path d="M2.01 3.35 L196.49 -3.42 L199.94 46.11 L-2.22 48.17" stroke="none" stroke-width="0" fill="#7ED4C8"></path><path d="M-0.89 3.47 C57.28 -1.43, 119.23 0.21, 202.06 -3.43 M0.51 -1.46 C54.82 0.23, 106.66 -2.94, 201.2 -1.04 M199.98 -1.56 C202.62 15.74, 198.99 28.34, 196.7 51.93 M200.81 -1.59 C201.32 13.66, 199.57 25.81, 199.34 51.8 M201.38 51.07 C136.02 50.72, 71.11 51.41, -1.28 50.95 M200.11 48.52 C144.13 47, 90.56 48.77, -0.73 51.48 M-1.33 50.63 C-1.52 27.41, -1.21 9.25, -0.87 -0.76 M-0.6 51.46 C0.05 38.35, -0.99 26.35, -0.6 0.82" stroke="#2D9B8E" stroke-width="3" fill="none"></path></g><g transform="translate(370 226.6) rotate(0 100 8.400000000000006)"><text x="100" y="13.3" font-family="Cascadia, Segoe UI Emoji" font-size="14px" fill="#2D9B8E" text-anchor="middle" style="white-space: pre;" direction="ltr">Shared Memory</text></g><g stroke-linecap="round" transform="translate(675 70) rotate(0 35 60)"><path d="M-2.79 -1.28 L66.86 3.07 L71.97 117.98 L-2.82 122.43" stroke="none" stroke-width="0" fill="#F8CDD6"></path><path d="M-2.13 3.57 C23.79 2.94, 45.39 -2.39, 73.94 -0.67 M-0.62 0.49 C25.8 0.02, 49.94 -0.06, 70.69 0.87 M66.28 0.45 C74.43 47.78, 68.33 91.61, 69.83 122.97 M69.19 0.02 C68.78 43.05, 71.23 82.59, 68.6 120.62 M71.95 119.49 C42.94 119.47, 16.91 115.89, -2.73 117.83 M70.57 121.2 C45.54 120.6, 15.42 120.4, -1.3 121.98 M0.91 118.38 C-0.56 80.1, 1.89 38.54, 3.87 -2.41 M1.14 121.44 C1.94 83.69, 0.95 50.27, -1.07 0.73" stroke="#E23956" stroke-width="2" fill="none"></path></g><g transform="translate(675 84) rotate(0 35 7.200000000000003)"><text x="35" y="11.4" font-family="Cascadia, Segoe UI Emoji" font-size="12px" fill="#E23956" text-anchor="middle" style="white-space: pre;" direction="ltr">CPU 1</text></g><g stroke-linecap="round"><g transform="translate(675 125) rotate(0 35 0)"><path d="M0.62 -2.29 C12.68 -2.39, 60.33 -0.01, 72.3 0.28" stroke="#E23956" stroke-width="1.5" fill="none" stroke-dasharray="8 9"></path></g></g><g transform="translate(675 139) rotate(0 35 7.200000000000003)"><text x="35" y="11.4" font-family="Cascadia, Segoe UI Emoji" font-size="12px" fill="#E23956" text-anchor="middle" style="white-space: pre;" direction="ltr">Shard 1</text></g><g stroke-linecap="round" transform="translate(755 70) rotate(0 35 60)"><path d="M3.6 -2.53 L67.59 0.04 L68.03 121.73 L3.99 122.95" stroke="none" stroke-width="0" fill="#F8CDD6"></path><path d="M3.58 2.99 C18.68 -1.92, 44.44 2.46, 69.24 -2.39 M1 0.73 C22.79 1.8, 43.24 0.61, 69.41 0.91 M66.86 -3.54 C68.75 36.27, 73.71 74.96, 68.08 117.06 M69.95 -0.77 C69.9 34.95, 72.72 70.34, 71.11 118.26 M72.8 116.07 C48.66 116.26, 24.42 119.98, 2.66 119.37 M71.48 118.9 C43.63 122.11, 15.13 121.56, 1.73 118.65 M-2.62 121.87 C4.08 92.31, 2.81 66.75, -2.67 2.29 M0.63 121.41 C-0.69 96.01, -1.58 69.43, 1.98 0.54" stroke="#E23956" stroke-width="2" fill="none"></path></g><g transform="translate(755 84) rotate(0 35 7.200000000000003)"><text x="35" y="11.4" font-family="Cascadia, Segoe UI Emoji" font-size="12px" fill="#E23956" text-anchor="middle" style="white-space: pre;" direction="ltr">CPU 2</text></g><g stroke-linecap="round"><g transform="translate(755 125) rotate(0 35 0)"><path d="M-0.44 1.71 C11.55 2.24, 60.38 2.78, 71.89 2.3" stroke="#E23956" stroke-width="1.5" fill="none" stroke-dasharray="8 9"></path></g></g><g transform="translate(755 139) rotate(0 35 7.200000000000003)"><text x="35" y="11.4" font-family="Cascadia, Segoe UI Emoji" font-size="12px" fill="#E23956" text-anchor="middle" style="white-space: pre;" direction="ltr">Shard 2</text></g><g stroke-linecap="round" transform="translate(835 70) rotate(0 35 60)"><path d="M2 -3.78 L68.32 -2.98 L72.09 117.47 L2.8 123.47" stroke="none" stroke-width="0" fill="#F8CDD6"></path><path d="M1.3 2.41 C21.57 -1.58, 43.48 -3.49, 72.55 3.88 M-1.38 0.96 C19.78 -3.21, 40.54 -1.52, 68.12 0.96 M67.45 0.47 C66.26 32.75, 66.3 66.31, 66.33 119.15 M70.71 -1.56 C66.22 30.85, 69.41 58.1, 69.62 119.89 M73.64 120.66 C54.37 121.05, 39.93 116.08, 0.04 120.91 M68.38 120.6 C41.71 120.81, 14.84 119.92, 0.75 119.32 M1.85 117.37 C0.72 80.52, 3.73 38.96, -1.2 -1.01 M0.12 121.39 C1.49 80.33, 0.69 44.59, 1.03 0.34" stroke="#E23956" stroke-width="2" fill="none"></path></g><g transform="translate(835 84) rotate(0 35 7.200000000000003)"><text x="35" y="11.4" font-family="Cascadia, Segoe UI Emoji" font-size="12px" fill="#E23956" text-anchor="middle" style="white-space: pre;" direction="ltr">CPU 3</text></g><g stroke-linecap="round"><g transform="translate(835 125) rotate(0 35 0)"><path d="M-1.5 0.11 C10.42 0.35, 59.5 -0.95, 71.49 -1.28" stroke="#E23956" stroke-width="1.5" fill="none" stroke-dasharray="8 9"></path></g></g><g transform="translate(835 139) rotate(0 35 7.200000000000003)"><text x="35" y="11.4" font-family="Cascadia, Segoe UI Emoji" font-size="12px" fill="#E23956" text-anchor="middle" style="white-space: pre;" direction="ltr">Shard 3</text></g><g stroke-linecap="round" transform="translate(690 210) rotate(0 100 25)"><path d="M-0.89 1.65 C62.79 0.76, 119.85 0.58, 198.06 1.95 M200.48 2.39 C196.71 11.56, 201.8 25.94, 201.67 52.01 M198.24 46.83 C159.44 48.73, 121.93 52.55, 2.32 51.12 M2.95 53.3 C4.13 29.55, 3.27 9.81, -3.74 3.06" stroke="#2B1321" stroke-width="1.5" fill="none" stroke-dasharray="8 9"></path></g><g transform="translate(690 226.6) rotate(0 100 8.400000000000006)"><text x="100" y="13.3" font-family="Cascadia, Segoe UI Emoji" font-size="14px" fill="#2B1321" text-anchor="middle" style="white-space: pre;" direction="ltr">no shared state</text></g><g transform="translate(10 285) rotate(0 140 16.80000000000001)"><text x="140" y="11.9" font-family="Cascadia, Segoe UI Emoji" font-size="14px" fill="#4B7BE5" text-anchor="middle" style="white-space: pre;" direction="ltr">compute ↔ storage</text><text x="140" y="28.7" font-family="Cascadia, Segoe UI Emoji" font-size="14px" fill="#4B7BE5" text-anchor="middle" style="white-space: pre;" direction="ltr">over network</text></g><g transform="translate(330 285) rotate(0 140 16.80000000000001)"><text x="140" y="11.9" font-family="Cascadia, Segoe UI Emoji" font-size="14px" fill="#2D9B8E" text-anchor="middle" style="white-space: pre;" direction="ltr">backends contend on</text><text x="140" y="28.7" font-family="Cascadia, Segoe UI Emoji" font-size="14px" fill="#2D9B8E" text-anchor="middle" style="white-space: pre;" direction="ltr">shared memory</text></g><g transform="translate(650 285) rotate(0 140 16.80000000000001)"><text x="140" y="11.9" font-family="Cascadia, Segoe UI Emoji" font-size="14px" fill="#E23956" text-anchor="middle" style="white-space: pre;" direction="ltr">shard-per-core:</text><text x="140" y="28.7" font-family="Cascadia, Segoe UI Emoji" font-size="14px" fill="#E23956" text-anchor="middle" style="white-space: pre;" direction="ltr">no locks, no contention</text></g></svg>