<svg version="1.1" xmlns="http://www.w3.org/2000/svg" viewBox="0 0 640 436" width="640" height="436">
  <!-- svg-source:excalidraw -->
  
  <defs>
    <style>
      @font-face {
        font-family: "Virgil";
        src: url("https://excalidraw.com/Virgil.woff2");
      }
      @font-face {
        font-family: "Cascadia";
        src: url("https://excalidraw.com/Cascadia.woff2");
      }
    </style>
  </defs>
  <rect x="0" y="0" width="640" height="436" fill="transparent"></rect><g stroke-linecap="round" transform="translate(10 10) rotate(0 310 14)"><path d="M0 0 L620 0 L620 28 L0 28" stroke="none" stroke-width="0" fill="#313244"></path><path d="M0 0 C150.35 0, 300.7 0, 620 0 M0 0 C147.25 0, 294.49 0, 620 0 M620 0 C620 9.47, 620 18.94, 620 28 M620 0 C620 7.04, 620 14.09, 620 28 M620 28 C480.06 28, 340.11 28, 0 28 M620 28 C392.49 28, 164.97 28, 0 28 M0 28 C0 18.85, 0 9.7, 0 0 M0 28 C0 21.86, 0 15.72, 0 0" stroke="#45475a" stroke-width="1" fill="none"></path></g><g stroke-linecap="round" transform="translate(22 19) rotate(0 5 5)"><path d="M10 5 C10 5.29, 9.97 5.58, 9.92 5.87 C9.87 6.15, 9.8 6.44, 9.7 6.71 C9.6 6.98, 9.47 7.25, 9.33 7.5 C9.19 7.75, 9.02 7.99, 8.83 8.21 C8.64 8.44, 8.44 8.64, 8.21 8.83 C7.99 9.02, 7.75 9.19, 7.5 9.33 C7.25 9.47, 6.98 9.6, 6.71 9.7 C6.44 9.8, 6.15 9.87, 5.87 9.92 C5.58 9.97, 5.29 10, 5 10 C4.71 10, 4.42 9.97, 4.13 9.92 C3.85 9.87, 3.56 9.8, 3.29 9.7 C3.02 9.6, 2.75 9.47, 2.5 9.33 C2.25 9.19, 2.01 9.02, 1.79 8.83 C1.56 8.64, 1.36 8.44, 1.17 8.21 C0.98 7.99, 0.81 7.75, 0.67 7.5 C0.53 7.25, 0.4 6.98, 0.3 6.71 C0.2 6.44, 0.13 6.15, 0.08 5.87 C0.03 5.58, 0 5.29, 0 5 C0 4.71, 0.03 4.42, 0.08 4.13 C0.13 3.85, 0.2 3.56, 0.3 3.29 C0.4 3.02, 0.53 2.75, 0.67 2.5 C0.81 2.25, 0.98 2.01, 1.17 1.79 C1.36 1.56, 1.56 1.36, 1.79 1.17 C2.01 0.98, 2.25 0.81, 2.5 0.67 C2.75 0.53, 3.02 0.4, 3.29 0.3 C3.56 0.2, 3.85 0.13, 4.13 0.08 C4.42 0.03, 4.71 0, 5 0 C5.29 0, 5.58 0.03, 5.87 0.08 C6.15 0.13, 6.44 0.2, 6.71 0.3 C6.98 0.4, 7.25 0.53, 7.5 0.67 C7.75 0.81, 7.99 0.98, 8.21 1.17 C8.44 1.36, 8.64 1.56, 8.83 1.79 C9.02 2.01, 9.19 2.25, 9.33 2.5 C9.47 2.75, 9.6 3.02, 9.7 3.29 C9.8 3.56, 9.87 3.85, 9.92 4.13 C9.97 4.42, 9.99 4.86, 10 5 C10.01 5.14, 10.01 4.86, 10 5" stroke="none" stroke-width="0" fill="#f38ba8"></path><path d="M10 5 C10 5.29, 9.97 5.58, 9.92 5.87 C9.87 6.15, 9.8 6.44, 9.7 6.71 C9.6 6.98, 9.47 7.25, 9.33 7.5 C9.19 7.75, 9.02 7.99, 8.83 8.21 C8.64 8.44, 8.44 8.64, 8.21 8.83 C7.99 9.02, 7.75 9.19, 7.5 9.33 C7.25 9.47, 6.98 9.6, 6.71 9.7 C6.44 9.8, 6.15 9.87, 5.87 9.92 C5.58 9.97, 5.29 10, 5 10 C4.71 10, 4.42 9.97, 4.13 9.92 C3.85 9.87, 3.56 9.8, 3.29 9.7 C3.02 9.6, 2.75 9.47, 2.5 9.33 C2.25 9.19, 2.01 9.02, 1.79 8.83 C1.56 8.64, 1.36 8.44, 1.17 8.21 C0.98 7.99, 0.81 7.75, 0.67 7.5 C0.53 7.25, 0.4 6.98, 0.3 6.71 C0.2 6.44, 0.13 6.15, 0.08 5.87 C0.03 5.58, 0 5.29, 0 5 C0 4.71, 0.03 4.42, 0.08 4.13 C0.13 3.85, 0.2 3.56, 0.3 3.29 C0.4 3.02, 0.53 2.75, 0.67 2.5 C0.81 2.25, 0.98 2.01, 1.17 1.79 C1.36 1.56, 1.56 1.36, 1.79 1.17 C2.01 0.98, 2.25 0.81, 2.5 0.67 C2.75 0.53, 3.02 0.4, 3.29 0.3 C3.56 0.2, 3.85 0.13, 4.13 0.08 C4.42 0.03, 4.71 0, 5 0 C5.29 0, 5.58 0.03, 5.87 0.08 C6.15 0.13, 6.44 0.2, 6.71 0.3 C6.98 0.4, 7.25 0.53, 7.5 0.67 C7.75 0.81, 7.99 0.98, 8.21 1.17 C8.44 1.36, 8.64 1.56, 8.83 1.79 C9.02 2.01, 9.19 2.25, 9.33 2.5 C9.47 2.75, 9.6 3.02, 9.7 3.29 C9.8 3.56, 9.87 3.85, 9.92 4.13 C9.97 4.42, 9.99 4.86, 10 5 C10.01 5.14, 10.01 4.86, 10 5" stroke="#f38ba8" stroke-width="1" fill="none"></path></g><g stroke-linecap="round" transform="translate(40 19) rotate(0 5 5)"><path d="M10 5 C10 5.29, 9.97 5.58, 9.92 5.87 C9.87 6.15, 9.8 6.44, 9.7 6.71 C9.6 6.98, 9.47 7.25, 9.33 7.5 C9.19 7.75, 9.02 7.99, 8.83 8.21 C8.64 8.44, 8.44 8.64, 8.21 8.83 C7.99 9.02, 7.75 9.19, 7.5 9.33 C7.25 9.47, 6.98 9.6, 6.71 9.7 C6.44 9.8, 6.15 9.87, 5.87 9.92 C5.58 9.97, 5.29 10, 5 10 C4.71 10, 4.42 9.97, 4.13 9.92 C3.85 9.87, 3.56 9.8, 3.29 9.7 C3.02 9.6, 2.75 9.47, 2.5 9.33 C2.25 9.19, 2.01 9.02, 1.79 8.83 C1.56 8.64, 1.36 8.44, 1.17 8.21 C0.98 7.99, 0.81 7.75, 0.67 7.5 C0.53 7.25, 0.4 6.98, 0.3 6.71 C0.2 6.44, 0.13 6.15, 0.08 5.87 C0.03 5.58, 0 5.29, 0 5 C0 4.71, 0.03 4.42, 0.08 4.13 C0.13 3.85, 0.2 3.56, 0.3 3.29 C0.4 3.02, 0.53 2.75, 0.67 2.5 C0.81 2.25, 0.98 2.01, 1.17 1.79 C1.36 1.56, 1.56 1.36, 1.79 1.17 C2.01 0.98, 2.25 0.81, 2.5 0.67 C2.75 0.53, 3.02 0.4, 3.29 0.3 C3.56 0.2, 3.85 0.13, 4.13 0.08 C4.42 0.03, 4.71 0, 5 0 C5.29 0, 5.58 0.03, 5.87 0.08 C6.15 0.13, 6.44 0.2, 6.71 0.3 C6.98 0.4, 7.25 0.53, 7.5 0.67 C7.75 0.81, 7.99 0.98, 8.21 1.17 C8.44 1.36, 8.64 1.56, 8.83 1.79 C9.02 2.01, 9.19 2.25, 9.33 2.5 C9.47 2.75, 9.6 3.02, 9.7 3.29 C9.8 3.56, 9.87 3.85, 9.92 4.13 C9.97 4.42, 9.99 4.86, 10 5 C10.01 5.14, 10.01 4.86, 10 5" stroke="none" stroke-width="0" fill="#f9e2af"></path><path d="M10 5 C10 5.29, 9.97 5.58, 9.92 5.87 C9.87 6.15, 9.8 6.44, 9.7 6.71 C9.6 6.98, 9.47 7.25, 9.33 7.5 C9.19 7.75, 9.02 7.99, 8.83 8.21 C8.64 8.44, 8.44 8.64, 8.21 8.83 C7.99 9.02, 7.75 9.19, 7.5 9.33 C7.25 9.47, 6.98 9.6, 6.71 9.7 C6.44 9.8, 6.15 9.87, 5.87 9.92 C5.58 9.97, 5.29 10, 5 10 C4.71 10, 4.42 9.97, 4.13 9.92 C3.85 9.87, 3.56 9.8, 3.29 9.7 C3.02 9.6, 2.75 9.47, 2.5 9.33 C2.25 9.19, 2.01 9.02, 1.79 8.83 C1.56 8.64, 1.36 8.44, 1.17 8.21 C0.98 7.99, 0.81 7.75, 0.67 7.5 C0.53 7.25, 0.4 6.98, 0.3 6.71 C0.2 6.44, 0.13 6.15, 0.08 5.87 C0.03 5.58, 0 5.29, 0 5 C0 4.71, 0.03 4.42, 0.08 4.13 C0.13 3.85, 0.2 3.56, 0.3 3.29 C0.4 3.02, 0.53 2.75, 0.67 2.5 C0.81 2.25, 0.98 2.01, 1.17 1.79 C1.36 1.56, 1.56 1.36, 1.79 1.17 C2.01 0.98, 2.25 0.81, 2.5 0.67 C2.75 0.53, 3.02 0.4, 3.29 0.3 C3.56 0.2, 3.85 0.13, 4.13 0.08 C4.42 0.03, 4.71 0, 5 0 C5.29 0, 5.58 0.03, 5.87 0.08 C6.15 0.13, 6.44 0.2, 6.71 0.3 C6.98 0.4, 7.25 0.53, 7.5 0.67 C7.75 0.81, 7.99 0.98, 8.21 1.17 C8.44 1.36, 8.64 1.56, 8.83 1.79 C9.02 2.01, 9.19 2.25, 9.33 2.5 C9.47 2.75, 9.6 3.02, 9.7 3.29 C9.8 3.56, 9.87 3.85, 9.92 4.13 C9.97 4.42, 9.99 4.86, 10 5 C10.01 5.14, 10.01 4.86, 10 5" stroke="#f9e2af" stroke-width="1" fill="none"></path></g><g stroke-linecap="round" transform="translate(58 19) rotate(0 5 5)"><path d="M10 5 C10 5.29, 9.97 5.58, 9.92 5.87 C9.87 6.15, 9.8 6.44, 9.7 6.71 C9.6 6.98, 9.47 7.25, 9.33 7.5 C9.19 7.75, 9.02 7.99, 8.83 8.21 C8.64 8.44, 8.44 8.64, 8.21 8.83 C7.99 9.02, 7.75 9.19, 7.5 9.33 C7.25 9.47, 6.98 9.6, 6.71 9.7 C6.44 9.8, 6.15 9.87, 5.87 9.92 C5.58 9.97, 5.29 10, 5 10 C4.71 10, 4.42 9.97, 4.13 9.92 C3.85 9.87, 3.56 9.8, 3.29 9.7 C3.02 9.6, 2.75 9.47, 2.5 9.33 C2.25 9.19, 2.01 9.02, 1.79 8.83 C1.56 8.64, 1.36 8.44, 1.17 8.21 C0.98 7.99, 0.81 7.75, 0.67 7.5 C0.53 7.25, 0.4 6.98, 0.3 6.71 C0.2 6.44, 0.13 6.15, 0.08 5.87 C0.03 5.58, 0 5.29, 0 5 C0 4.71, 0.03 4.42, 0.08 4.13 C0.13 3.85, 0.2 3.56, 0.3 3.29 C0.4 3.02, 0.53 2.75, 0.67 2.5 C0.81 2.25, 0.98 2.01, 1.17 1.79 C1.36 1.56, 1.56 1.36, 1.79 1.17 C2.01 0.98, 2.25 0.81, 2.5 0.67 C2.75 0.53, 3.02 0.4, 3.29 0.3 C3.56 0.2, 3.85 0.13, 4.13 0.08 C4.42 0.03, 4.71 0, 5 0 C5.29 0, 5.58 0.03, 5.87 0.08 C6.15 0.13, 6.44 0.2, 6.71 0.3 C6.98 0.4, 7.25 0.53, 7.5 0.67 C7.75 0.81, 7.99 0.98, 8.21 1.17 C8.44 1.36, 8.64 1.56, 8.83 1.79 C9.02 2.01, 9.19 2.25, 9.33 2.5 C9.47 2.75, 9.6 3.02, 9.7 3.29 C9.8 3.56, 9.87 3.85, 9.92 4.13 C9.97 4.42, 9.99 4.86, 10 5 C10.01 5.14, 10.01 4.86, 10 5" stroke="none" stroke-width="0" fill="#a6e3a1"></path><path d="M10 5 C10 5.29, 9.97 5.58, 9.92 5.87 C9.87 6.15, 9.8 6.44, 9.7 6.71 C9.6 6.98, 9.47 7.25, 9.33 7.5 C9.19 7.75, 9.02 7.99, 8.83 8.21 C8.64 8.44, 8.44 8.64, 8.21 8.83 C7.99 9.02, 7.75 9.19, 7.5 9.33 C7.25 9.47, 6.98 9.6, 6.71 9.7 C6.44 9.8, 6.15 9.87, 5.87 9.92 C5.58 9.97, 5.29 10, 5 10 C4.71 10, 4.42 9.97, 4.13 9.92 C3.85 9.87, 3.56 9.8, 3.29 9.7 C3.02 9.6, 2.75 9.47, 2.5 9.33 C2.25 9.19, 2.01 9.02, 1.79 8.83 C1.56 8.64, 1.36 8.44, 1.17 8.21 C0.98 7.99, 0.81 7.75, 0.67 7.5 C0.53 7.25, 0.4 6.98, 0.3 6.71 C0.2 6.44, 0.13 6.15, 0.08 5.87 C0.03 5.58, 0 5.29, 0 5 C0 4.71, 0.03 4.42, 0.08 4.13 C0.13 3.85, 0.2 3.56, 0.3 3.29 C0.4 3.02, 0.53 2.75, 0.67 2.5 C0.81 2.25, 0.98 2.01, 1.17 1.79 C1.36 1.56, 1.56 1.36, 1.79 1.17 C2.01 0.98, 2.25 0.81, 2.5 0.67 C2.75 0.53, 3.02 0.4, 3.29 0.3 C3.56 0.2, 3.85 0.13, 4.13 0.08 C4.42 0.03, 4.71 0, 5 0 C5.29 0, 5.58 0.03, 5.87 0.08 C6.15 0.13, 6.44 0.2, 6.71 0.3 C6.98 0.4, 7.25 0.53, 7.5 0.67 C7.75 0.81, 7.99 0.98, 8.21 1.17 C8.44 1.36, 8.64 1.56, 8.83 1.79 C9.02 2.01, 9.19 2.25, 9.33 2.5 C9.47 2.75, 9.6 3.02, 9.7 3.29 C9.8 3.56, 9.87 3.85, 9.92 4.13 C9.97 4.42, 9.99 4.86, 10 5 C10.01 5.14, 10.01 4.86, 10 5" stroke="#a6e3a1" stroke-width="1" fill="none"></path></g><g transform="translate(10 12) rotate(0 310 13)"><text x="310" y="16.9" font-family="Cascadia, Segoe UI Emoji" font-size="11px" fill="#6c7086" text-anchor="middle" style="white-space: pre;" direction="ltr">picodata connect demo@127.0.0.1:3301</text></g><g stroke-linecap="round" transform="translate(10 38) rotate(0 310 194)"><path d="M0 0 L620 0 L620 388 L0 388" stroke="none" stroke-width="0" fill="#1e1e2e"></path><path d="M0 0 C150.38 0, 300.76 0, 620 0 M0 0 C155.63 0, 311.26 0, 620 0 M620 0 C620 121.54, 620 243.08, 620 388 M620 0 C620 130.17, 620 260.34, 620 388 M620 388 C382.89 388, 145.77 388, 0 388 M620 388 C417.83 388, 215.66 388, 0 388 M0 388 C0 234.76, 0 81.52, 0 0 M0 388 C0 288.28, 0 188.56, 0 0" stroke="#45475a" stroke-width="1" fill="none"></path></g><g transform="translate(24 52) rotate(0 296 7.5)"><text x="0" y="11.7" font-family="Cascadia, Segoe UI Emoji" font-size="12px" fill="#a6e3a1" text-anchor="start" style="white-space: pre;" direction="ltr">picodata&gt; \set language sql</text></g><g transform="translate(24 82) rotate(0 296 7.5)"><text x="0" y="11.7" font-family="Cascadia, Segoe UI Emoji" font-size="12px" fill="#a6e3a1" text-anchor="start" style="white-space: pre;" direction="ltr">picodata&gt; CREATE TABLE weather (</text></g><g transform="translate(24 97) rotate(0 296 7.5)"><text x="0" y="11.7" font-family="Cascadia, Segoe UI Emoji" font-size="12px" fill="#cdd6f4" text-anchor="start" style="white-space: pre;" direction="ltr">              city TEXT NOT NULL,</text></g><g transform="translate(24 112) rotate(0 296 7.5)"><text x="0" y="11.7" font-family="Cascadia, Segoe UI Emoji" font-size="12px" fill="#cdd6f4" text-anchor="start" style="white-space: pre;" direction="ltr">              temp DOUBLE NOT NULL,</text></g><g transform="translate(24 127) rotate(0 296 7.5)"><text x="0" y="11.7" font-family="Cascadia, Segoe UI Emoji" font-size="12px" fill="#cdd6f4" text-anchor="start" style="white-space: pre;" direction="ltr">              PRIMARY KEY (city)</text></g><g transform="translate(24 142) rotate(0 296 7.5)"><text x="0" y="11.7" font-family="Cascadia, Segoe UI Emoji" font-size="12px" fill="#cdd6f4" text-anchor="start" style="white-space: pre;" direction="ltr">          ) USING MEMTX DISTRIBUTED BY (city);</text></g><g transform="translate(24 157) rotate(0 296 7.5)"><text x="0" y="11.7" font-family="Cascadia, Segoe UI Emoji" font-size="12px" fill="#6c7086" text-anchor="start" style="white-space: pre;" direction="ltr">1</text></g><g transform="translate(24 187) rotate(0 296 7.5)"><text x="0" y="11.7" font-family="Cascadia, Segoe UI Emoji" font-size="12px" fill="#a6e3a1" text-anchor="start" style="white-space: pre;" direction="ltr">picodata&gt; INSERT INTO weather</text></g><g transform="translate(24 202) rotate(0 296 7.5)"><text x="0" y="11.7" font-family="Cascadia, Segoe UI Emoji" font-size="12px" fill="#cdd6f4" text-anchor="start" style="white-space: pre;" direction="ltr">          VALUES ('Moscow', 15.2),</text></g><g transform="translate(24 217) rotate(0 296 7.5)"><text x="0" y="11.7" font-family="Cascadia, Segoe UI Emoji" font-size="12px" fill="#cdd6f4" text-anchor="start" style="white-space: pre;" direction="ltr">                 ('Berlin', 18.7),</text></g><g transform="translate(24 232) rotate(0 296 7.5)"><text x="0" y="11.7" font-family="Cascadia, Segoe UI Emoji" font-size="12px" fill="#cdd6f4" text-anchor="start" style="white-space: pre;" direction="ltr">                 ('Tokyo', 22.1);</text></g><g transform="translate(24 247) rotate(0 296 7.5)"><text x="0" y="11.7" font-family="Cascadia, Segoe UI Emoji" font-size="12px" fill="#6c7086" text-anchor="start" style="white-space: pre;" direction="ltr">3</text></g><g transform="translate(24 277) rotate(0 296 7.5)"><text x="0" y="11.7" font-family="Cascadia, Segoe UI Emoji" font-size="12px" fill="#a6e3a1" text-anchor="start" style="white-space: pre;" direction="ltr">picodata&gt; SELECT * FROM weather ORDER BY city;</text></g><g transform="translate(24 292) rotate(0 296 7.5)"><text x="0" y="11.7" font-family="Cascadia, Segoe UI Emoji" font-size="12px" fill="#cdd6f4" text-anchor="start" style="white-space: pre;" direction="ltr">+--------+------+</text></g><g transform="translate(24 307) rotate(0 296 7.5)"><text x="0" y="11.7" font-family="Cascadia, Segoe UI Emoji" font-size="12px" fill="#cdd6f4" text-anchor="start" style="white-space: pre;" direction="ltr">| city   | temp |</text></g><g transform="translate(24 322) rotate(0 296 7.5)"><text x="0" y="11.7" font-family="Cascadia, Segoe UI Emoji" font-size="12px" fill="#cdd6f4" text-anchor="start" style="white-space: pre;" direction="ltr">+========+======+</text></g><g transform="translate(24 337) rotate(0 296 7.5)"><text x="0" y="11.7" font-family="Cascadia, Segoe UI Emoji" font-size="12px" fill="#cdd6f4" text-anchor="start" style="white-space: pre;" direction="ltr">| Berlin | 18.7 |</text></g><g transform="translate(24 352) rotate(0 296 7.5)"><text x="0" y="11.7" font-family="Cascadia, Segoe UI Emoji" font-size="12px" fill="#cdd6f4" text-anchor="start" style="white-space: pre;" direction="ltr">| Moscow | 15.2 |</text></g><g transform="translate(24 367) rotate(0 296 7.5)"><text x="0" y="11.7" font-family="Cascadia, Segoe UI Emoji" font-size="12px" fill="#cdd6f4" text-anchor="start" style="white-space: pre;" direction="ltr">| Tokyo  | 22.1 |</text></g><g transform="translate(24 382) rotate(0 296 7.5)"><text x="0" y="11.7" font-family="Cascadia, Segoe UI Emoji" font-size="12px" fill="#cdd6f4" text-anchor="start" style="white-space: pre;" direction="ltr">+--------+------+</text></g><g transform="translate(24 397) rotate(0 296 7.5)"><text x="0" y="11.7" font-family="Cascadia, Segoe UI Emoji" font-size="12px" fill="#6c7086" text-anchor="start" style="white-space: pre;" direction="ltr">(3 rows)</text></g></svg>