<svg version="1.1" xmlns="http://www.w3.org/2000/svg" viewBox="0 0 740 330" width="740" height="330">
  <!-- svg-source:excalidraw -->
  
  <defs>
    <style>
      @font-face {
        font-family: "Virgil";
        src: url("https://excalidraw.com/Virgil.woff2");
      }
      @font-face {
        font-family: "Cascadia";
        src: url("https://excalidraw.com/Cascadia.woff2");
      }
    </style>
  </defs>
  <rect x="0" y="0" width="740" height="330" fill="transparent"></rect><g transform="translate(10 10) rotate(0 110 14)"><text x="110" y="14.0" dominant-baseline="central" font-family="Cascadia, Segoe UI Emoji" font-size="18px" fill="#E23956" text-anchor="middle" style="white-space: pre;" direction="ltr">RS 1</text></g><g stroke-linecap="round" transform="translate(10 38) rotate(0 110 112)"><path d="M-0.14 1.52 L218.77 1.78 L221.1 224.35 L-0.95 222.78" stroke="none" stroke-width="0" fill="#E8EAED"></path><path d="M-0.56 -1.46 C55.17 5.11, 106.54 -0.59, 217.28 -1.51 M-1.65 -0.79 C81.73 1.91, 160.24 3.53, 218.96 0.94 M217.3 1.14 C218.88 73.53, 219.53 146.03, 221.98 227.35 M221.43 1.64 C216.99 85.48, 215.94 171.27, 220.66 224.7 M221.05 222.65 C160.36 227.54, 100.18 224.34, 0.78 223.41 M218.72 225.32 C163.93 221.77, 110.61 223.93, -0.76 224.05 M-3.22 220.57 C5.64 169.95, 0.07 115.42, -3.31 -0.53 M-0.21 223.53 C-1.22 148.33, -3.79 75.35, -0.28 0.06" stroke="#737A82" stroke-width="2" fill="none"></path></g><g stroke-linecap="round" transform="translate(24 44) rotate(0 96 11)"><path d="M1.46 -0.79 L194.95 1.03 L194.11 23.28 L2.76 18.91" stroke="none" stroke-width="0" fill="#E8EAED"></path><path d="M2.78 2.17 C47.16 0.66, 98.26 -1.5, 193.68 -0.17 M-0.5 0.14 C39.18 -2.15, 79.47 -2.55, 192.48 0.1 M195.01 2.33 C191.54 4.94, 195.06 16.25, 191.86 22.42 M190.85 -1.29 C192.49 6.87, 191.37 13.1, 190.39 20.22 M189.43 19.59 C130.35 25.14, 77.09 19.28, 0.24 19.71 M190.75 22.94 C151.81 21.61, 114.68 23.02, -1.12 22.23 M1.38 24.88 C0.39 20.36, 2.99 15.1, -1.48 2.56 M0.63 21.45 C-1.58 16.28, 1.46 11.31, 1.43 0.02" stroke="#737A82" stroke-width="1" fill="none"></path></g><g transform="translate(24 44) rotate(0 96 11)"><text x="96" y="11.0" dominant-baseline="central" font-family="Cascadia, Segoe UI Emoji" font-size="10px" fill="#737A82" text-anchor="middle" style="white-space: pre;" direction="ltr">WAREHOUSE (global)</text></g><g stroke-linecap="round" transform="translate(24 74) rotate(0 96 69)"><path d="M-3.34 2.58 L195.32 -0.49 L188.14 141.16 L2.16 139.17" stroke="none" stroke-width="0" fill="#F09CAB"></path><path d="M1.64 1.88 C44.61 -1.15, 93.78 -2.45, 195.33 2.97 M-1.69 -1.74 C55.1 1.41, 112.96 0.45, 191.84 -1.88 M191.3 -3.66 C192.97 30.97, 194.02 67.51, 194.99 139.47 M193.24 0.31 C188.26 55.41, 191.33 108.17, 193.65 139.04 M189.85 141.88 C118.56 139.43, 47.55 137.22, -1.07 140.48 M191.2 137.79 C131.21 137.48, 73.25 140.71, -1.61 138.56 M3.61 138.63 C3.61 86.3, 0.35 32.88, 3.25 0.91 M-1.63 137.44 C-0.77 93.28, -1.68 52.59, 0.96 -0.08" stroke="#E23956" stroke-width="2" fill="none"></path></g><g stroke-linecap="round" transform="translate(87 84) rotate(0 33 11)"><path d="M-1.74 0.26 L65.5 -1.24 L63.16 18.09 L-2.14 21.3" stroke="none" stroke-width="0" fill="#F09CAB"></path><path d="M-2.93 -2.26 C12.32 -0.85, 29.54 2.27, 66.16 -3.46 M-0.28 -0.68 C22.52 -0.31, 44.64 0.45, 67.52 1.13 M63.45 -2.66 C62.39 9.61, 66.21 8.38, 66.55 19.99 M64.43 1.11 C65.35 8.78, 64.5 13.89, 65.27 20.45 M68.06 25.03 C54.42 22.38, 38.29 25.99, -1.72 22.86 M65.43 21.22 C50.83 22.22, 30.38 24.37, -1.85 22.73 M0.73 21.5 C0.25 15.36, -1.95 3.95, -2.38 -3.91 M-0.76 21.43 C1.25 16.81, -1.64 13.27, -1.28 -0.12" stroke="#E23956" stroke-width="1" fill="none"></path></g><g transform="translate(87 84) rotate(0 33 11)"><text x="33" y="11.0" dominant-baseline="central" font-family="Cascadia, Segoe UI Emoji" font-size="10px" fill="#2B1321" text-anchor="middle" style="white-space: pre;" direction="ltr">CUSTOMER</text></g><g stroke-linecap="round" transform="translate(87 120) rotate(0 33 11)"><path d="M1.45 3.64 L65.86 -2.75 L65.19 19.97 L-2.73 25.56" stroke="none" stroke-width="0" fill="#F09CAB"></path><path d="M3.92 -2.55 C17.77 -0.61, 33.06 3.36, 67.81 -0.33 M-1.47 1.43 C14.48 -1.44, 30.21 -1.23, 66.87 -0.84 M67.74 -0.66 C63.25 4.99, 64.6 14.34, 69.67 21.04 M66.81 -1.28 C66.96 3.12, 66.3 8.54, 64.53 23.27 M68.48 23.32 C50.53 20.78, 32.55 20.04, -3.03 19.64 M65.88 20.07 C43.29 24.93, 19.06 24.91, 1.66 23.07 M2.97 19.25 C1.93 12.29, 1.88 7.71, 2.36 2.44 M0.98 21.41 C-1.16 14.37, 0 7.65, -1.75 -0.22" stroke="#E23956" stroke-width="2" fill="none"></path></g><g transform="translate(87 120) rotate(0 33 11)"><text x="33" y="11.0" dominant-baseline="central" font-family="Cascadia, Segoe UI Emoji" font-size="10px" fill="#2B1321" text-anchor="middle" style="white-space: pre;" direction="ltr">ORDERS</text></g><g stroke-linecap="round" transform="translate(87 156) rotate(0 33 11)"><path d="M-3.35 -0.99 L66.23 3.74 L67.22 21.84 L-3.33 21.82" stroke="none" stroke-width="0" fill="#F09CAB"></path><path d="M2.78 -2.84 C15.21 -0.38, 28.58 -3.55, 69.46 2.81 M1.34 -0.45 C19.63 1.43, 42.17 1.08, 66.23 1.18 M64.03 1.35 C64.11 3.97, 62.99 11.49, 64.8 22.08 M65.19 0.33 C65.45 5.85, 64.98 12, 67.78 22.09 M68.91 21.62 C46.63 19.17, 26.81 22.09, 3.66 24.41 M66.33 22.92 C48.94 21.01, 30.15 22.81, 1.17 23.4 M-2.8 25 C-4.38 17.23, -2.29 11.47, -0.91 0.79 M-1.27 21.4 C0.43 15.93, 1.64 6.02, 1.77 -0.32" stroke="#E23956" stroke-width="1" fill="none"></path></g><g transform="translate(87 156) rotate(0 33 11)"><text x="33" y="11.0" dominant-baseline="central" font-family="Cascadia, Segoe UI Emoji" font-size="10px" fill="#2B1321" text-anchor="middle" style="white-space: pre;" direction="ltr">STOCK</text></g><g stroke-linecap="round"><g transform="translate(120 106) rotate(0 0 7)"><path d="M-1.54 1.15 C-1.65 3.38, -2.66 9.39, -2.19 11.49 M2.82 -0.7 C3.71 1.96, 3.47 10.85, 3.02 13.75" stroke="#E23956" stroke-width="1" fill="none"></path></g></g><g stroke-linecap="round"><g transform="translate(120 142) rotate(0 0 7)"><path d="M-0.41 -2.05 C-0.07 0.81, 0.62 13.82, 0.51 16.19 M-4.07 3.01 C-3.92 5.19, -1.55 10.49, -1.46 12.37" stroke="#E23956" stroke-width="1" fill="none"></path></g></g><g transform="translate(24 186) rotate(0 96 7)"><text x="96" y="7.0" dominant-baseline="central" font-family="Cascadia, Segoe UI Emoji" font-size="11px" fill="#E23956" text-anchor="middle" style="white-space: pre;" direction="ltr">bkt 1–1000</text></g><g stroke-linecap="round" transform="translate(24 218) rotate(0 96 11)"><path d="M-3.35 3.44 L189.14 -0.04 L190.29 18.52 L-0.82 20.47" stroke="none" stroke-width="0" fill="#E8EAED"></path><path d="M3.93 0.44 C47.83 -2.83, 95.41 0.14, 195.59 2.66 M0.36 0.84 C61.86 -4.48, 122.8 -4.23, 192.62 0.24 M188.77 -1.64 C187.82 8.43, 192.53 18.38, 194.61 20.69 M193.14 0.34 C191.91 6.5, 191.92 16.24, 193.92 21.13 M191.96 25.35 C136.4 22.88, 85.44 22.93, 0.39 24.34 M193.46 20.04 C147.39 25.14, 104.47 25.52, -0.05 20.24 M-1.21 19.37 C-2.83 17.16, -3.4 12.07, 2.93 0.67 M-0.91 21.36 C0.85 14.02, 0.18 6.35, -1.41 -0.56" stroke="#737A82" stroke-width="1" fill="none"></path></g><g transform="translate(24 218) rotate(0 96 11)"><text x="96" y="11.0" dominant-baseline="central" font-family="Cascadia, Segoe UI Emoji" font-size="10px" fill="#737A82" text-anchor="middle" style="white-space: pre;" direction="ltr">ITEM (global)</text></g><g transform="translate(260 10) rotate(0 110 14)"><text x="110" y="14.0" dominant-baseline="central" font-family="Cascadia, Segoe UI Emoji" font-size="18px" fill="#E23956" text-anchor="middle" style="white-space: pre;" direction="ltr">RS 2</text></g><g stroke-linecap="round" transform="translate(260 38) rotate(0 110 112)"><path d="M1.44 -3.5 L221.69 -2.31 L221.34 223.33 L2.29 224.86" stroke="none" stroke-width="0" fill="#E8EAED"></path><path d="M-1.55 -3.46 C51.33 -1.55, 110.2 -1.34, 221.79 -0.55 M0.5 0.02 C56.16 2.68, 110.2 3.91, 221.44 1.1 M219.32 1.17 C222.16 63.5, 219.59 127.27, 222.83 220.79 M220.61 -1.08 C216.83 83.76, 217.08 167.7, 218.97 223.45 M217.05 224.68 C139.72 222.46, 52.26 223.78, -1.36 221.83 M218.39 224.28 C159.57 221.25, 96.84 222.22, -0.68 222.91 M-1.6 225.71 C-5.36 173.34, -3.08 121.46, 1.74 1.89 M1.46 223.44 C-1.43 141.1, -0.23 55.79, -0.11 -0.6" stroke="#737A82" stroke-width="2" fill="none"></path></g><g stroke-linecap="round" transform="translate(274 44) rotate(0 96 11)"><path d="M3.04 2.19 L189.87 -3.07 L194.35 22.27 L-2.01 20.99" stroke="none" stroke-width="0" fill="#E8EAED"></path><path d="M1.64 -0.14 C50.72 1.24, 94.47 -2.09, 190.89 0.94 M1.98 1.08 C55.29 -1.36, 112.97 -2.23, 191.34 0.28 M189.36 2.37 C189.53 10.79, 189.31 13.49, 192.86 22.78 M193.91 -0.45 C192.01 7.57, 192.39 14.35, 192.43 22.77 M192.81 21.93 C151.21 19.47, 111.16 18.82, -2.22 25.88 M190.37 21.75 C148.58 21.2, 102.41 21.23, -1.03 20.91 M3.26 22.87 C1.42 14.63, -2.86 2.8, -3.61 -2.63 M-1.42 21.34 C0.91 13.53, 0.34 7.9, 1.64 -0.75" stroke="#737A82" stroke-width="1" fill="none"></path></g><g transform="translate(274 44) rotate(0 96 11)"><text x="96" y="11.0" dominant-baseline="central" font-family="Cascadia, Segoe UI Emoji" font-size="10px" fill="#737A82" text-anchor="middle" style="white-space: pre;" direction="ltr">WAREHOUSE (global)</text></g><g stroke-linecap="round" transform="translate(274 74) rotate(0 96 69)"><path d="M-1.76 -2.44 L190.23 3.42 L188.38 140.14 L-2.6 141.25" stroke="none" stroke-width="0" fill="#FFCDB8"></path><path d="M0.5 -0.43 C48.17 7.11, 97.99 4.63, 192.54 -3.92 M0.8 -0.81 C71.21 2.19, 146.46 0.78, 190.69 -1.7 M193.65 -3.63 C189.16 51.8, 194.47 110.68, 195.98 139.83 M192.29 1.16 C191.96 54.8, 188.53 106.79, 191.69 137.58 M193.23 136.22 C139.42 133.76, 89.62 136.76, -3.53 138.65 M190.82 136.6 C127.98 137.07, 60.97 138.93, -1.51 137.24 M-2.51 136.62 C0.93 87.53, -1.21 42.5, 1.13 3.72 M0.32 137.32 C-1.55 89.84, 1.92 39.77, 1.17 -0.84" stroke="#FF611D" stroke-width="2" fill="none"></path></g><g stroke-linecap="round" transform="translate(337 84) rotate(0 33 11)"><path d="M-0.16 3.25 L68.42 2.66 L63.39 25.07 L1.1 23.38" stroke="none" stroke-width="0" fill="#FFCDB8"></path><path d="M3.93 3.42 C15.87 0.96, 33.71 2.9, 63.37 -2.35 M-1.8 0.25 C14.94 0.01, 30.76 0.32, 66.37 1.31 M65.8 -2.63 C69.26 7.47, 69.34 13.62, 67.54 20.35 M67.48 1.96 C64.87 5.48, 65.53 15.14, 67.31 22.99 M63.44 19.37 C49.67 25.57, 29.14 18.4, 3.81 21.04 M65.05 20.02 C47.28 22.66, 29.46 23.43, -1.76 21.41 M2.61 19.49 C0.4 14.03, -0.67 8.44, 3.5 -1.1 M1.19 21.31 C-0.26 14.07, 1.24 9.86, -1.07 -0.89" stroke="#FF611D" stroke-width="1" fill="none"></path></g><g transform="translate(337 84) rotate(0 33 11)"><text x="33" y="11.0" dominant-baseline="central" font-family="Cascadia, Segoe UI Emoji" font-size="10px" fill="#2B1321" text-anchor="middle" style="white-space: pre;" direction="ltr">CUSTOMER</text></g><g stroke-linecap="round" transform="translate(337 120) rotate(0 33 11)"><path d="M3.04 -1.38 L68.78 1.15 L65.42 18.95 L0.5 19.64" stroke="none" stroke-width="0" fill="#FFCDB8"></path><path d="M2.79 3.14 C13.31 1.19, 29.23 -4.01, 65.02 0.78 M1.01 -1.63 C20.1 -1.12, 38.73 -1.37, 65.73 -0.66 M62.09 -0.62 C70.12 2.85, 67.73 11.57, 62.67 21.4 M65.86 -0.43 C66.48 8.22, 67.33 18.59, 66.57 21.81 M63.86 25.66 C45.77 23.97, 15.4 20.45, 2.5 25.81 M65.5 22.87 C39.74 21.37, 14.15 23.98, 1.75 21.74 M-3.15 25.24 C2.97 18.96, 4.03 12.2, 0.23 -2.75 M-1.07 21.3 C1.33 15.63, -1.12 8.23, -1.55 -0.99" stroke="#FF611D" stroke-width="2" fill="none"></path></g><g transform="translate(337 120) rotate(0 33 11)"><text x="33" y="11.0" dominant-baseline="central" font-family="Cascadia, Segoe UI Emoji" font-size="10px" fill="#2B1321" text-anchor="middle" style="white-space: pre;" direction="ltr">ORDERS</text></g><g stroke-linecap="round" transform="translate(337 156) rotate(0 33 11)"><path d="M-1.77 1.99 L69.14 -0.36 L67.45 20.82 L-0.09 23.9" stroke="none" stroke-width="0" fill="#FFCDB8"></path><path d="M1.65 2.85 C18.76 4.07, 32.75 -0.28, 66.67 3.92 M-0.18 0.49 C25.25 -2.25, 50.69 0.94, 65.09 1.36 M66.38 1.38 C62.98 6.23, 66.12 17.53, 65.79 22.44 M64.24 1.17 C64.97 6.56, 66.01 13.25, 65.82 20.63 M64.29 23.96 C47.08 22.37, 36.06 22.5, 1.2 22.58 M65.95 21.72 C45.39 21.45, 25.23 21.88, 1.27 22.08 M-0.92 22.99 C-3.35 15.9, -0.14 15.96, -3.04 3.6 M0.68 21.29 C-1.08 13.18, 0.52 6.6, 1.98 -1.08" stroke="#FF611D" stroke-width="1" fill="none"></path></g><g transform="translate(337 156) rotate(0 33 11)"><text x="33" y="11.0" dominant-baseline="central" font-family="Cascadia, Segoe UI Emoji" font-size="10px" fill="#2B1321" text-anchor="middle" style="white-space: pre;" direction="ltr">STOCK</text></g><g stroke-linecap="round"><g transform="translate(370 106) rotate(0 0 7)"><path d="M-0.18 0.35 C0.37 2.33, 2.2 11.25, 1.79 13.96 M-3.73 -1.92 C-3.25 0.33, -0.55 15.16, 0.52 17.57" stroke="#FF611D" stroke-width="1" fill="none"></path></g></g><g stroke-linecap="round"><g transform="translate(370 142) rotate(0 0 7)"><path d="M0.95 2.75 C1.02 5.35, -1.05 11.01, -1.11 13.07 M-1.97 1.78 C-2.25 5, -4.14 14.8, -3.95 16.19" stroke="#FF611D" stroke-width="1" fill="none"></path></g></g><g transform="translate(274 186) rotate(0 96 7)"><text x="96" y="7.0" dominant-baseline="central" font-family="Cascadia, Segoe UI Emoji" font-size="11px" fill="#FF611D" text-anchor="middle" style="white-space: pre;" direction="ltr">bkt 1001–2000</text></g><g stroke-linecap="round" transform="translate(274 218) rotate(0 96 11)"><path d="M-1.77 -1.57 L192.05 3.86 L190.53 25.5 L2.42 22.55" stroke="none" stroke-width="0" fill="#E8EAED"></path><path d="M2.79 -1.88 C43.4 5.43, 91.62 7.22, 192.8 3.77 M-1.15 1.78 C39.58 -3.69, 79.5 -3.9, 191.48 0.42 M191.12 -1.6 C194.69 6.29, 195.65 15.61, 195.6 21.06 M192.19 1.19 C191.43 7.2, 192.95 13.49, 191.96 23.67 M195.34 19.69 C118.85 17.21, 42.71 22.47, -2.07 22.51 M193.08 22.85 C144.16 24.73, 92.2 23.73, 0.04 22.92 M0.67 25.36 C-1.8 15.83, -1.24 8.57, 0.8 3.48 M1.04 21.25 C-0.66 15.68, -0.95 11.74, -1.2 -1.32" stroke="#737A82" stroke-width="1" fill="none"></path></g><g transform="translate(274 218) rotate(0 96 11)"><text x="96" y="11.0" dominant-baseline="central" font-family="Cascadia, Segoe UI Emoji" font-size="10px" fill="#737A82" text-anchor="middle" style="white-space: pre;" direction="ltr">ITEM (global)</text></g><g transform="translate(510 10) rotate(0 110 14)"><text x="110" y="14.0" dominant-baseline="central" font-family="Cascadia, Segoe UI Emoji" font-size="18px" fill="#E23956" text-anchor="middle" style="white-space: pre;" direction="ltr">RS 3</text></g><g stroke-linecap="round" transform="translate(510 38) rotate(0 110 112)"><path d="M3.02 -0.51 L216.6 1.59 L221.57 222.31 L-2.47 226.94" stroke="none" stroke-width="0" fill="#E8EAED"></path><path d="M-2.53 1.47 C54.43 -1.28, 106.93 -2.09, 219.37 0.41 M-0.81 0.83 C74.58 3.45, 148.16 4.28, 220.45 1.26 M221.34 1.21 C217.74 53.47, 218.83 108.51, 216.81 221.1 M219.8 -0.35 C216.67 82.04, 218.22 160.68, 220.73 225.63 M219.98 226.71 C156.14 224.31, 99.27 223.21, 3.43 227.18 M221.53 223.24 C151.73 228.36, 83.07 228.14, -0.6 225.23 M0.02 223.98 C-1.78 176.73, 1.47 134.39, -0.08 -2.58 M-0.3 223.34 C-1.64 175.23, -0.11 129.28, 0.07 -1.26" stroke="#737A82" stroke-width="2" fill="none"></path></g><g stroke-linecap="round" transform="translate(524 44) rotate(0 96 11)"><path d="M-3.38 -2.83 L192.78 0.84 L194.59 21.25 L1.23 23.07" stroke="none" stroke-width="0" fill="#E8EAED"></path><path d="M0.51 -2.45 C46.29 -6.18, 90.67 -2.69, 188.1 2.05 M0.47 -1.99 C71.4 -0.58, 142.47 2.1, 190.19 0.46 M191.7 2.4 C188.4 8.65, 192.44 10.72, 193.85 23.15 M192.96 0.4 C191.54 8.28, 193.42 11.6, 190.47 21.31 M188.19 24.27 C133.66 21.79, 76.43 18.36, 3.31 24.06 M193.99 20.55 C141.35 16.79, 90.13 19.45, -0.93 23.58 M-2.86 20.85 C2.45 13.3, -0.7 7.29, 2.27 0.18 M0.52 21.22 C-0.6 14.79, -0.79 8.48, 1.85 -1.51" stroke="#737A82" stroke-width="1" fill="none"></path></g><g transform="translate(524 44) rotate(0 96 11)"><text x="96" y="11.0" dominant-baseline="central" font-family="Cascadia, Segoe UI Emoji" font-size="10px" fill="#737A82" text-anchor="middle" style="white-space: pre;" direction="ltr">WAREHOUSE (global)</text></g><g stroke-linecap="round" transform="translate(524 74) rotate(0 96 69)"><path d="M-0.18 0.55 L193.15 -0.67 L188.62 139.12 L0.63 135.33" stroke="none" stroke-width="0" fill="#C8E6D4"></path><path d="M-0.63 -2.74 C43.73 -0.31, 94.2 4.04, 189.75 -2.81 M-0.72 0.13 C48.92 2.98, 99.16 1.1, 193.55 -1.52 M196 -3.59 C190.87 45.02, 192.44 98.65, 188.98 140.19 M191.34 -2 C191.65 50.19, 189.72 101.41, 193.73 136.13 M188.61 138.56 C121.87 136.08, 46.88 136.3, 2 136.83 M190.44 139.4 C120.75 136.66, 52.7 137.14, -1.42 139.92 M-0.62 134.6 C-4.24 96.77, 2.74 52.12, -1 -1.47 M-1.73 137.21 C1.66 82.4, 1.52 26.96, 1.37 -1.61" stroke="#1A6B3C" stroke-width="2" fill="none"></path></g><g stroke-linecap="round" transform="translate(587 84) rotate(0 33 11)"><path d="M1.42 -1.77 L63.33 -1.43 L63.63 24.05 L-3.67 25.46" stroke="none" stroke-width="0" fill="#C8E6D4"></path><path d="M2.8 1.11 C19.41 2.76, 29.88 3.53, 68.58 -1.25 M0.69 1.19 C20.56 0.33, 39.28 0.18, 65.23 1.49 M68.15 -2.59 C67.25 9.73, 63.58 19.65, 68.54 20.71 M66.53 -1.19 C64.39 6.18, 66.56 12.39, 65.35 21.54 M66.82 21.71 C50.11 20.76, 38.39 18.8, 1.35 19.21 M64.67 22.82 C43.73 23.1, 24.54 22.5, -1.66 20.09 M-3.51 25.48 C1.43 12.7, 1.48 12.93, 1.37 1.71 M-0.86 21.2 C1.35 15.33, -0.77 6.44, -0.86 -1.66" stroke="#1A6B3C" stroke-width="1" fill="none"></path></g><g transform="translate(587 84) rotate(0 33 11)"><text x="33" y="11.0" dominant-baseline="central" font-family="Cascadia, Segoe UI Emoji" font-size="10px" fill="#2B1321" text-anchor="middle" style="white-space: pre;" direction="ltr">CUSTOMER</text></g><g stroke-linecap="round" transform="translate(587 120) rotate(0 33 11)"><path d="M-3.38 1.61 L63.69 -2.94 L65.66 25.93 L3.74 21.72" stroke="none" stroke-width="0" fill="#C8E6D4"></path><path d="M1.65 0.82 C16.86 -5.01, 33.4 -3.38, 62.23 1.89 M-0.5 -0.7 C25.72 -0.8, 51.25 -1.51, 64.59 -0.48 M64.44 -0.58 C68.11 8.71, 61.97 8.8, 63.66 21.76 M64.91 0.41 C66 8.92, 64.36 15.84, 64.61 20.35 M67.24 20 C46.22 19.16, 32.65 20.85, 0.04 23.99 M65.12 21.67 C49.39 21.81, 35.63 23.04, 1.85 20.42 M-1.27 23.22 C3.12 17.63, -2.69 8.69, -1.89 0.06 M0.88 21.19 C-0.18 12.88, 1.75 4.82, -1.34 -1.75" stroke="#1A6B3C" stroke-width="2" fill="none"></path></g><g transform="translate(587 120) rotate(0 33 11)"><text x="33" y="11.0" dominant-baseline="central" font-family="Cascadia, Segoe UI Emoji" font-size="10px" fill="#2B1321" text-anchor="middle" style="white-space: pre;" direction="ltr">ORDERS</text></g><g stroke-linecap="round" transform="translate(587 156) rotate(0 33 11)"><path d="M-0.19 -3.02 L64.06 3.55 L67.69 19.8 L3.14 25.98" stroke="none" stroke-width="0" fill="#C8E6D4"></path><path d="M0.51 0.54 C14.3 -2.13, 28.92 0.35, 63.88 -2.97 M-1.69 1.42 C17.67 -1.93, 36.81 0.8, 67.94 1.54 M68.73 1.42 C68.97 4.09, 68.36 14.76, 66.79 22.8 M67.29 -1.98 C64.49 7.26, 67.04 10.5, 67.86 23.17 M67.66 18.3 C42.33 17.56, 18.91 22.91, -1.27 20.76 M65.57 20.52 C45.84 24.53, 24.32 23.58, 1.36 20.76 M0.96 20.97 C-2.32 10.17, 2.02 3.65, 2.84 -1.59 M-1.37 21.17 C1.41 18.84, -0.61 11.99, -1.81 -1.85" stroke="#1A6B3C" stroke-width="1" fill="none"></path></g><g transform="translate(587 156) rotate(0 33 11)"><text x="33" y="11.0" dominant-baseline="central" font-family="Cascadia, Segoe UI Emoji" font-size="10px" fill="#2B1321" text-anchor="middle" style="white-space: pre;" direction="ltr">STOCK</text></g><g stroke-linecap="round"><g transform="translate(620 106) rotate(0 0 7)"><path d="M1.18 -0.44 C1.45 2.2, 0.52 14.04, 0.17 16.44 M-1.63 -3.15 C-1.57 -1.29, -1.7 9.39, -1.97 12.75" stroke="#1A6B3C" stroke-width="1" fill="none"></path></g></g><g stroke-linecap="round"><g transform="translate(620 142) rotate(0 0 7)"><path d="M2.31 1.96 C2.11 4.3, -2.73 13.81, -2.73 15.54 M0.12 0.55 C0.87 1.94, 1.92 9.03, 2.19 11.37" stroke="#1A6B3C" stroke-width="1" fill="none"></path></g></g><g transform="translate(524 186) rotate(0 96 7)"><text x="96" y="7.0" dominant-baseline="central" font-family="Cascadia, Segoe UI Emoji" font-size="11px" fill="#1A6B3C" text-anchor="middle" style="white-space: pre;" direction="ltr">bkt 2001–3000</text></g><g stroke-linecap="round" transform="translate(524 218) rotate(0 96 11)"><path d="M-0.19 1.41 L194.97 -0.23 L190.76 24.48 L-2.35 24.63" stroke="none" stroke-width="0" fill="#E8EAED"></path><path d="M1.66 3.81 C46.96 -1.98, 95.83 -1.37, 190.01 -3.12 M1.33 -1.29 C55.69 -2.91, 109 0.43, 190.33 0.6 M193.47 -1.57 C192.67 4.15, 189.9 12.84, 188.6 21.42 M191.25 -1.97 C190.96 7.9, 189.97 14.74, 190 22.22 M190.72 22.03 C139.71 19.54, 84.78 22.01, 3.46 20.69 M192.71 21.65 C136.93 20.32, 83.93 21.95, 0.14 21.59 M2.55 23.34 C-1.65 14.5, 0.03 13.06, -1.32 -1.71 M-1.01 21.14 C1.83 16.93, 1.93 8.32, -1 1.91" stroke="#737A82" stroke-width="1" fill="none"></path></g><g transform="translate(524 218) rotate(0 96 11)"><text x="96" y="11.0" dominant-baseline="central" font-family="Cascadia, Segoe UI Emoji" font-size="10px" fill="#737A82" text-anchor="middle" style="white-space: pre;" direction="ltr">ITEM (global)</text></g><g transform="translate(10 278) rotate(0 360 10)"><text x="0" y="10.0" dominant-baseline="central" font-family="Cascadia, Segoe UI Emoji" font-size="14px" fill="#2B1321" text-anchor="start" style="white-space: pre;" direction="ltr">• co-distributed tables → JOIN locally, zero network hops</text></g><g transform="translate(10 300) rotate(0 360 10)"><text x="0" y="10.0" dominant-baseline="central" font-family="Cascadia, Segoe UI Emoji" font-size="14px" fill="#2B1321" text-anchor="start" style="white-space: pre;" direction="ltr">• global tables → dimension data available on every node</text></g></svg>