<svg version="1.1" xmlns="http://www.w3.org/2000/svg" viewBox="0 0 680 258" width="680" height="258">
  <!-- svg-source:excalidraw -->
  
  <defs>
    <style>
      @font-face {
        font-family: "Virgil";
        src: url("https://excalidraw.com/Virgil.woff2");
      }
      @font-face {
        font-family: "Cascadia";
        src: url("https://excalidraw.com/Cascadia.woff2");
      }
    </style>
  </defs>
  <rect x="0" y="0" width="680" height="258" fill="transparent"></rect><g stroke-linecap="round" transform="translate(10 10) rotate(0 100 90)"><path d="M-1.74 3.83 L202.59 2.54 L200.08 179.41 L3.35 180.65" stroke="none" stroke-width="0" fill="#E8EAED"></path><path d="M3.53 2.21 C51.44 -4.83, 98.64 -0.35, 200.03 -2.98 M0.62 -1.78 C64.31 -1.63, 128.13 -1.49, 201.01 -1.73 M198.71 0.33 C198.49 55.88, 196.48 102.94, 196.74 179.38 M200.47 1.1 C201.06 43.27, 203.75 87.92, 199.14 179.4 M197.3 179.37 C148.48 177.19, 102.67 183.03, 1.4 180.84 M198.47 178.28 C139.64 176.07, 78.63 179.29, -0.57 179.9 M-0.86 177.13 C-1.02 130.34, -0.57 83.16, 1.78 -3.79 M-1.12 179.46 C2.68 144.34, 1.67 106.17, 1.91 0.11" stroke="#737A82" stroke-width="2" fill="none"></path></g><g transform="translate(10 14) rotate(0 100 10)"><text x="100" y="15.6" font-family="Cascadia, Segoe UI Emoji" font-size="16px" fill="#2B1321" text-anchor="middle" style="white-space: pre;" direction="ltr">RS 1</text></g><g transform="translate(10 34) rotate(0 100 8)"><text x="100" y="11.8" font-family="Cascadia, Segoe UI Emoji" font-size="11px" fill="#737A82" text-anchor="middle" style="white-space: pre;" direction="ltr">WAREHOUSE (global)</text></g><g stroke-linecap="round" transform="translate(24 66) rotate(0 86 55)"><path d="M3.06 -3.11 L171.14 0.27 L175.13 112.22 L-1.54 113.04" stroke="none" stroke-width="0" fill="#F09CAB"></path><path d="M-1.79 -1.98 C40.96 -4.16, 86.18 -1.89, 170.51 1.4 M0.9 1.2 C44.1 1.15, 86.13 2.47, 170.16 -0.89 M173.15 3.33 C174.07 45.67, 172.35 89.31, 169.43 106.95 M172.04 -0.49 C174.75 28.75, 173.72 55.85, 172.02 109.63 M173.64 106.74 C115.23 112.24, 51.86 112.2, -0.41 106.09 M170.97 110.37 C109.43 111.54, 49.81 111.86, -1.36 110.4 M-1.5 111.76 C-2.79 63.79, 0.87 26.92, 0.89 -2.26 M1.5 109.44 C1.23 68.75, 2.29 25.89, -0.8 -0.03" stroke="#E23956" stroke-width="2" fill="none"></path></g><g transform="translate(24 72) rotate(0 86 9)"><text x="86" y="13.6" font-family="Cascadia, Segoe UI Emoji" font-size="13px" fill="#2B1321" text-anchor="middle" style="white-space: pre;" direction="ltr">ORDERS</text></g><g transform="translate(24 92) rotate(0 86 9)"><text x="86" y="13.6" font-family="Cascadia, Segoe UI Emoji" font-size="13px" fill="#2B1321" text-anchor="middle" style="white-space: pre;" direction="ltr">CUSTOMER</text></g><g transform="translate(24 114) rotate(0 86 7)"><text x="86" y="10.5" font-family="Cascadia, Segoe UI Emoji" font-size="10px" fill="#737A82" text-anchor="middle" style="white-space: pre;" direction="ltr">(co-distributed)</text></g><g transform="translate(24 158) rotate(0 86 8)"><text x="86" y="11.8" font-family="Cascadia, Segoe UI Emoji" font-size="11px" fill="#E23956" text-anchor="middle" style="white-space: pre;" direction="ltr">buckets 1–3</text></g><g stroke-linecap="round" transform="translate(240 10) rotate(0 100 90)"><path d="M3.05 1.32 L196.05 -3.51 L200.2 178.9 L0.97 181.69" stroke="none" stroke-width="0" fill="#E8EAED"></path><path d="M-0.58 1.17 C49.44 2.59, 96.94 -4.25, 198.77 1.12 M-0.06 -1.36 C54.5 0.54, 107.27 2.27, 198.7 -1.65 M199.89 0.35 C203.86 69.65, 199.98 135.25, 201.24 183.56 M202 -0.48 C197.34 60.73, 200.78 122.76, 200.16 178.68 M198.83 180.42 C139.21 178.21, 84.28 182.79, -3.31 176.42 M200.1 181.34 C137.79 175.86, 74.11 178.46, 1.28 181.11 M0.08 176.13 C0.72 131.42, 1.74 84.9, -3.28 -2.39 M1.86 179.41 C2.42 139.76, 1.6 98.06, 0.01 -0.27" stroke="#737A82" stroke-width="2" fill="none"></path></g><g transform="translate(240 14) rotate(0 100 10)"><text x="100" y="15.6" font-family="Cascadia, Segoe UI Emoji" font-size="16px" fill="#2B1321" text-anchor="middle" style="white-space: pre;" direction="ltr">RS 2</text></g><g transform="translate(240 34) rotate(0 100 8)"><text x="100" y="11.8" font-family="Cascadia, Segoe UI Emoji" font-size="11px" fill="#737A82" text-anchor="middle" style="white-space: pre;" direction="ltr">WAREHOUSE (global)</text></g><g stroke-linecap="round" transform="translate(254 66) rotate(0 86 55)"><path d="M-0.15 2.38 L172.59 2.22 L175.25 111.71 L-3.92 106.08" stroke="none" stroke-width="0" fill="#FFCDB8"></path><path d="M1.64 -3.13 C38.74 3.67, 84.28 1.35, 169.11 -2.05 M0.15 1.67 C66.52 0.07, 133.62 -0.84, 171.59 -0.8 M174.33 3.35 C170.58 31.84, 175 58.42, 173.92 111.13 M173.57 1.93 C172.38 39.6, 172.1 77.48, 173.04 108.9 M175.33 107.91 C107.47 113.47, 36.53 112.04, 2.35 109.18 M172.78 109.77 C108.11 111.4, 46.25 111.03, 0.68 111.74 M-0.56 110.75 C-1.59 64.1, 2.63 27.11, 3.82 -0.86 M0.47 109.39 C-3.65 87.6, -2.39 64.62, 1.3 -0.41" stroke="#FF611D" stroke-width="2" fill="none"></path></g><g transform="translate(254 72) rotate(0 86 9)"><text x="86" y="13.6" font-family="Cascadia, Segoe UI Emoji" font-size="13px" fill="#2B1321" text-anchor="middle" style="white-space: pre;" direction="ltr">ORDERS</text></g><g transform="translate(254 92) rotate(0 86 9)"><text x="86" y="13.6" font-family="Cascadia, Segoe UI Emoji" font-size="13px" fill="#2B1321" text-anchor="middle" style="white-space: pre;" direction="ltr">CUSTOMER</text></g><g transform="translate(254 114) rotate(0 86 7)"><text x="86" y="10.5" font-family="Cascadia, Segoe UI Emoji" font-size="10px" fill="#737A82" text-anchor="middle" style="white-space: pre;" direction="ltr">(co-distributed)</text></g><g transform="translate(254 158) rotate(0 86 8)"><text x="86" y="11.8" font-family="Cascadia, Segoe UI Emoji" font-size="11px" fill="#FF611D" text-anchor="middle" style="white-space: pre;" direction="ltr">buckets 4–6</text></g><g stroke-linecap="round" transform="translate(470 10) rotate(0 100 90)"><path d="M-0.16 -1.18 L197.5 -1.56 L200.32 178.39 L-1.41 182.73" stroke="none" stroke-width="0" fill="#E8EAED"></path><path d="M2.51 0.13 C47.45 2.82, 95.24 -0.95, 197.52 -1.98 M-0.74 -0.94 C41.08 -0.89, 82.81 -1.17, 199.98 -1.57 M201.06 0.36 C194.03 47.43, 196.28 87.56, 197.73 179.74 M199.52 1.95 C200.81 42.18, 201.01 85.59, 201.18 181.95 M200.35 181.48 C129.93 179.23, 58.69 182.56, -0.82 179.2 M201.72 180.81 C132.34 182.85, 69.6 184.84, -0.48 178.71 M1.02 183.12 C2.46 132.5, 4.04 86.64, -0.34 -0.98 M0.83 179.35 C2.16 135.19, 1.53 89.95, -1.89 -0.65" stroke="#737A82" stroke-width="2" fill="none"></path></g><g transform="translate(470 14) rotate(0 100 10)"><text x="100" y="15.6" font-family="Cascadia, Segoe UI Emoji" font-size="16px" fill="#2B1321" text-anchor="middle" style="white-space: pre;" direction="ltr">RS 3</text></g><g transform="translate(470 34) rotate(0 100 8)"><text x="100" y="11.8" font-family="Cascadia, Segoe UI Emoji" font-size="11px" fill="#737A82" text-anchor="middle" style="white-space: pre;" direction="ltr">WAREHOUSE (global)</text></g><g stroke-linecap="round" transform="translate(484 66) rotate(0 86 55)"><path d="M-3.36 -0.12 L174.05 -3.82 L175.36 111.2 L1.69 107.12" stroke="none" stroke-width="0" fill="#C8E6D4"></path><path d="M-2.93 3.71 C44.52 -3.39, 82.38 -2.29, 175.72 2.51 M-0.61 -1.87 C58.54 1.86, 116.3 2.72, 173.02 -0.71 M175.5 3.37 C175.1 40.01, 169.64 79.52, 170.42 107.31 M171.1 0.36 C174.4 28.46, 174.88 55.11, 170.06 108.18 M169.02 109.08 C134.11 106.7, 89.99 111.88, -2.88 112.27 M170.6 109.17 C106.79 107.26, 38.7 110.21, -1.27 109.07 M0.38 109.74 C-0.4 72.41, 4.39 27.3, -1.24 0.55 M-0.55 109.33 C-0.13 84.44, -2.68 59.34, -0.6 -0.8" stroke="#1A6B3C" stroke-width="2" fill="none"></path></g><g transform="translate(484 72) rotate(0 86 9)"><text x="86" y="13.6" font-family="Cascadia, Segoe UI Emoji" font-size="13px" fill="#2B1321" text-anchor="middle" style="white-space: pre;" direction="ltr">ORDERS</text></g><g transform="translate(484 92) rotate(0 86 9)"><text x="86" y="13.6" font-family="Cascadia, Segoe UI Emoji" font-size="13px" fill="#2B1321" text-anchor="middle" style="white-space: pre;" direction="ltr">CUSTOMER</text></g><g transform="translate(484 114) rotate(0 86 7)"><text x="86" y="10.5" font-family="Cascadia, Segoe UI Emoji" font-size="10px" fill="#737A82" text-anchor="middle" style="white-space: pre;" direction="ltr">(co-distributed)</text></g><g transform="translate(484 158) rotate(0 86 8)"><text x="86" y="11.8" font-family="Cascadia, Segoe UI Emoji" font-size="11px" fill="#1A6B3C" text-anchor="middle" style="white-space: pre;" direction="ltr">buckets 7–9</text></g><g transform="translate(10 206) rotate(0 330 10)"><text x="0" y="14.9" font-family="Cascadia, Segoe UI Emoji" font-size="14px" fill="#2B1321" text-anchor="start" style="white-space: pre;" direction="ltr">• co-distributed tables → JOIN locally, zero network hops</text></g><g transform="translate(10 228) rotate(0 330 10)"><text x="0" y="14.9" font-family="Cascadia, Segoe UI Emoji" font-size="14px" fill="#2B1321" text-anchor="start" style="white-space: pre;" direction="ltr">• global tables → dimension data available on every node</text></g></svg>