<svg version="1.1" xmlns="http://www.w3.org/2000/svg" viewBox="0 0 640 278" width="640" height="278">
  <!-- svg-source:excalidraw -->
  
  <defs>
    <style>
      @font-face {
        font-family: "Virgil";
        src: url("https://excalidraw.com/Virgil.woff2");
      }
      @font-face {
        font-family: "Cascadia";
        src: url("https://excalidraw.com/Cascadia.woff2");
      }
    </style>
  </defs>
  <rect x="0" y="0" width="640" height="278" fill="transparent"></rect><g stroke-linecap="round" transform="translate(10 34) rotate(0 120 65)"><path d="M-0.03 0.38 L241.98 1.05 L241.63 130.16 L-0.26 133.75" stroke="none" stroke-width="0" fill="#DBE6FA"></path><path d="M2.81 -0.67 C71.06 4.71, 138.18 2.01, 237.81 -3.17 M-0.73 0.53 C64.79 -1.88, 128.48 -2.27, 239.03 1.63 M238.96 -1.1 C236.98 29.26, 234.85 62.71, 240.49 126.44 M238.18 -0.96 C237.72 43.39, 239.87 83.88, 239.98 129.13 M238.85 129.29 C173.34 128.57, 103.55 130.07, 1.79 127.88 M239.78 128.4 C144.53 134.48, 53.14 133.81, 0.91 130.19 M3.02 131.19 C-0.61 89.48, -1.53 41.24, 2.12 3.44 M-0.2 128.5 C2.12 84.58, -0.46 43.7, -1.52 -1.81" stroke="#4B7BE5" stroke-width="2" fill="none"></path></g><g transform="translate(10 38) rotate(0 120 10)"><text x="120" y="15.2" font-family="Cascadia, Segoe UI Emoji" font-size="15px" fill="#4B7BE5" text-anchor="middle" style="white-space: pre;" direction="ltr">Production cluster</text></g><g stroke-linecap="round" transform="translate(30 66) rotate(0 30 20)"><path d="M1.58 1.88 L61.17 -0.23 L61.83 41.02 L-0.43 40.01" stroke="none" stroke-width="0" fill="#A8C4F0"></path><path d="M1.11 -0.55 C16.68 1.57, 35.31 0.37, 59.51 -0.33 M0.97 -0.62 C21.08 -0.83, 42.33 0.67, 59.1 -0.01 M61.63 0.45 C59.8 12.19, 61.5 26.08, 61.81 38.74 M60.28 0.32 C60.72 15.07, 59.89 31.68, 59.62 40.97 M59.52 38.72 C40.12 38.81, 19.38 41.54, 0.42 41.11 M60.09 40.47 C43.08 39.21, 24.5 39.72, 0.3 40.28 M-1.37 39.47 C-0.31 28.03, 0.3 17.14, -0.57 0.9 M0.77 39.24 C-0.35 24.94, 0.38 7.79, -1 -0.95" stroke="#4B7BE5" stroke-width="1" fill="none"></path></g><g transform="translate(30 66) rotate(0 30 20)"><text x="30" y="23.9" font-family="Cascadia, Segoe UI Emoji" font-size="11px" fill="#4B7BE5" text-anchor="middle" style="white-space: pre;" direction="ltr">RS 1</text></g><g stroke-linecap="round" transform="translate(102 66) rotate(0 30 20)"><path d="M-0.82 -0.44 L61.35 -0.99 L58.84 41.95 L-0.72 38.14" stroke="none" stroke-width="0" fill="#A8C4F0"></path><path d="M0.54 -0.69 C19.4 -2.27, 37.07 0.96, 60.34 1.23 M0.37 0.43 C13.96 0.59, 28.93 -0.19, 60.78 1 M59.77 1.45 C60.26 15.92, 60.73 29.12, 59.37 39.27 M59.47 -0.87 C59.39 10.57, 60.66 21.68, 59.25 40.38 M59.73 41.87 C48.48 38.01, 33.12 38.57, -0.23 39.5 M60.32 39.89 C36.51 40.54, 11.24 39.97, 0.06 40.45 M-0.25 38.34 C1.17 32.02, -1.15 22.08, 1.79 0.07 M-0.36 39.24 C0.36 30.12, -0.88 19.78, 0.76 -1" stroke="#4B7BE5" stroke-width="1" fill="none"></path></g><g transform="translate(102 66) rotate(0 30 20)"><text x="30" y="23.9" font-family="Cascadia, Segoe UI Emoji" font-size="11px" fill="#4B7BE5" text-anchor="middle" style="white-space: pre;" direction="ltr">RS 2</text></g><g stroke-linecap="round" transform="translate(174 66) rotate(0 30 20)"><path d="M0.78 1.25 L61.53 -1.74 L59.86 38.89 L-1.02 40.27" stroke="none" stroke-width="0" fill="#A8C4F0"></path><path d="M-0.03 -0.83 C18.12 -0.9, 34.83 -1.24, 61.16 -1.2 M-0.22 -0.51 C18.84 0.01, 39.52 0.95, 60.45 0.01 M61.92 -1.54 C60.71 11.64, 59.95 20.15, 60.93 39.79 M60.66 -0.07 C60.07 14.08, 59.43 27.67, 60.87 39.79 M59.94 41.01 C44.84 41.22, 26.87 39.59, -0.89 41.89 M60.54 39.32 C41.94 39.87, 23.99 40.21, -0.19 40.62 M0.86 41.22 C1.86 24.02, 0.6 11.02, 0.16 -0.75 M0.51 39.23 C-0.13 27.31, 0.65 15.77, 0.53 0.95" stroke="#4B7BE5" stroke-width="1" fill="none"></path></g><g transform="translate(174 66) rotate(0 30 20)"><text x="30" y="23.9" font-family="Cascadia, Segoe UI Emoji" font-size="11px" fill="#4B7BE5" text-anchor="middle" style="white-space: pre;" direction="ltr">RS 3</text></g><g transform="translate(10 114) rotate(0 120 8)"><text x="120" y="12.2" font-family="Cascadia, Segoe UI Emoji" font-size="12px" fill="#4B7BE5" text-anchor="middle" style="white-space: pre;" direction="ltr">plugin v1.0 + data</text></g><g transform="translate(10 10) rotate(0 120 10)"><text x="0" y="14.6" font-family="Cascadia, Segoe UI Emoji" font-size="13px" fill="#4B7BE5" text-anchor="start" style="white-space: pre;" direction="ltr">Blue (production)</text></g><g stroke-linecap="round" transform="translate(390 34) rotate(0 120 65)"><path d="M-0.05 1.25 L243.8 1.49 L243.77 131.52 L-3.24 131.05" stroke="none" stroke-width="0" fill="#C8E6D4"></path><path d="M-1.95 -1.87 C73.76 3.27, 139.56 4.12, 238.03 3.24 M0.98 -0.65 C72.59 4.03, 141 4.66, 239.69 0.05 M236.43 0.92 C242.92 49.98, 236.46 100.09, 240.11 131.67 M238.09 -0.93 C240.17 36.82, 239.26 76.63, 240.26 131.22 M240.61 128.84 C147.13 127.94, 52.98 131.33, 3.01 127.76 M241.66 130.28 C164.55 126.43, 92.24 126.72, -1.13 131.59 M-1.8 127.93 C0.48 92.64, 2.26 57.03, 1.79 3.2 M0.51 128.43 C-1.7 102.63, -0.04 76.09, 0.11 1.71" stroke="#1A6B3C" stroke-width="2" fill="none"></path></g><g transform="translate(390 38) rotate(0 120 10)"><text x="120" y="15.2" font-family="Cascadia, Segoe UI Emoji" font-size="15px" fill="#1A6B3C" text-anchor="middle" style="white-space: pre;" direction="ltr">Staging cluster</text></g><g stroke-linecap="round" transform="translate(410 66) rotate(0 30 20)"><path d="M1.58 -1.69 L58.08 -0.01 L58.9 41.7 L-1.92 38.66" stroke="none" stroke-width="0" fill="#7ED4C8"></path><path d="M-1.74 -1.27 C18.29 0.8, 36.12 1.74, 59.64 -0.49 M-0.01 0.67 C23.49 -0.93, 45.3 -0.83, 59.49 -0.96 M60.36 1.46 C58.08 10.8, 61.62 21.27, 61.62 41.36 M60.24 0.34 C58.88 14.59, 60.52 29.66, 59.76 40.02 M60.58 38.45 C45.92 38.82, 28.09 38.68, 1.15 41.04 M59.22 39.59 C46.23 40.66, 34.23 39.74, -0.92 39.12 M0.22 41.84 C0.7 32.01, -1.34 21.84, -0.74 0.78 M-0.87 39.21 C0.01 28.85, -1.13 17.75, -0.18 0.81" stroke="#1A6B3C" stroke-width="1" fill="none"></path></g><g transform="translate(410 66) rotate(0 30 20)"><text x="30" y="23.9" font-family="Cascadia, Segoe UI Emoji" font-size="11px" fill="#1A6B3C" text-anchor="middle" style="white-space: pre;" direction="ltr">RS 1</text></g><g stroke-linecap="round" transform="translate(482 66) rotate(0 30 20)"><path d="M-0.83 0 L58.26 -0.77 L59.92 38.63 L1.79 40.79" stroke="none" stroke-width="0" fill="#7ED4C8"></path><path d="M1.69 -1.41 C17.01 0.97, 33.88 -1.67, 60.47 1.08 M-0.6 -0.27 C16.37 0.49, 31.9 0.31, 59.17 0.05 M58.51 -1.54 C58.54 14.52, 60.84 28.3, 59.18 41.88 M59.43 -0.86 C60.35 10.09, 60.09 19.66, 59.38 39.43 M60.79 41.6 C42.28 38.02, 21.84 39.71, 0.5 39.43 M59.45 39.02 C41.66 39.99, 20.97 39.99, 0.83 39.29 M1.33 40.71 C-1.82 24.01, 1.21 10.78, 1.63 -0.05 M0 39.2 C-0.48 26.03, 0.4 13.75, -0.42 0.76" stroke="#1A6B3C" stroke-width="1" fill="none"></path></g><g transform="translate(482 66) rotate(0 30 20)"><text x="30" y="23.9" font-family="Cascadia, Segoe UI Emoji" font-size="11px" fill="#1A6B3C" text-anchor="middle" style="white-space: pre;" direction="ltr">RS 2</text></g><g stroke-linecap="round" transform="translate(554 66) rotate(0 30 20)"><path d="M0.77 1.68 L58.45 -1.52 L60.93 39.57 L1.49 38.92" stroke="none" stroke-width="0" fill="#7ED4C8"></path><path d="M1.12 -1.56 C15.73 -1.67, 35.64 0.12, 61.29 -1.35 M0.81 0.78 C21.25 -0.1, 42.49 -0.55, 60.85 -0.93 M60.65 -0.53 C59 10.24, 60.06 15.34, 60.74 38.4 M60.62 -0.05 C59.03 11.59, 58.86 25.65, 59.01 40.84 M61 40.74 C38.64 41.23, 15.58 40.73, -0.16 41.82 M59.68 40.44 C47.08 41.32, 33.72 40.23, 0.59 39.46 M-1.55 39.59 C-1.13 28.01, -1.03 15.73, 0 -0.87 M0.87 39.19 C0.24 25.21, 1.14 9.74, -0.66 0.71" stroke="#1A6B3C" stroke-width="1" fill="none"></path></g><g transform="translate(554 66) rotate(0 30 20)"><text x="30" y="23.9" font-family="Cascadia, Segoe UI Emoji" font-size="11px" fill="#1A6B3C" text-anchor="middle" style="white-space: pre;" direction="ltr">RS 3</text></g><g transform="translate(390 114) rotate(0 120 8)"><text x="120" y="12.2" font-family="Cascadia, Segoe UI Emoji" font-size="12px" fill="#1A6B3C" text-anchor="middle" style="white-space: pre;" direction="ltr">plugin v2.0 + data copy</text></g><g transform="translate(390 10) rotate(0 120 10)"><text x="0" y="14.6" font-family="Cascadia, Segoe UI Emoji" font-size="13px" fill="#1A6B3C" text-anchor="start" style="white-space: pre;" direction="ltr">Green (staging)</text></g><g stroke-linecap="round"><g transform="translate(250 99) rotate(0 70 0)"><path d="M-1.92 -0.04 C21.01 -0.53, 113.89 -0.63, 137.42 -0.65 M2.23 -2.52 C26.01 -2.8, 119.95 1.73, 142.41 2.63" stroke="#E23956" stroke-width="3" fill="none"></path></g></g><g transform="translate(250 75) rotate(0 70 8)"><text x="70" y="12.9" font-family="Cascadia, Segoe UI Emoji" font-size="14px" fill="#E23956" text-anchor="middle" style="white-space: pre;" direction="ltr">Ouroboros</text></g><g transform="translate(250 89) rotate(0 70 7)"><text x="70" y="10.8" font-family="Cascadia, Segoe UI Emoji" font-size="11px" fill="#737A82" text-anchor="middle" style="white-space: pre;" direction="ltr">async logical</text></g><g transform="translate(250 107) rotate(0 70 7)"><text x="70" y="10.8" font-family="Cascadia, Segoe UI Emoji" font-size="11px" fill="#737A82" text-anchor="middle" style="white-space: pre;" direction="ltr">replication</text></g><g transform="translate(10 196) rotate(0 10 9)"><text x="0" y="13.6" font-family="Cascadia, Segoe UI Emoji" font-size="13px" fill="#E23956" text-anchor="start" style="white-space: pre;" direction="ltr">①</text></g><g transform="translate(34 196) rotate(0 298 9)"><text x="0" y="13.2" font-family="Cascadia, Segoe UI Emoji" font-size="12px" fill="#2B1321" text-anchor="start" style="white-space: pre;" direction="ltr">Create staging cluster with Ouroboros — production data, zero impact</text></g><g transform="translate(10 214) rotate(0 10 9)"><text x="0" y="13.6" font-family="Cascadia, Segoe UI Emoji" font-size="13px" fill="#E23956" text-anchor="start" style="white-space: pre;" direction="ltr">②</text></g><g transform="translate(34 214) rotate(0 298 9)"><text x="0" y="13.2" font-family="Cascadia, Segoe UI Emoji" font-size="12px" fill="#2B1321" text-anchor="start" style="white-space: pre;" direction="ltr">Deploy &amp; test plugin v2.0 on staging with real production data</text></g><g transform="translate(10 232) rotate(0 10 9)"><text x="0" y="13.6" font-family="Cascadia, Segoe UI Emoji" font-size="13px" fill="#E23956" text-anchor="start" style="white-space: pre;" direction="ltr">③</text></g><g transform="translate(34 232) rotate(0 298 9)"><text x="0" y="13.2" font-family="Cascadia, Segoe UI Emoji" font-size="12px" fill="#2B1321" text-anchor="start" style="white-space: pre;" direction="ltr">Upgrade plugin on production, migrate schema (backward-compatible)</text></g><g transform="translate(10 250) rotate(0 10 9)"><text x="0" y="13.6" font-family="Cascadia, Segoe UI Emoji" font-size="13px" fill="#E23956" text-anchor="start" style="white-space: pre;" direction="ltr">④</text></g><g transform="translate(34 250) rotate(0 298 9)"><text x="0" y="13.2" font-family="Cascadia, Segoe UI Emoji" font-size="12px" fill="#2B1321" text-anchor="start" style="white-space: pre;" direction="ltr">Drop backward compatibility shims, complete migration</text></g></svg>