<svg version="1.1" xmlns="http://www.w3.org/2000/svg" viewBox="0 0 780 266" width="780" height="266">
  <!-- svg-source:excalidraw -->
  
  <defs>
    <style>
      @font-face {
        font-family: "Virgil";
        src: url("https://excalidraw.com/Virgil.woff2");
      }
      @font-face {
        font-family: "Cascadia";
        src: url("https://excalidraw.com/Cascadia.woff2");
      }
    </style>
  </defs>
  <rect x="0" y="0" width="780" height="266" fill="transparent"></rect><g stroke-linecap="round" transform="translate(10 10) rotate(0 120 90)"><path d="M-0.99 -1.86 L241.85 1.47 L239.06 180.8 L0.23 181.57" stroke="none" stroke-width="0" fill="#F8CDD6"></path><path d="M-0.55 -0.73 C58.38 0.71, 116.13 0.7, 238.46 0.45 M0.1 0.38 C68 -1.75, 134.86 -2.55, 240.71 -0.51 M241.05 -1.21 C239.86 39.63, 237.21 76.06, 241.47 181.71 M239.32 0.93 C240.54 63.25, 240.47 126.28, 240.31 179.19 M239.29 179.66 C185.14 178.51, 126.23 179.66, -0.49 179.23 M240.43 180.2 C160.32 182.52, 80.22 182.55, -0.36 179.74 M1.92 179.39 C-1.56 107.41, 1.31 35.19, 1.03 1.8 M0.21 180.95 C1.17 122.99, 0.44 67.55, -0.82 0.09" stroke="#E23956" stroke-width="2" fill="none"></path></g><g transform="translate(10 14) rotate(0 120 12)"><text x="120" y="12.0" dominant-baseline="central" font-family="Cascadia, Segoe UI Emoji" font-size="15px" fill="#E23956" text-anchor="middle" style="white-space: pre;" direction="ltr">1. Manifest</text></g><g transform="translate(22 44) rotate(0 108 7)"><text x="0" y="7.0" dominant-baseline="central" font-family="Cascadia, Segoe UI Emoji" font-size="11px" fill="#2B1321" text-anchor="start" style="white-space: pre;" direction="ltr">name: weather_plugin</text></g><g transform="translate(22 58) rotate(0 108 7)"><text x="0" y="7.0" dominant-baseline="central" font-family="Cascadia, Segoe UI Emoji" font-size="11px" fill="#2B1321" text-anchor="start" style="white-space: pre;" direction="ltr">version: 0.2.0</text></g><g transform="translate(22 86) rotate(0 108 7)"><text x="0" y="7.0" dominant-baseline="central" font-family="Cascadia, Segoe UI Emoji" font-size="11px" fill="#2B1321" text-anchor="start" style="white-space: pre;" direction="ltr">services:</text></g><g transform="translate(22 100) rotate(0 108 7)"><text x="0" y="7.0" dominant-baseline="central" font-family="Cascadia, Segoe UI Emoji" font-size="11px" fill="#2B1321" text-anchor="start" style="white-space: pre;" direction="ltr">  - name: weather_svc</text></g><g transform="translate(22 114) rotate(0 108 7)"><text x="0" y="7.0" dominant-baseline="central" font-family="Cascadia, Segoe UI Emoji" font-size="11px" fill="#2B1321" text-anchor="start" style="white-space: pre;" direction="ltr">    default_config:</text></g><g transform="translate(22 128) rotate(0 108 7)"><text x="0" y="7.0" dominant-baseline="central" font-family="Cascadia, Segoe UI Emoji" font-size="11px" fill="#2B1321" text-anchor="start" style="white-space: pre;" direction="ltr">      api_key: "..."</text></g><g transform="translate(22 156) rotate(0 108 7)"><text x="0" y="7.0" dominant-baseline="central" font-family="Cascadia, Segoe UI Emoji" font-size="11px" fill="#2B1321" text-anchor="start" style="white-space: pre;" direction="ltr">migration:</text></g><g transform="translate(22 170) rotate(0 108 7)"><text x="0" y="7.0" dominant-baseline="central" font-family="Cascadia, Segoe UI Emoji" font-size="11px" fill="#2B1321" text-anchor="start" style="white-space: pre;" direction="ltr">  - 0001_weather.db</text></g><g stroke-linecap="round" transform="translate(270 10) rotate(0 120 90)"><path d="M-0.99 -1.43 L238.76 1.69 L240.13 181.49 L-1.26 180.22" stroke="none" stroke-width="0" fill="#E8EAED"></path><path d="M0.4 -1.33 C59.74 -0.01, 116.84 1.76, 238.57 0.33 M-0.71 -0.21 C73.48 1.21, 147.61 0.91, 239.37 0.37 M239.79 -0.2 C239.22 67.25, 238.4 133.26, 241.28 180.33 M239.27 0.94 C239.91 56.27, 240.31 115.28, 240.44 180.24 M240.17 179.43 C155.09 178.2, 73.72 180.28, 0.12 179.17 M239.71 179.47 C180.14 178.49, 119.39 179, 0.29 180.43 M-0.49 181.76 C-1.27 120.33, -1.05 57.76, 0.86 1.68 M0.57 180.91 C-0.89 110.35, 0.5 40.42, 0 -0.15" stroke="#737A82" stroke-width="2" fill="none"></path></g><g transform="translate(270 14) rotate(0 120 12)"><text x="120" y="12.0" dominant-baseline="central" font-family="Cascadia, Segoe UI Emoji" font-size="15px" fill="#737A82" text-anchor="middle" style="white-space: pre;" direction="ltr">2. Configure &amp; enable</text></g><g transform="translate(282 44) rotate(0 108 7)"><text x="0" y="7.0" dominant-baseline="central" font-family="Cascadia, Segoe UI Emoji" font-size="11px" fill="#2B1321" text-anchor="start" style="white-space: pre;" direction="ltr">ALTER PLUGIN weather_plugin</text></g><g transform="translate(282 58) rotate(0 108 7)"><text x="0" y="7.0" dominant-baseline="central" font-family="Cascadia, Segoe UI Emoji" font-size="11px" fill="#2B1321" text-anchor="start" style="white-space: pre;" direction="ltr">  0.2.0 SET ENABLED;</text></g><g transform="translate(282 86) rotate(0 108 7)"><text x="0" y="7.0" dominant-baseline="central" font-family="Cascadia, Segoe UI Emoji" font-size="11px" fill="#2B1321" text-anchor="start" style="white-space: pre;" direction="ltr">ALTER SERVICE weather_svc</text></g><g transform="translate(282 100) rotate(0 108 7)"><text x="0" y="7.0" dominant-baseline="central" font-family="Cascadia, Segoe UI Emoji" font-size="11px" fill="#2B1321" text-anchor="start" style="white-space: pre;" direction="ltr">  SET TIER = 'compute';</text></g><g transform="translate(282 128) rotate(0 108 7)"><text x="0" y="7.0" dominant-baseline="central" font-family="Cascadia, Segoe UI Emoji" font-size="11px" fill="#2B1321" text-anchor="start" style="white-space: pre;" direction="ltr">-- max 2 versions live</text></g><g transform="translate(282 142) rotate(0 108 7)"><text x="0" y="7.0" dominant-baseline="central" font-family="Cascadia, Segoe UI Emoji" font-size="11px" fill="#2B1321" text-anchor="start" style="white-space: pre;" direction="ltr">-- consistent across nodes</text></g><g stroke-linecap="round" transform="translate(530 10) rotate(0 120 90)"><path d="M1.4 1.31 L239.49 -1.33 L240.19 181.23 L1.55 180.74" stroke="none" stroke-width="0" fill="#CFD3D6"></path><path d="M-1.5 1.52 C58.83 -0.32, 116.07 -0.46, 241.32 -1.11 M0.64 -0.02 C60.33 -1.42, 119.08 -0.98, 239.96 0.41 M240.38 -0.19 C241.9 45.34, 240.14 87.82, 239.53 178.42 M240.04 0.15 C240.05 37.49, 238.83 75.67, 240.95 179.87 M240.87 179.92 C143.31 178.62, 46.91 180.12, 1.27 180.46 M240.47 179.22 C175.47 178.34, 111.33 178.56, -0.52 179.32 M-0.02 181.26 C-0.4 121.87, 0.11 64.62, -1.67 -1.62 M0.05 180.88 C0.98 142.24, 0.46 104.72, -0.95 -0.34" stroke="#16222E" stroke-width="2" fill="none"></path></g><g transform="translate(530 14) rotate(0 120 12)"><text x="120" y="12.0" dominant-baseline="central" font-family="Cascadia, Segoe UI Emoji" font-size="15px" fill="#16222E" text-anchor="middle" style="white-space: pre;" direction="ltr">3. Migration &amp; upgrade</text></g><g transform="translate(542 44) rotate(0 108 7)"><text x="0" y="7.0" dominant-baseline="central" font-family="Cascadia, Segoe UI Emoji" font-size="11px" fill="#2B1321" text-anchor="start" style="white-space: pre;" direction="ltr">-- pico.UP</text></g><g transform="translate(542 58) rotate(0 108 7)"><text x="0" y="7.0" dominant-baseline="central" font-family="Cascadia, Segoe UI Emoji" font-size="11px" fill="#2B1321" text-anchor="start" style="white-space: pre;" direction="ltr">CREATE TABLE weather (</text></g><g transform="translate(542 72) rotate(0 108 7)"><text x="0" y="7.0" dominant-baseline="central" font-family="Cascadia, Segoe UI Emoji" font-size="11px" fill="#2B1321" text-anchor="start" style="white-space: pre;" direction="ltr">  city TEXT,</text></g><g transform="translate(542 86) rotate(0 108 7)"><text x="0" y="7.0" dominant-baseline="central" font-family="Cascadia, Segoe UI Emoji" font-size="11px" fill="#2B1321" text-anchor="start" style="white-space: pre;" direction="ltr">  temp DOUBLE</text></g><g transform="translate(542 100) rotate(0 108 7)"><text x="0" y="7.0" dominant-baseline="central" font-family="Cascadia, Segoe UI Emoji" font-size="11px" fill="#2B1321" text-anchor="start" style="white-space: pre;" direction="ltr">) DISTRIBUTED BY (city);</text></g><g transform="translate(542 128) rotate(0 108 7)"><text x="0" y="7.0" dominant-baseline="central" font-family="Cascadia, Segoe UI Emoji" font-size="11px" fill="#2B1321" text-anchor="start" style="white-space: pre;" direction="ltr">-- pico.DOWN</text></g><g transform="translate(542 142) rotate(0 108 7)"><text x="0" y="7.0" dominant-baseline="central" font-family="Cascadia, Segoe UI Emoji" font-size="11px" fill="#2B1321" text-anchor="start" style="white-space: pre;" direction="ltr">DROP TABLE weather;</text></g><g stroke-linecap="round"><g transform="translate(260 100) rotate(0 8 0)"><path d="M1.42 2.28 C4.15 1.58, 12.74 -1.9, 14.84 -2.18 M-1.25 1.06 C1.15 0.46, 8.46 -0.22, 11.98 0.27" stroke="#737A82" stroke-width="2" fill="none"></path></g></g><g stroke-linecap="round"><g transform="translate(520 100) rotate(0 8 0)"><path d="M2.56 -0.92 C5.74 -0.06, 15.08 2.54, 17.54 2.52 M0.5 -3.88 C3.59 -3.51, 13.52 -2.03, 16.14 -1.12" stroke="#737A82" stroke-width="2" fill="none"></path></g></g><g transform="translate(10 204) rotate(0 380 8)"><text x="0" y="8.0" dominant-baseline="central" font-family="Cascadia, Segoe UI Emoji" font-size="12px" fill="#737A82" text-anchor="start" style="white-space: pre;" direction="ltr">• Versioned — at most 2 plugin versions live in a cluster (blue/green upgrades)</text></g><g transform="translate(10 222) rotate(0 380 8)"><text x="0" y="8.0" dominant-baseline="central" font-family="Cascadia, Segoe UI Emoji" font-size="12px" fill="#737A82" text-anchor="start" style="white-space: pre;" direction="ltr">• Migrations run as distributed transactions — auto-rollback on failure</text></g><g transform="translate(10 240) rotate(0 380 8)"><text x="0" y="8.0" dominant-baseline="central" font-family="Cascadia, Segoe UI Emoji" font-size="12px" fill="#737A82" text-anchor="start" style="white-space: pre;" direction="ltr">• All management via SQL — auditable and scriptable</text></g></svg>