<svg version="1.1" xmlns="http://www.w3.org/2000/svg" viewBox="0 0 868 274" width="868" height="274">
  <!-- svg-source:excalidraw -->
  
  <defs>
    <style>
      @font-face {
        font-family: "Virgil";
        src: url("https://excalidraw.com/Virgil.woff2");
      }
      @font-face {
        font-family: "Cascadia";
        src: url("https://excalidraw.com/Cascadia.woff2");
      }
    </style>
  </defs>
  <rect x="0" y="0" width="868" height="274" fill="transparent"></rect><g stroke-linecap="round" transform="translate(10 10) rotate(0 59 20)"><path d="M-0.38 -1.06 L116.86 0.79 L118.92 39.34 L-0.5 40.48" stroke="none" stroke-width="0" fill="#F8CDD6"></path><path d="M1.13 -0.53 C33.5 2.08, 65.86 1.76, 118.28 -0.88 M-0.93 0.94 C37.95 -1.18, 75.99 -0.73, 117.85 -0.17 M116.57 0.49 C118.53 6.8, 118.32 15.84, 119.76 39.94 M118.12 0.85 C119.05 8.88, 118.97 17.84, 117.41 39.89 M116.58 39.64 C86.3 37.62, 55.27 40.63, -0.39 40.29 M117.82 40.45 C79.29 40.43, 39.7 41, -0.83 40.16 M1.37 41.17 C1.41 27.13, -0.03 13.39, -1.09 -1.93 M-0.71 40.88 C0.16 26.95, 0.38 14, -0.02 -0.44" stroke="#E23956" stroke-width="1" fill="none"></path></g><g transform="translate(10 10) rotate(0 59 20)"><text x="59" y="27.0" font-family="Cascadia, Segoe UI Emoji" font-size="20px" fill="#E23956" text-anchor="middle" style="white-space: pre;" direction="ltr">SELECT</text></g><g stroke-linecap="round" transform="translate(136 10) rotate(0 46 20)"><path d="M1.22 0.63 L91.05 0.04 L93.93 40.28 L-0.8 38.61" stroke="none" stroke-width="0" fill="#F8CDD6"></path><path d="M0.56 -0.68 C25.19 -2.06, 49.54 -1.95, 93.11 0.69 M0.47 0 C18.88 0.43, 36.68 0.6, 91.53 0.84 M92.72 1.49 C92.99 10.52, 91.54 22.88, 91.32 40.46 M91.31 -0.35 C91.72 12.38, 91.74 23.84, 91.04 39.3 M90.79 38.79 C61.63 41.03, 32.95 37.87, -1.05 38.68 M92.05 39.87 C70.37 39.84, 49.75 41.32, 0.93 40.33 M-1.52 40.04 C-1.11 27.12, -1.48 18.33, 1.28 1.24 M0.16 40.88 C-1.12 24.13, -0.88 10, -0.26 -0.49" stroke="#E23956" stroke-width="1" fill="none"></path></g><g transform="translate(136 10) rotate(0 46 20)"><text x="46" y="27.0" font-family="Cascadia, Segoe UI Emoji" font-size="20px" fill="#E23956" text-anchor="middle" style="white-space: pre;" direction="ltr">JOIN</text></g><g stroke-linecap="round" transform="translate(236 10) rotate(0 59 20)"><path d="M-1.19 -1.68 L117.23 -0.72 L116.95 41.22 L-1.1 40.74" stroke="none" stroke-width="0" fill="#FFE0D0"></path><path d="M-0.01 -0.82 C30.95 -0.17, 65.38 0.37, 119.93 -1.74 M-0.12 -0.94 C34.02 -0.02, 67.79 -0.13, 117.2 -0.14 M116.86 -1.5 C119.45 14.24, 116.77 25.92, 118.88 40.99 M118.5 0.45 C119.2 15.89, 119.3 29.83, 118.67 40.71 M117.01 41.93 C71.75 39.98, 24.21 38.64, -1.7 41.07 M118.27 39.3 C77.72 39.27, 38.34 39.66, 0.68 40.5 M-0.4 38.92 C-0.42 31.12, 0.27 23.27, -0.36 0.42 M-0.97 40.87 C0.39 31.31, 0.65 21.99, -0.49 -0.53" stroke="#FF611D" stroke-width="1" fill="none"></path></g><g transform="translate(236 10) rotate(0 59 20)"><text x="59" y="27.0" font-family="Cascadia, Segoe UI Emoji" font-size="20px" fill="#FF611D" text-anchor="middle" style="white-space: pre;" direction="ltr">INSERT</text></g><g stroke-linecap="round" transform="translate(362 10) rotate(0 98 20)"><path d="M0.41 0 L195.41 -1.47 L195.96 38.15 L-1.4 38.87" stroke="none" stroke-width="0" fill="#CFD3D6"></path><path d="M-0.58 -0.97 C54.8 -0.66, 105.4 0.3, 194.76 -0.17 M-0.72 0.12 C73.1 -0.12, 146.77 1.49, 196.88 0.87 M197.01 -0.5 C197.9 9.96, 197.99 16.96, 194.44 41.51 M195.69 -0.74 C195.87 9.39, 196.07 19.83, 196.29 40.12 M195.22 41.08 C146.07 38.39, 95.88 38.87, 1.64 39.45 M196.5 40.72 C147.97 38.6, 100.72 39.91, 0.44 40.67 M0.72 41.79 C1.06 23.12, -1.17 8.21, -1.99 -0.41 M-0.1 40.86 C-0.9 28.5, -0.61 17.98, -0.73 -0.58" stroke="#16222E" stroke-width="1" fill="none"></path></g><g transform="translate(362 10) rotate(0 98 20)"><text x="98" y="27.0" font-family="Cascadia, Segoe UI Emoji" font-size="20px" fill="#16222E" text-anchor="middle" style="white-space: pre;" direction="ltr">CREATE TABLE</text></g><g stroke-linecap="round" transform="translate(566 10) rotate(0 45 16)"><path d="M-1.99 1.69 L89.59 1.77 L90.98 31.09 L-1.7 33" stroke="none" stroke-width="0" fill="#F8CDD6"></path><path d="M-1.15 -1.11 C24.81 1.32, 49.74 2.71, 89.59 1.4 M0.69 -0.82 C22.81 0.94, 47.02 0.27, 90.56 -0.12 M89.16 0.5 C88.32 7.38, 91.18 19.38, 90.01 30.03 M90.88 0.06 C90.59 10.25, 88.88 20.55, 89.92 31.52 M89.43 32.23 C61.73 32.42, 34.22 34.73, 0.99 33.84 M90.72 32.15 C59.8 32.42, 28.27 32.65, 0.19 32.83 M1.84 32.67 C1.76 21.74, 0.6 10.39, 0.38 -1.23 M0.77 32.86 C-0.16 20.39, 0.15 9.39, -0.97 -0.63" stroke="#E23956" stroke-width="1" fill="none"></path></g><g transform="translate(566 10) rotate(0 45 16)"><text x="45" y="21.2" font-family="Cascadia, Segoe UI Emoji" font-size="15px" fill="#E23956" text-anchor="middle" style="white-space: pre;" direction="ltr">WHERE</text></g><g stroke-linecap="round" transform="translate(10 58) rotate(0 60 16)"><path d="M-0.39 -0.62 L119.77 1.02 L121.99 32.02 L-1.99 31.13" stroke="none" stroke-width="0" fill="#F8CDD6"></path><path d="M-1.72 -1.26 C31.66 1.28, 63.76 -0.9, 120.41 -1.03 M0.09 0.24 C40.62 0.73, 83.48 1.78, 120.24 0.89 M121.3 1.5 C118.77 10.54, 120.39 21.29, 121.57 30.55 M120.08 0.86 C119.96 6.77, 120.35 12.57, 119.55 32.93 M119.64 31.37 C74.76 31.89, 27.29 32.03, 0.33 32.22 M120.95 31.57 C90.68 32.06, 59.91 33.2, -0.05 31 M-1.05 31.54 C-0.85 21.31, -0.94 14.49, -1.25 1.94 M-0.35 32.85 C0.59 20.01, -1.08 6.27, 0.8 -0.68" stroke="#E23956" stroke-width="1" fill="none"></path></g><g transform="translate(10 58) rotate(0 60 16)"><text x="60" y="21.2" font-family="Cascadia, Segoe UI Emoji" font-size="15px" fill="#E23956" text-anchor="middle" style="white-space: pre;" direction="ltr">GROUP BY</text></g><g stroke-linecap="round" transform="translate(138 58) rotate(0 60 16)"><path d="M1.21 1.06 L119.96 0.26 L119.01 32.96 L1.71 33.26" stroke="none" stroke-width="0" fill="#F8CDD6"></path><path d="M1.71 -1.4 C34.38 0.96, 65.52 -0.79, 121.24 0.54 M-0.5 -0.71 C28.63 -0.09, 56.32 -1.32, 119.92 -0.1 M119.45 -1.49 C119.21 7.3, 119.6 14.41, 119.13 31.08 M119.27 -0.34 C120.69 9.68, 119.17 17.38, 119.18 32.34 M119.85 30.52 C91.36 31.06, 61.51 33.03, -0.32 30.61 M119.18 33 C77.89 31.27, 36.22 31.32, -0.29 31.17 M0.07 30.41 C-0.09 24.88, 0.89 18.59, 1.11 1.12 M0.52 32.84 C-0.02 24.03, 0.34 15.94, 0.56 -0.73" stroke="#E23956" stroke-width="1" fill="none"></path></g><g transform="translate(138 58) rotate(0 60 16)"><text x="60" y="21.2" font-family="Cascadia, Segoe UI Emoji" font-size="15px" fill="#E23956" text-anchor="middle" style="white-space: pre;" direction="ltr">ORDER BY</text></g><g stroke-linecap="round" transform="translate(266 58) rotate(0 35 16)"><path d="M-1.19 -1.25 L70.14 -0.5 L70.02 33.9 L1.41 31.39" stroke="none" stroke-width="0" fill="#F8CDD6"></path><path d="M1.14 -1.55 C19.56 -1.21, 36.19 1.46, 68.06 -1.89 M0.9 0.35 C22.81 -0.26, 43.52 0.23, 69.6 0.91 M71.6 -0.49 C69.66 10.46, 68.81 20.33, 70.69 31.6 M70.46 0.47 C69.42 10.6, 70 22.2, 70.8 31.75 M70.06 33.67 C49.31 33.82, 28.45 33.61, -0.97 32.99 M69.4 32.42 C51.87 31.13, 34.06 32.1, -0.54 31.34 M1.19 33.29 C0.66 22.06, -1.29 9.88, -0.52 0.3 M-0.61 32.83 C0.73 21.65, -0.89 12.81, 0.32 -0.77" stroke="#E23956" stroke-width="1" fill="none"></path></g><g transform="translate(266 58) rotate(0 35 16)"><text x="35" y="21.2" font-family="Cascadia, Segoe UI Emoji" font-size="15px" fill="#E23956" text-anchor="middle" style="white-space: pre;" direction="ltr">CTE</text></g><g stroke-linecap="round" transform="translate(344 58) rotate(0 50 16)"><path d="M0.41 0.44 L100.32 -1.25 L101.04 30.83 L1.11 33.52" stroke="none" stroke-width="0" fill="#F8CDD6"></path><path d="M0.57 -1.69 C26.41 -1.22, 54.21 -2.12, 98.89 -0.33 M0.31 -0.59 C20.6 -0.88, 39.94 -0.66, 99.28 -0.08 M99.74 0.51 C99.46 13.62, 101.38 22.25, 98.25 32.12 M99.65 -0.73 C100.79 7.11, 99.46 14.22, 100.43 31.16 M100.27 32.81 C63.95 33.26, 24.75 30.87, -1.63 31.38 M99.63 31.85 C63.49 32.49, 29.2 32.37, -0.78 31.5 M-1.69 32.16 C-1.94 21.63, 1.18 9.98, 1.85 -0.53 M0.26 32.83 C-0.52 21.27, -0.12 9.69, 0.09 -0.82" stroke="#E23956" stroke-width="1" fill="none"></path></g><g transform="translate(344 58) rotate(0 50 16)"><text x="50" y="21.2" font-family="Cascadia, Segoe UI Emoji" font-size="15px" fill="#E23956" text-anchor="middle" style="white-space: pre;" direction="ltr">WINDOW</text></g><g stroke-linecap="round" transform="translate(452 58) rotate(0 50 16)"><path d="M-1.99 -1.88 L100.5 1.99 L98.05 31.77 L0.82 31.65" stroke="none" stroke-width="0" fill="#FFE0D0"></path><path d="M-0.01 -1.83 C25.13 0.63, 55.97 0.15, 99.71 1.24 M-0.29 0.47 C28.9 0.65, 57.36 0.58, 100.95 0.93 M101.89 1.51 C99.91 6.38, 100.59 15.36, 99.82 32.65 M100.84 0.07 C99.52 10.03, 100.29 19.04, 100.06 32.57 M100.48 31.96 C77.8 32.44, 53.48 31.88, 1.72 33.77 M99.86 31.27 C72.77 32, 47.65 32.8, 0.97 31.67 M-0.58 31.04 C-1.19 25.21, -1 14.08, 0.21 -1.35 M-0.87 32.82 C0.22 25.3, 0.66 17.36, -0.15 -0.87" stroke="#FF611D" stroke-width="1" fill="none"></path></g><g transform="translate(452 58) rotate(0 50 16)"><text x="50" y="21.2" font-family="Cascadia, Segoe UI Emoji" font-size="15px" fill="#FF611D" text-anchor="middle" style="white-space: pre;" direction="ltr">UPDATE</text></g><g stroke-linecap="round" transform="translate(560 58) rotate(0 50 16)"><path d="M-0.4 -0.19 L100.69 1.24 L99.07 32.71 L0.52 33.78" stroke="none" stroke-width="0" fill="#FFE0D0"></path><path d="M-0.58 -1.98 C27.86 0.47, 53.74 0.42, 100.54 -1.19 M-0.88 -0.47 C37.2 0.17, 74.79 -0.17, 100.63 -0.05 M100.04 -1.49 C100.35 9.54, 99.8 21.28, 101.38 33.17 M100.03 0.88 C100.89 10.94, 99.75 23.86, 99.69 31.98 M100.7 31.1 C71.66 31.63, 42.2 32.89, 1.06 32.15 M100.08 32.7 C64.06 33.51, 26.1 33.23, 0.73 31.84 M0.54 33.91 C0.2 24.78, 1.47 18.17, -1.42 1.82 M0.01 32.81 C-0.39 22.92, 0.07 14.24, -0.39 -0.92" stroke="#FF611D" stroke-width="1" fill="none"></path></g><g transform="translate(560 58) rotate(0 50 16)"><text x="50" y="21.2" font-family="Cascadia, Segoe UI Emoji" font-size="15px" fill="#FF611D" text-anchor="middle" style="white-space: pre;" direction="ltr">DELETE</text></g><g stroke-linecap="round" transform="translate(668 58) rotate(0 45 16)"><path d="M1.2 1.5 L90.87 0.48 L90.08 33.64 L0.22 31.91" stroke="none" stroke-width="0" fill="#F8CDD6"></path><path d="M-1.15 1.88 C23.87 0.38, 50.08 0.76, 91.36 0.38 M0.53 0.59 C22.92 -0.36, 47.06 1.02, 90.31 0.96 M88.18 -0.48 C90.8 12.71, 89.01 23.2, 88.94 33.69 M89.22 -0.32 C89.62 7.45, 90.58 15.88, 89.31 31.39 M90.91 30.25 C59.09 30.75, 24.09 33.84, 0.41 30.54 M90.31 32.12 C66.04 31.09, 41.95 31.72, 0.48 32.01 M1.66 32.79 C0.96 21.96, -0.71 9.47, 0.95 1 M0.88 32.81 C0.36 22.54, 0.85 11.11, -0.63 -0.97" stroke="#E23956" stroke-width="1" fill="none"></path></g><g transform="translate(668 58) rotate(0 45 16)"><text x="45" y="21.2" font-family="Cascadia, Segoe UI Emoji" font-size="15px" fill="#E23956" text-anchor="middle" style="white-space: pre;" direction="ltr">UNION</text></g><g stroke-linecap="round" transform="translate(10 98) rotate(0 60 16)"><path d="M-1.2 -0.82 L121.05 -0.28 L121.1 30.58 L-0.08 30.04" stroke="none" stroke-width="0" fill="#F8CDD6"></path><path d="M-1.72 1.73 C30.72 2.24, 64.1 -0.95, 118.19 1.95 M-0.07 -0.36 C40.67 1.4, 83.38 0.51, 119.99 -0.03 M120.33 0.52 C121.24 9.47, 118.22 16.32, 120.5 30.21 M120.41 0.48 C120.36 10.37, 119.4 20.7, 120.94 32.8 M121.12 33.4 C94.95 34.12, 66.83 31.04, -0.24 32.92 M120.54 31.55 C75.15 32.5, 30.07 32.04, 0.24 32.17 M-1.22 31.66 C-1.65 21.53, 1.75 13.57, -0.68 0.17 M-0.25 32.8 C-0.89 20.16, -0.38 7.98, -0.86 0.99" stroke="#E23956" stroke-width="1" fill="none"></path></g><g transform="translate(10 98) rotate(0 60 16)"><text x="60" y="21.2" font-family="Cascadia, Segoe UI Emoji" font-size="15px" fill="#E23956" text-anchor="middle" style="white-space: pre;" direction="ltr">SUBQUERY</text></g><g stroke-linecap="round" transform="translate(138 98) rotate(0 45 16)"><path d="M0.4 0.87 L91.23 -1.03 L88.11 31.52 L-0.38 32.17" stroke="none" stroke-width="0" fill="#E8DBF5"></path><path d="M1.71 1.59 C25.31 -1.97, 49.61 -0.74, 89.02 -0.48 M-0.66 0.7 C19.81 -1.16, 40.49 -0.33, 89.67 0.98 M88.48 1.52 C91.69 8.63, 91.43 22.23, 88.07 30.74 M89.6 -0.71 C89.73 13.28, 90.87 25.51, 90.57 32.21 M91.33 32.54 C66.05 33.12, 40.05 31.87, -0.9 31.31 M90.76 32.97 C64.68 32.03, 41.01 32.48, 0 32.34 M-0.11 30.53 C-0.89 25.11, -0.42 17.66, 1.68 -0.65 M0.62 32.79 C-0.14 24.19, 0.39 17.66, 0.9 0.94" stroke="#6B3FA0" stroke-width="1" fill="none"></path></g><g transform="translate(138 98) rotate(0 45 16)"><text x="45" y="21.2" font-family="Cascadia, Segoe UI Emoji" font-size="15px" fill="#6B3FA0" text-anchor="middle" style="white-space: pre;" direction="ltr">GRANT</text></g><g stroke-linecap="round" transform="translate(236 98) rotate(0 50 16)"><path d="M2 -1.45 L101.41 -1.79 L99.13 32.45 L-0.67 30.3" stroke="none" stroke-width="0" fill="#E8DBF5"></path><path d="M1.14 1.44 C26.75 -0.16, 52.79 1.49, 99.84 1.09 M0.74 -0.24 C32.4 0.29, 62.5 -1.17, 99.35 -0.01 M100.62 -1.48 C98.13 11.79, 100.64 24.15, 99.63 31.26 M100.79 0.09 C100.46 7.8, 99.69 17.53, 100.2 31.61 M101.54 31.69 C67.07 32.37, 29.11 32.94, -1.55 33.7 M100.99 32.4 C61.19 33.57, 23.92 32.93, -0.25 32.51 M1.01 33.41 C0.5 18.28, 2.04 4.96, 0.05 -1.47 M-0.51 32.78 C0.61 21.81, -0.83 12.53, 0.66 0.89" stroke="#6B3FA0" stroke-width="1" fill="none"></path></g><g transform="translate(236 98) rotate(0 50 16)"><text x="50" y="21.2" font-family="Cascadia, Segoe UI Emoji" font-size="15px" fill="#6B3FA0" text-anchor="middle" style="white-space: pre;" direction="ltr">REVOKE</text></g><g stroke-linecap="round" transform="translate(344 98) rotate(0 44 13)"><path d="M-0.4 0.24 L89.6 1.46 L88.14 27.39 L-0.97 26.43" stroke="none" stroke-width="0" fill="#F8CDD6"></path><path d="M0.57 1.3 C22.22 -0.33, 48.05 1.76, 88.67 -1.34 M0.15 0.82 C35.9 -0.15, 70.33 0.12, 87.02 -1 M86.77 -0.47 C86.57 7, 87.84 14.16, 89.19 25.78 M87.98 0.89 C87.23 8.68, 88.56 18.28, 87.82 25.02 M89.75 24.84 C71.43 25.49, 50.85 27.89, 1.79 26.08 M87.21 25.82 C63.89 25.18, 37.2 25.46, -0.49 26.67 M-1.87 26.28 C1.27 17.94, -0.12 7.22, -1.58 1.7 M0.36 26.78 C-0.04 17.5, 0.54 7.54, 0.43 0.84" stroke="#E23956" stroke-width="1" fill="none"></path></g><g transform="translate(344 98) rotate(0 44 13)"><text x="44" y="17.2" font-family="Cascadia, Segoe UI Emoji" font-size="12px" fill="#E23956" text-anchor="middle" style="white-space: pre;" direction="ltr">HAVING</text></g><g stroke-linecap="round" transform="translate(440 98) rotate(0 40 13)"><path d="M1.2 1.93 L81.78 0.7 L81.16 24.32 L-1.27 24.56" stroke="none" stroke-width="0" fill="#F8CDD6"></path><path d="M0 1.15 C22.77 -0.32, 41.47 -1.82, 81.49 0.23 M-0.45 -0.12 C23.29 -0.65, 45.95 -0.66, 80.7 0.01 M80.92 0.53 C79 9.74, 79.05 15.24, 78.75 26.3 M79.17 -0.31 C80.53 5.95, 79.95 11.82, 79.45 26.43 M81.96 27.98 C60.2 24.65, 37.42 24.87, 1.14 24.47 M79.44 25.25 C49.52 26.67, 18.35 25.87, -0.74 26.84 M-0.75 25.16 C-1.4 17.2, -1.72 10.69, 0.78 0.88 M-0.76 26.77 C0.74 15.45, -0.66 5.07, 0.19 0.8" stroke="#E23956" stroke-width="1" fill="none"></path></g><g transform="translate(440 98) rotate(0 40 13)"><text x="40" y="17.2" font-family="Cascadia, Segoe UI Emoji" font-size="12px" fill="#E23956" text-anchor="middle" style="white-space: pre;" direction="ltr">LIMIT</text></g><g stroke-linecap="round" transform="translate(528 98) rotate(0 52 13)"><path d="M-1.2 -0.39 L105.96 -0.06 L102.17 25.26 L-1.57 26.69" stroke="none" stroke-width="0" fill="#F8CDD6"></path><path d="M-0.57 1.01 C28 1.38, 56.25 0.31, 102.32 1.8 M0.96 0.94 C38.77 0.88, 77.74 0.59, 104.38 -0.98 M103.06 1.53 C103.44 8.48, 102.25 20.32, 104.31 26.83 M104.36 0.5 C103.3 8.42, 104.82 15.75, 103.08 25.84 M102.17 27.13 C67.29 27.94, 32.62 25.99, 0.48 26.85 M103.67 26.67 C73.87 26.11, 42.94 26.22, -0.98 25.01 M0.36 24.03 C-0.6 20.46, 0.16 14.15, -0.85 0.05 M0.11 26.76 C-0.48 18.6, 0.15 13.01, -0.05 0.75" stroke="#E23956" stroke-width="1" fill="none"></path></g><g transform="translate(528 98) rotate(0 52 13)"><text x="52" y="17.2" font-family="Cascadia, Segoe UI Emoji" font-size="12px" fill="#E23956" text-anchor="middle" style="white-space: pre;" direction="ltr">DISTINCT</text></g><g stroke-linecap="round" transform="translate(640 98) rotate(0 36 13)"><path d="M0.39 1.3 L70.14 -0.81 L71.19 26.2 L-1.86 24.82" stroke="none" stroke-width="0" fill="#F8CDD6"></path><path d="M-1.14 0.87 C18.05 1.32, 40.66 0.68, 71.14 -0.63 M0.36 -0.01 C18.42 0.25, 35.87 -0.32, 72.06 0.04 M73.21 -1.47 C71.87 6.02, 73.45 15, 73.88 27.35 M71.55 -0.7 C72.08 8.89, 71.69 19.69, 72.71 25.25 M70.38 26.27 C41.59 27, 14.24 26.88, -0.17 25.24 M71.89 26.1 C43.4 25.47, 15.88 26.5, 0.78 25.18 M1.48 26.9 C0.21 14.52, -1.97 7.21, 1.52 -0.77 M0.98 26.76 C0.3 18.55, -1.05 10.54, -0.28 0.7" stroke="#E23956" stroke-width="1" fill="none"></path></g><g transform="translate(640 98) rotate(0 36 13)"><text x="36" y="17.2" font-family="Cascadia, Segoe UI Emoji" font-size="12px" fill="#E23956" text-anchor="middle" style="white-space: pre;" direction="ltr">CASE</text></g><g stroke-linecap="round" transform="translate(10 138) rotate(0 64 13)"><path d="M1.99 -1.01 L126.33 -1.57 L128.2 27.13 L1.84 26.95" stroke="none" stroke-width="0" fill="#FFE0D0"></path><path d="M-1.72 0.72 C35.95 -0.73, 68.79 -0.95, 127.97 0.94 M-0.23 -0.95 C43.45 0.15, 86.75 1.3, 127.74 -0.95 M127.36 -0.46 C128.31 8.76, 128.65 16.07, 127.44 27.87 M128.75 0.1 C127.37 6.17, 127.08 11.22, 128.33 26.66 M126.6 25.42 C93.07 26.38, 62.22 28.08, -0.82 27.63 M128.12 25.52 C89.23 27.41, 51.44 27.35, 0.53 25.34 M-1.4 25.78 C1.54 17.78, 0.43 6.68, -0.11 -1.6 M-0.15 26.75 C-0.41 16.51, 0.27 6.08, -0.52 0.65" stroke="#FF611D" stroke-width="1" fill="none"></path></g><g transform="translate(10 138) rotate(0 64 13)"><text x="64" y="17.2" font-family="Cascadia, Segoe UI Emoji" font-size="12px" fill="#FF611D" text-anchor="middle" style="white-space: pre;" direction="ltr">ON CONFLICT</text></g><g stroke-linecap="round" transform="translate(146 138) rotate(0 64 13)"><path d="M-0.41 0.67 L126.51 1.68 L129.21 24.07 L1.54 25.08" stroke="none" stroke-width="0" fill="#CFD3D6"></path><path d="M1.71 0.58 C34.68 -1.12, 70.55 -0.9, 128.8 -1.49 M-0.83 0.11 C28.54 -0.81, 57.76 -1.94, 127.42 0.06 M129.5 0.54 C128.74 6.3, 127.85 10.75, 129 24.39 M127.94 0.91 C128.15 8.64, 127.95 15.16, 127.96 26.07 M126.81 24.57 C85.16 25.56, 47.44 25.08, -1.48 26.01 M128.35 26.95 C101.22 24.49, 75.29 25.34, 0.29 25.51 M-0.28 24.65 C-1.65 17.03, -1.69 10.14, -1.75 1.58 M0.72 26.74 C0.37 19.66, 1.07 14.01, -0.76 0.6" stroke="#16222E" stroke-width="1" fill="none"></path></g><g transform="translate(146 138) rotate(0 64 13)"><text x="64" y="17.2" font-family="Cascadia, Segoe UI Emoji" font-size="12px" fill="#16222E" text-anchor="middle" style="white-space: pre;" direction="ltr">ALTER TABLE</text></g><g stroke-linecap="round" transform="translate(282 138) rotate(0 36 13)"><path d="M1.19 -1.64 L70.69 0.92 L70.23 25.01 L1.24 27.21" stroke="none" stroke-width="0" fill="#CFD3D6"></path><path d="M1.14 0.43 C18.21 -1.04, 37.94 -0.39, 73.62 0.08 M0.58 -0.83 C21.75 -0.83, 45.01 -0.24, 71.1 -0.93 M71.65 1.54 C72.66 9.05, 70.53 15.83, 70.56 24.92 M71.13 -0.29 C71.45 9.11, 71.34 19.09, 71.59 25.48 M71.02 27.71 C42.81 24.59, 15.76 25.95, 1.87 24.4 M72.57 26.37 C50.75 26.19, 28.25 25.95, 0.04 25.68 M0.83 27.53 C-0.32 20.29, 0.71 13.61, 0.62 0.76 M-0.4 26.73 C-0.85 19.61, -0.13 11.55, -1 0.56" stroke="#16222E" stroke-width="1" fill="none"></path></g><g transform="translate(282 138) rotate(0 36 13)"><text x="36" y="17.2" font-family="Cascadia, Segoe UI Emoji" font-size="12px" fill="#16222E" text-anchor="middle" style="white-space: pre;" direction="ltr">DROP</text></g><g stroke-linecap="round" transform="translate(362 138) rotate(0 40 13)"><path d="M-1.21 0.05 L78.87 0.17 L79.24 25.94 L0.94 25.34" stroke="none" stroke-width="0" fill="#CFD3D6"></path><path d="M0.57 0.29 C23.11 0.5, 44.05 1.57, 78.45 1.65 M-0.02 0.23 C30.83 0.59, 64.01 -1.1, 80.77 0.08 M81.8 -1.46 C81.09 7.79, 81.74 16.91, 80.13 25.44 M80.32 0.51 C80.22 6.38, 80.21 12.63, 79.22 26.89 M79.23 26.86 C58.84 27.81, 40.84 26.98, 1.21 26.78 M80.8 25.8 C63.66 25.6, 45.95 26.28, -0.2 25.85 M1.95 26.4 C0.48 14.35, -1.41 6.67, -1.01 -0.07 M0.47 26.73 C-0.08 17.56, 0.67 9.08, 0.77 0.51" stroke="#16222E" stroke-width="1" fill="none"></path></g><g transform="translate(362 138) rotate(0 40 13)"><text x="40" y="17.2" font-family="Cascadia, Segoe UI Emoji" font-size="12px" fill="#16222E" text-anchor="middle" style="white-space: pre;" direction="ltr">INDEX</text></g><g stroke-linecap="round" transform="translate(450 138) rotate(0 44 13)"><path d="M0.39 1.73 L87.05 -0.59 L88.26 26.88 L0.65 27.47" stroke="none" stroke-width="0" fill="#F8CDD6"></path><path d="M0 0.14 C24 0.47, 46.15 -2.04, 87.27 -0.79 M-0.61 -0.71 C25.69 0.05, 50.55 0.09, 88.45 -0.91 M87.95 -0.46 C89.53 5.33, 88.94 11.58, 89.69 25.96 M87.51 -0.69 C87 8.86, 87.08 16.57, 88.84 26.29 M87.44 26.01 C59.47 27.01, 35.11 28.02, 0.56 25.17 M87.02 25.22 C60.51 27.09, 33.53 26.68, -0.45 26.01 M-0.93 25.27 C1.81 17.61, 0.99 10.13, 1.35 -0.89 M-0.66 26.72 C1.22 15.52, -0.01 6.61, 0.53 0.46" stroke="#E23956" stroke-width="1" fill="none"></path></g><g transform="translate(450 138) rotate(0 44 13)"><text x="44" y="17.2" font-family="Cascadia, Segoe UI Emoji" font-size="12px" fill="#E23956" text-anchor="middle" style="white-space: pre;" direction="ltr">VALUES</text></g><g stroke-linecap="round" transform="translate(546 138) rotate(0 36 13)"><path d="M1.99 -0.58 L71.24 -1.35 L73.27 27.81 L0.35 25.6" stroke="none" stroke-width="0" fill="#FFE0D0"></path><path d="M-0.57 0 C18.38 2.05, 39.23 -0.03, 72.1 0.78 M0.79 0.34 C27.07 -0.48, 52.14 -0.72, 72.13 0.1 M70.09 0.55 C69.96 8.07, 72.14 16.66, 71.25 26.48 M72.7 0.12 C72.29 6.13, 72.47 10.1, 72.47 25.7 M71.65 25.15 C44.04 26.19, 17.27 25.01, -0.09 27.56 M71.25 26.65 C56.11 24.9, 40.62 25.41, -0.69 26.18 M0.19 24.15 C-1.38 20.87, -1.13 13.6, -0.28 -1.72 M0.21 26.71 C0 20.67, 0.8 12.55, 0.29 0.41" stroke="#FF611D" stroke-width="1" fill="none"></path></g><g transform="translate(546 138) rotate(0 36 13)"><text x="36" y="17.2" font-family="Cascadia, Segoe UI Emoji" font-size="12px" fill="#FF611D" text-anchor="middle" style="white-space: pre;" direction="ltr">CALL</text></g><g stroke-linecap="round" transform="translate(626 138) rotate(0 44 13)"><path d="M-0.41 1.11 L87.42 1.9 L86.29 24.75 L0.05 27.73" stroke="none" stroke-width="0" fill="#CFD3D6"></path><path d="M-1.14 -0.15 C25.44 -1.89, 49.67 0.46, 88.92 -1.65 M0.2 -0.6 C22.63 1.04, 44.1 0.52, 87.81 -0.89 M88.24 1.55 C86.4 10.81, 87.34 17.74, 88.81 27.01 M87.89 0.92 C87.07 6.6, 87.34 14.04, 88.1 25.11 M87.86 24.3 C66.28 25.39, 46.77 26.05, -0.75 25.94 M87.48 26.07 C59.16 26.24, 30.61 25.67, -0.93 26.35 M1.31 27.02 C-0.05 20.12, 1.26 13.06, -1.91 1.46 M-0.92 26.71 C0.78 18.62, -0.4 10.08, 0.06 0.36" stroke="#16222E" stroke-width="1" fill="none"></path></g><g transform="translate(626 138) rotate(0 44 13)"><text x="44" y="17.2" font-family="Cascadia, Segoe UI Emoji" font-size="12px" fill="#16222E" text-anchor="middle" style="white-space: pre;" direction="ltr">BACKUP</text></g><g stroke-linecap="round" transform="translate(722 138) rotate(0 68 13)"><path d="M1.18 -1.21 L135.6 1.14 L135.3 25.69 L-0.25 25.86" stroke="none" stroke-width="0" fill="#CFD3D6"></path><path d="M-1.71 -0.29 C37.19 -2.38, 73.48 0.4, 137.75 -0.08 M-0.39 0.46 C46.19 0.87, 92.05 0.07, 135.49 0.13 M134.39 -1.45 C134.84 4.35, 134.54 12.42, 134.37 27.53 M135.08 -0.28 C135.84 9.08, 136.21 17.97, 135.73 26.52 M136.07 27.44 C94.56 24.59, 56.37 27.08, -1.4 24.33 M135.7 25.5 C104.51 25.79, 75.19 26.13, 0.82 26.52 M-1.58 25.9 C0.76 18.18, -0.86 6.12, 0.46 0.63 M-0.05 26.7 C-0.45 16.57, 0.4 7.62, -0.18 0.32" stroke="#16222E" stroke-width="1" fill="none"></path></g><g transform="translate(722 138) rotate(0 68 13)"><text x="68" y="17.2" font-family="Cascadia, Segoe UI Emoji" font-size="12px" fill="#16222E" text-anchor="middle" style="white-space: pre;" direction="ltr">ALTER SYSTEM</text></g><g stroke-linecap="round" transform="translate(10 172) rotate(0 48 13)"><path d="M-1.22 0.48 L95.78 0.39 L96.32 26.62 L-0.54 27.99" stroke="none" stroke-width="0" fill="#E8EAED"></path><path d="M1.72 -0.43 C25.06 -0.23, 53.54 -1.03, 94.57 1.49 M-0.99 -0.48 C21.38 0.11, 43.25 1.03, 95.17 -0.86 M96.53 -0.45 C95.27 7.09, 97.74 17.49, 95.94 24.05 M96.27 0.53 C95.14 6.35, 95.6 11.51, 95.35 25.93 M96.29 26.59 C60.6 27.77, 25.46 24.08, 1.94 26.71 M95.93 26.92 C65.19 27.21, 32.44 26.46, 0.58 26.68 M-0.46 24.77 C2.09 17.44, 1.54 9.59, -1.18 -0.19 M0.83 26.69 C0.33 19.73, -0.8 15.55, -0.42 0.27" stroke="#737A82" stroke-width="1" fill="none"></path></g><g transform="translate(10 172) rotate(0 48 13)"><text x="48" y="17.2" font-family="Cascadia, Segoe UI Emoji" font-size="12px" fill="#737A82" text-anchor="middle" style="white-space: pre;" direction="ltr">INTEGER</text></g><g stroke-linecap="round" transform="translate(114 172) rotate(0 36 13)"><path d="M0.38 -1.83 L71.97 -0.37 L73.33 27.56 L-0.84 26.12" stroke="none" stroke-width="0" fill="#E8EAED"></path><path d="M1.15 -0.58 C21.27 -0.23, 38.28 -0.6, 71.4 -0.94 M0.42 0.58 C21.9 -0.11, 45.12 -1.47, 72.85 0.15 M70.68 0.56 C71.71 9.84, 72.95 18.57, 73.5 24.57 M71.46 -0.67 C71.91 6.82, 72.47 15.44, 72.98 25.34 M72.5 25.74 C55.27 26.97, 39.83 25.11, 1.29 25.1 M72.16 26.35 C55.65 25, 39.26 25.17, 0.33 26.85 M0.66 27.65 C-1.11 20.7, -0.58 13.05, 1.19 -1.02 M-0.3 26.68 C-0.37 19.68, 0.52 13.09, -0.66 0.22" stroke="#737A82" stroke-width="1" fill="none"></path></g><g transform="translate(114 172) rotate(0 36 13)"><text x="36" y="17.2" font-family="Cascadia, Segoe UI Emoji" font-size="12px" fill="#737A82" text-anchor="middle" style="white-space: pre;" direction="ltr">TEXT</text></g><g stroke-linecap="round" transform="translate(194 172) rotate(0 48 13)"><path d="M1.98 -0.15 L96.15 -1.13 L94.35 24.5 L-1.14 24.25" stroke="none" stroke-width="0" fill="#E8EAED"></path><path d="M0.58 -0.72 C26.5 1.44, 53.07 1.49, 96.23 0.63 M-0.18 -0.36 C37.29 -0.78, 76.74 -0.41, 96.52 -0.84 M96.83 1.56 C96.14 7.38, 96.15 13.25, 95.06 25.1 M96.65 0.13 C97.21 9.29, 95.86 19.38, 96.61 26.75 M96.71 24.88 C68 26.14, 42.32 26.1, 0.63 27.48 M96.38 25.77 C63.79 26.28, 31.41 25.36, 0.09 25.02 M1.78 26.52 C-0.3 19.96, 1.3 16.51, -0.44 -1.84 M0.57 26.68 C0.4 17.63, -0.68 8.62, -0.89 0.17" stroke="#737A82" stroke-width="1" fill="none"></path></g><g transform="translate(194 172) rotate(0 48 13)"><text x="48" y="17.2" font-family="Cascadia, Segoe UI Emoji" font-size="12px" fill="#737A82" text-anchor="middle" style="white-space: pre;" direction="ltr">BOOLEAN</text></g><g stroke-linecap="round" transform="translate(298 172) rotate(0 44 13)"><path d="M-0.42 1.54 L88.33 -1.88 L87.36 25.43 L-1.44 26.38" stroke="none" stroke-width="0" fill="#E8EAED"></path><path d="M0 -0.87 C23.06 1.32, 46.49 1.81, 89.05 -1.8 M-0.77 0.69 C23.8 0.76, 48.59 -1.16, 88.2 0.17 M86.97 -1.44 C88.58 6.12, 87.35 14.32, 88.62 25.62 M87.84 0.93 C87.99 6.57, 88.73 12.91, 88.24 26.16 M88.92 24.03 C56.9 25.34, 25.13 27.13, -0.02 25.87 M88.61 25.2 C66.6 25.77, 44.92 25.77, -0.15 25.19 M-1.11 25.39 C1.03 18.02, -0.3 5.58, 1.93 1.34 M-0.56 26.67 C-0.82 15.58, 0.12 6.16, 0.87 0.12" stroke="#737A82" stroke-width="1" fill="none"></path></g><g transform="translate(298 172) rotate(0 44 13)"><text x="44" y="17.2" font-family="Cascadia, Segoe UI Emoji" font-size="12px" fill="#737A82" text-anchor="middle" style="white-space: pre;" direction="ltr">DOUBLE</text></g><g stroke-linecap="round" transform="translate(394 172) rotate(0 48 13)"><path d="M1.18 -0.78 L96.51 1.36 L96.38 26.37 L-1.74 24.51" stroke="none" stroke-width="0" fill="#E8EAED"></path><path d="M-0.57 -1.01 C27.95 -2.81, 52.59 -1.9, 97.88 -0.23 M0.63 -0.25 C36.01 0.26, 69.83 0.07, 95.88 -0.82 M97.12 -0.44 C97.01 8.86, 94.55 19.4, 94.19 26.14 M95.03 -0.26 C96.76 9.04, 95.6 16.85, 95.86 25.57 M97.13 27.18 C75.41 24.52, 55.18 24.13, -0.67 24.26 M96.83 26.62 C62.38 27.27, 30.37 26.18, -0.4 25.35 M0.01 24.27 C-2.16 17.27, 1.58 9.04, 0.29 0.51 M0.31 26.66 C-0.04 20.74, -1.08 14.09, 0.63 0.08" stroke="#737A82" stroke-width="1" fill="none"></path></g><g transform="translate(394 172) rotate(0 48 13)"><text x="48" y="17.2" font-family="Cascadia, Segoe UI Emoji" font-size="12px" fill="#737A82" text-anchor="middle" style="white-space: pre;" direction="ltr">DECIMAL</text></g><g stroke-linecap="round" transform="translate(498 172) rotate(0 36 13)"><path d="M-1.22 0.91 L72.69 0.61 L73.39 27.3 L1.97 26.64" stroke="none" stroke-width="0" fill="#E8EAED"></path><path d="M-1.14 -1.16 C20.16 -1.08, 37.33 0.26, 70.7 1.34 M0.04 0.81 C18.72 -0.31, 36.09 1.22, 71.56 0.19 M71.27 0.56 C73.45 6.4, 73.75 14.08, 71.75 26.66 M72.22 0.54 C72.06 9.51, 72.99 20.79, 71.49 26.98 M73.34 26.32 C52.1 27.76, 33.58 25.2, -1.33 26.64 M71.06 26.05 C55.2 26.54, 35.89 26.36, -0.64 25.52 M1.13 27.14 C-0.83 20.53, -0.03 12.51, -1.34 -0.31 M-0.81 26.66 C-0.74 18.69, 0.25 11.63, 0.4 0.03" stroke="#737A82" stroke-width="1" fill="none"></path></g><g transform="translate(498 172) rotate(0 36 13)"><text x="36" y="17.2" font-family="Cascadia, Segoe UI Emoji" font-size="12px" fill="#737A82" text-anchor="middle" style="white-space: pre;" direction="ltr">UUID</text></g><g stroke-linecap="round" transform="translate(578 172) rotate(0 52 13)"><path d="M0.38 -1.4 L104.88 -0.15 L102.41 24.24 L1.67 24.77" stroke="none" stroke-width="0" fill="#E8EAED"></path><path d="M-1.71 -1.3 C27.57 -1.19, 56.46 0.57, 103.53 -1.09 M-0.56 -0.13 C35.42 1.34, 70.31 0.59, 103.24 -0.8 M105.41 1.57 C105.88 9.14, 104.95 15.16, 105.31 27.19 M103.42 -0.66 C104.83 6.78, 103.86 14.32, 103.12 26.38 M105.55 25.47 C68.92 26.87, 32.24 26.13, -1.98 25.03 M103.29 25.47 C68.18 26.29, 31.73 25.03, -0.89 25.69 M-1.75 26.02 C-0.02 14.59, 1.85 5.57, 1.03 -1.14 M0.06 26.65 C0.03 16.64, 1.05 9.16, 0.16 -0.02" stroke="#737A82" stroke-width="1" fill="none"></path></g><g transform="translate(578 172) rotate(0 52 13)"><text x="52" y="17.2" font-family="Cascadia, Segoe UI Emoji" font-size="12px" fill="#737A82" text-anchor="middle" style="white-space: pre;" direction="ltr">DATETIME</text></g><g stroke-linecap="round" transform="translate(10 206) rotate(0 90 16)"><path d="M1.97 0.28 L181.06 -0.91 L179.42 31.18 L1.37 32.9" stroke="none" stroke-width="0" fill="#F09CAB"></path><path d="M1.72 -1.45 C46.92 1.18, 99.48 -0.63, 180.35 0.48 M0.85 0.93 C40.16 1.55, 80.63 2.52, 180.92 0.22 M179.56 -1.43 C177.74 14.22, 179.58 24.9, 178.87 33.71 M180.61 0.15 C179.56 11.28, 180.68 22.3, 180.75 31.79 M181.76 30.61 C108.14 31.81, 35.7 32.9, 1.36 33.41 M179.51 32.9 C134.55 31.71, 88.37 31.36, 0.87 31.85 M-0.64 30.89 C1.34 21.78, 0.29 10.9, -0.61 -1.96 M0.93 32.64 C0.8 20.25, -0.16 6.01, -0.08 -0.07" stroke="#E23956" stroke-width="1" fill="none"></path></g><g transform="translate(10 206) rotate(0 90 16)"><text x="90" y="21.2" font-family="Cascadia, Segoe UI Emoji" font-size="15px" fill="#E23956" text-anchor="middle" style="white-space: pre;" direction="ltr">DISTRIBUTED BY</text></g><g stroke-linecap="round" transform="translate(198 206) rotate(0 120 16)"><path d="M-0.43 1.97 L241.24 -1.66 L240.44 32.11 L1.07 31.03" stroke="none" stroke-width="0" fill="#F09CAB"></path><path d="M0.96 -1.32 C65.8 0.22, 129.9 -0.94, 240.98 -1.63 M0.21 -0.01 C73.79 -2.34, 148.52 -1.76, 240.5 -0.64 M241.71 -0.43 C238.19 6.98, 238.79 18.02, 240.43 30.23 M239.8 0.95 C240.93 5.79, 240.14 14.32, 240.37 31.2 M241.65 33.47 C177.19 30.95, 114.75 30.05, 0.59 31.83 M239.78 32.27 C154.11 31.81, 69.19 32.28, 0.52 32.02 M0.48 33.76 C-1.9 21.36, -1.88 14.99, 1.76 1.21 M-0.2 32.64 C-0.45 24.27, 0.61 15.68, -0.31 -0.11" stroke="#E23956" stroke-width="1" fill="none"></path></g><g transform="translate(198 206) rotate(0 120 16)"><text x="120" y="21.2" font-family="Cascadia, Segoe UI Emoji" font-size="15px" fill="#E23956" text-anchor="middle" style="white-space: pre;" direction="ltr">DISTRIBUTED GLOBALLY</text></g><g stroke-linecap="round" transform="translate(446 206) rotate(0 90 16)"><path d="M1.17 -0.34 L181.42 1.58 L181.45 33.05 L0.78 33.16" stroke="none" stroke-width="0" fill="#FFE0D0"></path><path d="M0.58 -1.73 C48.37 -0.44, 99.01 -1.39, 178.01 -0.38 M-0.34 -0.95 C70.43 -0.55, 140.82 -0.14, 180.27 0.24 M179.85 0.57 C178.63 10.14, 178 19.93, 182 30.75 M180.99 -0.25 C179.66 8.71, 178.97 19.14, 180 32.61 M178.19 32.91 C121.81 30.11, 61.09 30.85, 0.05 30.19 M179.97 31.75 C132.54 33.47, 86.11 32.95, 0.38 32.19 M1.6 32.64 C-0.51 24.93, 0.58 15.09, 0.13 0.39 M0.67 32.63 C0.94 21.9, 0.03 12.56, -0.55 -0.16" stroke="#FF611D" stroke-width="1" fill="none"></path></g><g transform="translate(446 206) rotate(0 90 16)"><text x="90" y="21.2" font-family="Cascadia, Segoe UI Emoji" font-size="15px" fill="#FF611D" text-anchor="middle" style="white-space: pre;" direction="ltr">BEGIN...COMMIT</text></g><g stroke-linecap="round" transform="translate(10 250) rotate(0 7 7)"><path d="M-2.46 2.69 L17.21 1.65 L10.93 17.97 L0.96 12.58" stroke="none" stroke-width="0" fill="#F8CDD6"></path><path d="M0.01 -2.63 C1.31 -2.73, 6.26 2.12, 12.36 1.66 M-1.31 0.15 C3.05 -0.47, 7.22 -0.28, 13.93 -1.05 M11.2 2.21 C12.79 6.34, 15.78 11.62, 13.38 12.99 M14.25 0.78 C15.28 5.25, 14.44 8.69, 13.48 14.03 M11.76 14.07 C9.23 11.17, 2.33 14.76, -0.84 14.8 M14.27 12.84 C7.76 12.58, 2.82 13.13, 0.19 14.5 M-1.8 13.32 C0.35 6.45, -2.23 1.94, -2.11 -0.61 M-0.64 14.87 C-0.52 10.28, 1.04 4.32, -1.1 -0.29" stroke="#E23956" stroke-width="1" fill="none"></path></g><g transform="translate(28 250) rotate(0 32 7)"><text x="0" y="10.8" font-family="Cascadia, Segoe UI Emoji" font-size="11px" fill="#E23956" text-anchor="start" style="white-space: pre;" direction="ltr">DQL</text></g><g stroke-linecap="round" transform="translate(100 250) rotate(0 7 7)"><path d="M0.74 -1.94 L17.58 0.14 L12.96 11.85 L0.36 16.84" stroke="none" stroke-width="0" fill="#FFE0D0"></path><path d="M-0.79 2.77 C5.12 -2.05, 8.73 -2.19, 13.52 -1.74 M0.66 -1.17 C3.91 1.36, 10.1 1.16, 13.48 0.36 M14.21 -1.99 C13.38 5.8, 14.65 10, 15.57 13.72 M13.12 -0.9 C13.63 4.26, 12.92 5.3, 12.96 13.2 M12.05 12.88 C11.32 15.68, 7.95 16.23, -1.75 12.54 M14.59 14.84 C11.42 14.19, 7.17 13.22, -0.15 14.73 M-0.23 11.74 C1.56 9.83, 0.48 4.43, 1.21 -1.76 M0.58 14.86 C0.61 11.45, -0.6 8.93, 1.36 -0.36" stroke="#FF611D" stroke-width="1" fill="none"></path></g><g transform="translate(118 250) rotate(0 32 7)"><text x="0" y="10.8" font-family="Cascadia, Segoe UI Emoji" font-size="11px" fill="#FF611D" text-anchor="start" style="white-space: pre;" direction="ltr">DML</text></g><g stroke-linecap="round" transform="translate(190 250) rotate(0 7 7)"><path d="M3.94 1.43 L17.94 -1.37 L14.99 13.72 L-0.24 13.09" stroke="none" stroke-width="0" fill="#CFD3D6"></path><path d="M-1.59 2.57 C3.33 -0.8, 5.59 -0.35, 14.67 0.45 M-0.18 0.31 C4.77 0.4, 7.37 -0.19, 13.03 -1.02 M11.61 -0.59 C13.98 2.47, 13.51 8.37, 12.16 14.45 M14.78 0.22 C14.78 3.27, 14.2 7.52, 15.24 15.17 M12.35 11.68 C10.61 14.58, 7.97 12.09, -2.67 15.88 M14.9 14.03 C9.47 12.99, 3.13 13.3, -0.49 14.97 M1.33 15.76 C-2.27 7.61, -1.85 6.91, -1.08 2.68 M-1 14.85 C-1.06 9.82, 0.56 7.95, 1.03 -0.43" stroke="#16222E" stroke-width="1" fill="none"></path></g><g transform="translate(208 250) rotate(0 32 7)"><text x="0" y="10.8" font-family="Cascadia, Segoe UI Emoji" font-size="11px" fill="#16222E" text-anchor="start" style="white-space: pre;" direction="ltr">DDL</text></g><g stroke-linecap="round" transform="translate(280 250) rotate(0 7 7)"><path d="M-0.87 -3.19 L10.3 -2.88 L17.02 15.59 L-0.83 17.35" stroke="none" stroke-width="0" fill="#E8DBF5"></path><path d="M-2.39 2.36 C1.54 -0.11, 8.06 0.94, 15.83 2.65 M-1.01 -1.01 C5.62 -0.57, 10.25 1.25, 15.38 0.4 M14.62 0.82 C14.58 1.94, 12.38 6.74, 14.34 15.18 M13.65 1.35 C13.69 5.09, 13.24 9.73, 14.72 14.35 M12.64 16.09 C9.9 13.49, 2.38 13.55, 2.01 13.62 M15.22 13.23 C10.33 14.6, 7.48 13.39, -0.84 15.2 M-2.7 14.19 C-1.06 10.99, 0.85 9.4, 2.24 1.53 M0.22 14.84 C0.06 8.18, -1.08 4.16, 0.7 -0.5" stroke="#6B3FA0" stroke-width="1" fill="none"></path></g><g transform="translate(298 250) rotate(0 32 7)"><text x="0" y="10.8" font-family="Cascadia, Segoe UI Emoji" font-size="11px" fill="#6B3FA0" text-anchor="start" style="white-space: pre;" direction="ltr">DCL</text></g><g stroke-linecap="round" transform="translate(370 250) rotate(0 7 7)"><path d="M2.33 0.18 L10.67 3.61 L11.05 17.46 L-1.43 13.61" stroke="none" stroke-width="0" fill="#E8EAED"></path><path d="M2.41 2.16 C5.35 1.13, 4.92 2.78, 11.39 -0.75 M0.96 0.47 C3.68 1.26, 7.52 -0.11, 14.93 -0.99 M12.02 2.22 C15.17 4.21, 11.25 5.11, 16.53 15.91 M15.32 -0.33 C14.83 4.1, 14.52 6.34, 14.19 13.52 M12.94 14.89 C12 12.4, 8 15.02, 1.1 11.36 M12.74 15.22 C8.39 12.84, 3.44 12.91, -1.18 12.64 M-1.14 12.61 C0.7 5.97, -1.48 6.28, -0.05 0.38 M-1.36 14.83 C-1.05 9.35, 0.64 3.18, 0.37 -0.56" stroke="#737A82" stroke-width="1" fill="none"></path></g><g transform="translate(388 250) rotate(0 32 7)"><text x="0" y="10.8" font-family="Cascadia, Segoe UI Emoji" font-size="11px" fill="#737A82" text-anchor="start" style="white-space: pre;" direction="ltr">types</text></g><g stroke-linecap="round" transform="translate(460 250) rotate(0 7 7)"><path d="M-2.47 3.55 L11.03 2.1 L13.08 11.34 L-2.02 17.87" stroke="none" stroke-width="0" fill="#F09CAB"></path><path d="M1.61 1.96 C3.56 1.82, 7.38 -1.54, 12.54 1.44 M0.13 -0.85 C4.54 -0.26, 7.6 0.77, 14.48 0.43 M15.03 -1.98 C15.77 6.48, 15.72 9.08, 13.12 16.65 M14.18 0.8 C13.18 5.91, 13 8.56, 13.67 12.69 M13.24 13.7 C11.29 11.3, 8.02 16.48, 0.18 14.7 M13.05 14.42 C9.24 14.45, 4.99 13, 1.28 12.87 M0.43 16.64 C1.91 9.35, 1.22 3.17, -2.34 -0.78 M-0.14 14.82 C0.08 10.52, -1 7.8, 0.04 -0.63" stroke="#E23956" stroke-width="1" fill="none"></path></g><g transform="translate(478 250) rotate(0 32 7)"><text x="0" y="10.8" font-family="Cascadia, Segoe UI Emoji" font-size="11px" fill="#E23956" text-anchor="start" style="white-space: pre;" direction="ltr">Picodata</text></g></svg>