<svg version="1.1" xmlns="http://www.w3.org/2000/svg" viewBox="0 0 790 261" width="790" height="261">
  <!-- svg-source:excalidraw -->
  
  <defs>
    <style>
      @font-face {
        font-family: "Virgil";
        src: url("https://excalidraw.com/Virgil.woff2");
      }
      @font-face {
        font-family: "Cascadia";
        src: url("https://excalidraw.com/Cascadia.woff2");
      }
    </style>
  </defs>
  <rect x="0" y="0" width="790" height="261" fill="transparent"></rect><g stroke-linecap="round" transform="translate(10 10) rotate(0 85 90)"><path d="M2.38 3.61 L168.03 -1.67 L171.07 182.31 L-3.2 179.41" stroke="none" stroke-width="0" fill="#F8CDD6"></path><path d="M2.54 0.56 C58.98 3.09, 119.68 -1.43, 167.89 -1.51 M-1.09 -1.42 C57.2 2.69, 118.95 -0.11, 168.84 -0.27 M167.02 -2.3 C167.88 45.59, 167.51 85.18, 171.64 177.35 M171.39 -1.28 C171.45 55.12, 169.55 108.53, 170.4 181.92 M166.36 179.36 C112.39 180.81, 49.15 181.17, 2.91 182.33 M170.92 178.9 C105.81 177.12, 41.04 178.45, -0.52 178.16 M0.79 180.31 C0.43 142.11, -1.76 107.6, 1.65 -3.49 M0.12 178.25 C2.85 117.42, 4.06 53.52, 1.68 0.08" stroke="#E23956" stroke-width="2" fill="none"></path></g><g transform="translate(10 16) rotate(0 85 18)"><text x="85" y="13.1" font-family="Cascadia, Segoe UI Emoji" font-size="14px" fill="#E23956" text-anchor="middle" style="white-space: pre;" direction="ltr">Storage</text><text x="85" y="29.9" font-family="Cascadia, Segoe UI Emoji" font-size="14px" fill="#E23956" text-anchor="middle" style="white-space: pre;" direction="ltr">(hot, RAM)</text></g><g stroke-linecap="round" transform="translate(30 62) rotate(0 30 15)"><path d="M-2.42 -1.01 L58.4 -3.18 L63.1 26.19 L-3.8 33.67" stroke="none" stroke-width="0" fill="#FDECEF"></path><path d="M1.4 0.27 C18.27 2.78, 38.88 -0.89, 59.54 1.63 M1.72 0.7 C15.82 0.35, 25.85 0.99, 58.2 1.75 M61.31 -0.3 C57.88 6.75, 63.04 14.68, 56.76 28.4 M59.77 0.33 C59.12 9.93, 61.41 24.14, 59.65 30.73 M56.78 27.65 C49.28 28.41, 34.99 32.42, 1.6 29.1 M61.37 31.75 C43.12 30.87, 25.45 30.03, -1.01 28.49 M3.03 28.06 C-1.88 22.84, -1.93 4.96, -1.61 2.87 M1.86 28.23 C2.08 23.24, -0.66 18.42, 1.2 -0.01" stroke="#E23956" stroke-width="1" fill="none"></path></g><g transform="translate(30 62) rotate(0 30 15)"><text x="30" y="19.2" font-family="Cascadia, Segoe UI Emoji" font-size="12px" fill="#E23956" text-anchor="middle" style="white-space: pre;" direction="ltr">RS 1</text></g><g stroke-linecap="round" transform="translate(100 62) rotate(0 30 15)"><path d="M0.78 2.36 L58.76 3.31 L57.13 28.06 L3.61 29.93" stroke="none" stroke-width="0" fill="#FDECEF"></path><path d="M0.26 -0.02 C23.71 -2.49, 42.4 2.7, 61.2 -3.23 M0.54 -1.18 C20.46 0.78, 36.79 0.87, 61.55 -0.23 M57.6 1.71 C58.76 10.69, 61.46 21.76, 59.89 29.44 M58.15 1.93 C61.81 7.26, 60.29 12.78, 58.91 29.55 M57.21 33.95 C45.76 26.82, 30 26.48, 0.29 33.87 M61.83 30.6 C36.2 29.53, 11.38 30.52, -1.49 28.83 M-2.74 33.81 C-0.33 20.2, 1.75 9.56, 3.12 1.22 M-0.4 28.22 C-0.41 20.36, 0.91 15.91, 0.73 -0.11" stroke="#E23956" stroke-width="1" fill="none"></path></g><g transform="translate(100 62) rotate(0 30 15)"><text x="30" y="19.2" font-family="Cascadia, Segoe UI Emoji" font-size="12px" fill="#E23956" text-anchor="middle" style="white-space: pre;" direction="ltr">RS 2</text></g><g transform="translate(14 144) rotate(0 81 20)"><text x="0" y="16.1" font-family="Cascadia, Segoe UI Emoji" font-size="11px" fill="#2B1321" text-anchor="start" style="white-space: pre;" direction="ltr">buckets: 3000</text><text x="0" y="29.3" font-family="Cascadia, Segoe UI Emoji" font-size="11px" fill="#2B1321" text-anchor="start" style="white-space: pre;" direction="ltr">RF: 3</text></g><g stroke-linecap="round" transform="translate(210 10) rotate(0 85 90)"><path d="M-2.43 3.42 L173.31 1.04 L170.17 180.87 L-1.29 182.32" stroke="none" stroke-width="0" fill="#FFE0D0"></path><path d="M2.54 3.55 C58.04 0.81, 120.02 -4.72, 169.67 1.47 M0.75 1.99 C40.32 1.33, 83 2.58, 168.59 0.81 M170.04 -3.28 C172.98 48.15, 167.97 103.45, 170.57 177.01 M171.72 0.34 C171.69 47.39, 170.45 90.01, 169.79 179.78 M171.84 181.38 C105.94 182.9, 43.41 184.04, -1.67 179.03 M168.51 178.87 C126.67 175.16, 85.98 176.88, 1.77 179.33 M-3.39 180.43 C2.36 136.56, -0.35 99.12, 2.22 2.74 M-1.78 178.2 C-1.08 134.42, 2.31 90.93, -1.98 -0.25" stroke="#FF611D" stroke-width="2" fill="none"></path></g><g transform="translate(210 16) rotate(0 85 18)"><text x="85" y="13.1" font-family="Cascadia, Segoe UI Emoji" font-size="14px" fill="#FF611D" text-anchor="middle" style="white-space: pre;" direction="ltr">Storage</text><text x="85" y="29.9" font-family="Cascadia, Segoe UI Emoji" font-size="14px" fill="#FF611D" text-anchor="middle" style="white-space: pre;" direction="ltr">(cold, LSM)</text></g><g stroke-linecap="round" transform="translate(230 62) rotate(0 30 15)"><path d="M0.77 -1.21 L63.67 -0.47 L62.2 32.74 L-1.88 28.58" stroke="none" stroke-width="0" fill="#FFF3EC"></path><path d="M1.4 3.26 C17.32 4.74, 39.2 0.06, 61.32 -3.39 M-0.44 0.11 C18.06 -0.92, 40.14 -0.23, 61.94 -1.17 M56.34 -1.28 C56.37 10.55, 56.9 19.44, 63.7 28.06 M60.11 1.95 C58.14 8.58, 61.09 18.36, 59.05 28.6 M62.26 29.68 C44.97 30.83, 33.52 27.62, -2.98 33.8 M58.96 31.72 C40.9 29.78, 16.2 29.34, 1.29 29.66 M-1.15 28.18 C1.33 19.59, 0.76 9.08, -1.04 1.1 M-0.04 28.18 C-0.01 22.15, -0.58 11.64, 1.55 -0.35" stroke="#FF611D" stroke-width="1" fill="none"></path></g><g transform="translate(230 62) rotate(0 30 15)"><text x="30" y="19.2" font-family="Cascadia, Segoe UI Emoji" font-size="12px" fill="#FF611D" text-anchor="middle" style="white-space: pre;" direction="ltr">RS 3</text></g><g stroke-linecap="round" transform="translate(300 62) rotate(0 30 15)"><path d="M3.97 2.16 L56.04 -1.98 L56.23 26.61 L-2.48 32.84" stroke="none" stroke-width="0" fill="#FFF3EC"></path><path d="M0.26 2.97 C22.76 -2.93, 42.72 1.25, 62.98 -0.25 M-1.63 -1.78 C14.7 -0.48, 27.08 -0.35, 61.3 0.85 M60.63 0.72 C57.25 8.49, 63.31 14.52, 58.82 29.1 M58.49 -0.45 C60.84 5.9, 59.97 10.99, 58.3 31.41 M62.68 27.97 C41.45 29.23, 28.53 29.68, 3.72 30.57 M59.41 30.57 C45.97 28.44, 30.13 29.83, 0.8 30 M1.08 33.93 C2.87 16.94, -3.55 13.68, 3.69 -0.55 M1.71 28.17 C1.51 19.27, 0.99 9.14, 1.07 -0.44" stroke="#FF611D" stroke-width="1" fill="none"></path></g><g transform="translate(300 62) rotate(0 30 15)"><text x="30" y="19.2" font-family="Cascadia, Segoe UI Emoji" font-size="12px" fill="#FF611D" text-anchor="middle" style="white-space: pre;" direction="ltr">RS 4</text></g><g transform="translate(214 144) rotate(0 81 20)"><text x="0" y="16.1" font-family="Cascadia, Segoe UI Emoji" font-size="11px" fill="#2B1321" text-anchor="start" style="white-space: pre;" direction="ltr">buckets: 1000</text><text x="0" y="29.3" font-family="Cascadia, Segoe UI Emoji" font-size="11px" fill="#2B1321" text-anchor="start" style="white-space: pre;" direction="ltr">RF: 2</text></g><g stroke-linecap="round" transform="translate(410 10) rotate(0 85 90)"><path d="M0.77 3.22 L170.58 3.75 L169.27 179.42 L0.63 177.23" stroke="none" stroke-width="0" fill="#CFD3D6"></path><path d="M2.55 -1.46 C57.1 5.34, 120.35 -1.21, 171.45 -3.54 M-1.41 1.4 C57.44 -0.04, 115.06 1.26, 168.34 1.89 M173.07 3.73 C170.08 58.7, 168.43 113.72, 169.51 176.67 M168.06 1.96 C171.93 39.67, 171.35 75.49, 169.18 181.64 M169.32 183.41 C107.49 176.98, 37.67 178.9, 1.75 183.73 M170.09 178.85 C117.54 183.99, 62.92 182.12, 0.06 180.5 M0.44 180.55 C5.08 139, 1.87 90.64, 2.79 0.97 M0.32 178.15 C-1.01 119.42, -3.45 60.33, -1.64 -0.59" stroke="#16222E" stroke-width="2" fill="none"></path></g><g transform="translate(410 16) rotate(0 85 18)"><text x="85" y="13.1" font-family="Cascadia, Segoe UI Emoji" font-size="14px" fill="#16222E" text-anchor="middle" style="white-space: pre;" direction="ltr">Compute</text><text x="85" y="29.9" font-family="Cascadia, Segoe UI Emoji" font-size="14px" fill="#16222E" text-anchor="middle" style="white-space: pre;" direction="ltr">(SQL)</text></g><g stroke-linecap="round" transform="translate(430 62) rotate(0 30 15)"><path d="M3.96 -1.4 L60.95 2.24 L61.3 31.29 L0.03 31.49" stroke="none" stroke-width="0" fill="#E8EAED"></path><path d="M1.41 -1.75 C24.37 -3.7, 39.53 -1.39, 63.1 -0.4 M1.4 -0.48 C12.3 1.81, 26.43 2.55, 61.69 -0.09 M59.36 -2.26 C62.86 14.35, 58.75 24.2, 62.63 27.71 M60.44 -0.43 C61.17 7.22, 60.77 16.58, 58.44 30.46 M59.74 31.7 C48.66 33.24, 32.05 30.82, 0.44 30.5 M60.54 31.7 C46.67 28.69, 34.95 28.65, -0.42 30.84 M2.67 28.3 C-3.47 16.33, 3.46 5.2, -0.47 -0.67 M-1.93 28.14 C-2.1 17.06, -0.5 4.87, 1.89 -0.68" stroke="#16222E" stroke-width="1" fill="none"></path></g><g transform="translate(430 62) rotate(0 30 15)"><text x="30" y="19.2" font-family="Cascadia, Segoe UI Emoji" font-size="12px" fill="#16222E" text-anchor="middle" style="white-space: pre;" direction="ltr">RS 5</text></g><g stroke-linecap="round" transform="translate(500 62) rotate(0 30 15)"><path d="M-0.84 1.97 L61.31 0.73 L63.33 33.17 L-0.56 27.75" stroke="none" stroke-width="0" fill="#E8EAED"></path><path d="M0.26 -2.04 C21.81 -0.96, 43.05 2.2, 56.75 2.74 M0.21 1.63 C16.94 0.65, 37.37 0.83, 61.05 1.93 M63.66 -0.26 C63.75 4.29, 57.17 19.28, 57.76 28.76 M58.82 1.18 C58.66 10.55, 58.45 21.21, 61.69 29.28 M60.16 29.99 C45.14 31.65, 19.06 32.87, -0.86 27.27 M61 30.55 C39.75 31.35, 20.88 29.14, -0.91 31.17 M-3.09 26.05 C-0.72 21.69, 0.35 9.8, -3.74 -2.32 M-0.19 28.12 C0.62 24.17, 2.27 14.36, 1.41 -0.78" stroke="#16222E" stroke-width="1" fill="none"></path></g><g transform="translate(500 62) rotate(0 30 15)"><text x="30" y="19.2" font-family="Cascadia, Segoe UI Emoji" font-size="12px" fill="#16222E" text-anchor="middle" style="white-space: pre;" direction="ltr">RS 6</text></g><g transform="translate(414 144) rotate(0 81 20)"><text x="0" y="16.1" font-family="Cascadia, Segoe UI Emoji" font-size="11px" fill="#2B1321" text-anchor="start" style="white-space: pre;" direction="ltr">buckets: 0</text><text x="0" y="29.3" font-family="Cascadia, Segoe UI Emoji" font-size="11px" fill="#2B1321" text-anchor="start" style="white-space: pre;" direction="ltr">RF: 2</text></g><g stroke-linecap="round" transform="translate(610 10) rotate(0 85 90)"><path d="M3.96 3.03 L167.86 -1.54 L168.38 177.98 L2.54 180.14" stroke="none" stroke-width="0" fill="#E8EAED"></path><path d="M2.55 1.53 C56.16 3.06, 120.69 -4.5, 173.23 -0.56 M0.43 0.81 C40.57 2.6, 83.11 -0.06, 168.09 -1.04 M168.1 2.75 C174.38 69.25, 176.09 131.99, 168.44 176.33 M168.39 -0.42 C168.98 67.94, 165.05 132.97, 168.58 179.5 M166.8 177.43 C135.04 179.06, 99.93 181.77, -2.83 180.43 M171.67 178.82 C108.41 182.03, 43.86 180.55, -1.64 181.67 M-3.74 180.67 C-0.2 133.45, 4.08 90.16, 3.36 -0.8 M-1.58 178.1 C2.26 140.42, 1.99 97.74, -1.3 -0.92" stroke="#737A82" stroke-width="2" fill="none"></path></g><g transform="translate(610 16) rotate(0 85 18)"><text x="85" y="22.9" font-family="Cascadia, Segoe UI Emoji" font-size="14px" fill="#737A82" text-anchor="middle" style="white-space: pre;" direction="ltr">Arbiter</text></g><g stroke-linecap="round" transform="translate(630 62) rotate(0 30 15)"><path d="M-0.85 -1.6 L58.22 -3.05 L60.41 29.85 L1.95 26.4" stroke="none" stroke-width="0" fill="#F4F5F6"></path><path d="M1.41 1.24 C23.42 -1.73, 39.85 -0.44, 56.88 2.58 M-0.76 -1.08 C18.54 0.54, 40.72 1.33, 61.44 0.99 M62.39 -3.25 C61.35 4.14, 60.6 16.96, 61.57 27.37 M60.78 1.19 C60.19 5.86, 60.45 14.8, 61.83 28.32 M57.22 33.72 C44.34 27.66, 30.58 26.01, 3.87 27.2 M58.13 31.67 C44.44 30, 25.7 30.36, 1.87 28.01 M-1.5 28.42 C-0.26 27.08, -1.84 21.32, 0.1 -2.44 M0.17 28.09 C1.01 21.96, 0.78 14.09, -1.77 -1.02" stroke="#737A82" stroke-width="1" fill="none"></path></g><g transform="translate(630 62) rotate(0 30 15)"><text x="30" y="19.2" font-family="Cascadia, Segoe UI Emoji" font-size="12px" fill="#737A82" text-anchor="middle" style="white-space: pre;" direction="ltr">RS 7</text></g><g stroke-linecap="round" transform="translate(700 62) rotate(0 30 15)"><path d="M2.35 1.77 L58.59 3.44 L62.44 31.72 L1.35 30.66" stroke="none" stroke-width="0" fill="#F4F5F6"></path><path d="M0.27 0.95 C20.86 -1.4, 43.37 0.75, 58.53 -2.28 M-1.95 1.04 C11.18 -0.62, 23.66 -0.39, 60.8 -0.99 M58.69 -1.24 C62.24 8.09, 59.02 16.04, 56.69 28.42 M59.16 -1.2 C61.68 9.19, 58.13 19.43, 61.09 31.14 M57.64 32.02 C40.83 26.06, 17.59 28.07, 2.56 31.97 M58.58 30.52 C37.52 30.26, 15.63 28.44, 1.38 28.34 M0.73 26.17 C2.48 18.44, 3.04 5.92, -3.17 3.91 M1.91 28.07 C-1.47 19.08, -1.65 11.58, 1.75 -1.11" stroke="#737A82" stroke-width="1" fill="none"></path></g><g transform="translate(700 62) rotate(0 30 15)"><text x="30" y="19.2" font-family="Cascadia, Segoe UI Emoji" font-size="12px" fill="#737A82" text-anchor="middle" style="white-space: pre;" direction="ltr">RS 8</text></g><g stroke-linecap="round" transform="translate(630 100) rotate(0 30 15)"><path d="M-2.45 -2.85 L58.95 1.93 L56.47 33.59 L0.76 26.92" stroke="none" stroke-width="0" fill="#F4F5F6"></path><path d="M-0.87 0.66 C18.3 -1.07, 38.89 1.94, 60.19 0.86 M0.86 -0.84 C19.82 -0.19, 34.6 -0.51, 60.16 1.03 M62.98 0.76 C63.12 12.03, 57.43 23.11, 59.82 29.46 M61.54 0.4 C60.37 12.52, 61.01 24.06, 60.34 29.96 M58.06 30.31 C37.31 32.47, 12.59 30.12, 1.25 28.74 M59.03 29.37 C42.6 28.92, 25.56 28.93, 0.89 28.68 M2.97 31.91 C-3.97 23.79, -1.27 10.53, 1.57 2.26 M-0.34 28.06 C0.04 16.2, -0.09 5.07, 1.28 -1.21" stroke="#737A82" stroke-width="1" fill="none"></path></g><g transform="translate(630 100) rotate(0 30 15)"><text x="30" y="19.2" font-family="Cascadia, Segoe UI Emoji" font-size="12px" fill="#737A82" text-anchor="middle" style="white-space: pre;" direction="ltr">RS 9</text></g><g transform="translate(614 144) rotate(0 81 20)"><text x="0" y="9.6" font-family="Cascadia, Segoe UI Emoji" font-size="11px" fill="#2B1321" text-anchor="start" style="white-space: pre;" direction="ltr">buckets: 0</text><text x="0" y="22.8" font-family="Cascadia, Segoe UI Emoji" font-size="11px" fill="#2B1321" text-anchor="start" style="white-space: pre;" direction="ltr">RF: 3</text><text x="0" y="36.0" font-family="Cascadia, Segoe UI Emoji" font-size="11px" fill="#2B1321" text-anchor="start" style="white-space: pre;" direction="ltr">can_vote: true</text></g><g stroke-linecap="round" transform="translate(10 215) rotate(0 385 18)"><path d="M2.35 -1.79 L773.5 -0.34 L769.51 34.4 L3.86 35.31" stroke="none" stroke-width="0" fill="#F0E8ED"></path><path d="M0.57 -1.51 C267.99 -0.1, 534.07 0.02, 769.46 -0.97 M0.43 -0.67 C174.27 3.32, 349.13 3.65, 770.48 -0.77 M767.42 3.77 C771.12 9.63, 773.73 17.11, 770.5 33.03 M771.11 -1.19 C769.31 5.71, 770.23 15.42, 771.22 36.19 M771.08 35.1 C545.99 34.44, 325.61 34.1, -0.29 36.76 M769.88 36.66 C508.58 37.68, 248.78 37.98, 0.06 35.67 M2.32 34.54 C2.88 28.52, 0.79 20.82, 0.67 3.79 M-1.73 34.04 C-1.1 20.61, 0.85 8.78, -1.43 -1.35" stroke="#2B1321" stroke-width="2" fill="none"></path></g><g transform="translate(10 215) rotate(0 385 18)"><text x="385" y="22.6" font-family="Cascadia, Segoe UI Emoji" font-size="13px" fill="#2B1321" text-anchor="middle" style="white-space: pre;" direction="ltr">Raft ring — schema · topology · bucket map · users · ACL</text></g><g stroke-linecap="round"><g transform="translate(95 190) rotate(0 0 12.5)"><path d="M1.89 0.19 C2.13 4.49, 3.19 19.98, 2.76 24.36" stroke="#2B1321" stroke-width="1.5" fill="none" stroke-dasharray="8 9"></path></g></g><g stroke-linecap="round"><g transform="translate(295 190) rotate(0 0 12.5)"><path d="M-2.57 2.59 C-2.82 6.58, -1 19.75, -0.14 23.46" stroke="#2B1321" stroke-width="1.5" fill="none" stroke-dasharray="8 9"></path></g></g><g stroke-linecap="round"><g transform="translate(495 190) rotate(0 0 12.5)"><path d="M-1.44 -0.61 C-1.23 3.08, 2.28 18.58, 2.56 22.56" stroke="#2B1321" stroke-width="1.5" fill="none" stroke-dasharray="8 9"></path></g></g><g stroke-linecap="round"><g transform="translate(695 190) rotate(0 0 12.5)"><path d="M-0.31 1.79 C-0.58 6.1, -0.04 23.01, -0.35 27.27" stroke="#2B1321" stroke-width="1.5" fill="none" stroke-dasharray="8 9"></path></g></g></svg>