<svg version="1.1" xmlns="http://www.w3.org/2000/svg" viewBox="0 0 528 418" width="528" height="418">
  <!-- svg-source:excalidraw -->
  
  <defs>
    <style>
      @font-face {
        font-family: "Virgil";
        src: url("https://excalidraw.com/Virgil.woff2");
      }
      @font-face {
        font-family: "Cascadia";
        src: url("https://excalidraw.com/Cascadia.woff2");
      }
    </style>
  </defs>
  <rect x="0" y="0" width="528" height="418" fill="transparent"></rect><g stroke-linecap="round" transform="translate(10 42) rotate(0 90 155)"><path d="M2.54 0.56 C62.45 3.15, 126.62 -1.37, 177.89 -1.51 M-1.09 -1.42 C60.66 2.8, 125.86 0, 178.84 -0.27 M177.86 -1.65 C179.03 74.65, 178.76 145, 181.17 308.1 M181 -0.92 C180.93 93.21, 179.57 185.21, 180.29 311.37 M176.36 309.36 C118.89 310.89, 52.17 311.24, 2.91 312.33 M180.92 308.9 C111.97 307.02, 43.36 308.35, -0.52 308.16 M0.57 310.22 C-1.52 244.98, -3.09 182.39, 1.18 -2.5 M0.08 308.75 C3.46 201.56, 4.33 92.17, 1.2 0.06" stroke="#1e1e1e" stroke-width="2" fill="none"></path></g><g transform="translate(10 10) rotate(0 90 14)"><text x="90" y="14.0" dominant-baseline="central" font-family="Cascadia, Segoe UI Emoji" font-size="16px" fill="#2B1321" text-anchor="middle" style="white-space: pre;" direction="ltr">DC 1</text></g><g stroke-linecap="round" transform="translate(22 54) rotate(0 78 44)"><path d="M-2.42 -1.01 L154.4 -3.18 L159.1 84.19 L-3.8 91.67" stroke="none" stroke-width="0" fill="#F8CDD6"></path><path d="M1.4 0.27 C51.57 1.79, 105.49 -1.88, 155.54 1.63 M1.72 0.7 C38 1.9, 70.21 2.55, 154.2 1.75 M157.31 -0.3 C154.4 24.26, 159.56 49.71, 152.76 86.4 M155.77 0.33 C154.19 31.41, 156.48 67.1, 155.65 88.73 M152.78 85.65 C124.94 87.03, 90.3 91.04, 1.6 87.1 M157.37 89.75 C111.51 88.8, 66.22 87.96, -1.01 86.49 M3.03 86.06 C-1.75 60.17, -1.8 21.61, -1.61 2.87 M1.86 86.23 C2.43 69.27, -0.31 52.48, 1.2 -0.01" stroke="#E23956" stroke-width="1" fill="none"></path></g><g transform="translate(22 56) rotate(0 78 8)"><text x="78" y="8.0" dominant-baseline="central" font-family="Cascadia, Segoe UI Emoji" font-size="11px" fill="#E23956" text-anchor="middle" style="white-space: pre;" direction="ltr">hot storage</text></g><g stroke-linecap="round" transform="translate(26 76) rotate(0 74 14)"><path d="M0.78 2.36 L146.76 3.31 L145.13 26.06 L3.61 27.93" stroke="none" stroke-width="0" fill="#FDECEF"></path><path d="M0.26 -0.02 C54.24 -1.31, 103.46 3.88, 149.2 -3.23 M0.54 -1.18 C48.31 -0.83, 92.49 -0.74, 149.55 -0.23 M145.6 1.71 C146.74 9.95, 149.43 20.27, 147.89 27.44 M146.15 1.93 C149.8 6.77, 148.27 11.8, 146.91 27.55 M145.21 31.95 C109.6 25.31, 69.67 24.97, 0.29 31.87 M149.83 28.6 C89.77 28.27, 30.51 29.26, -1.49 26.83 M-2.74 31.81 C-0.3 18.81, 1.78 8.78, 3.12 1.22 M-0.4 26.22 C-0.4 18.88, 0.91 14.96, 0.73 -0.11" stroke="#E23956" stroke-width="1" fill="none"></path></g><g transform="translate(26 76) rotate(0 74 14)"><text x="74" y="14.0" dominant-baseline="central" font-family="Cascadia, Segoe UI Emoji" font-size="11px" fill="#E23956" text-anchor="middle" style="white-space: pre;" direction="ltr">RS 1 leader</text></g><g stroke-linecap="round" transform="translate(26 108) rotate(0 74 14)"><path d="M3.98 -2.27 L147.13 1.8 L147.16 27.93 L3.01 24.19" stroke="none" stroke-width="0" fill="#FDECEF"></path><path d="M-0.88 -0.3 C51.68 -2.4, 98.99 -4.36, 150.85 -0.1 M-0.65 0.93 C30.86 -1.51, 59.26 -1.98, 148.91 1.8 M149.9 3.71 C147.62 8.15, 147.84 15.86, 151.01 28.49 M148.53 -0.46 C147.32 9.95, 145.98 16.14, 146.16 26.37 M145.63 30.24 C100.56 31.64, 45.64 26.95, -1.01 28.64 M146.28 27.45 C103.32 31.74, 61.39 30.55, -1.98 27.16 M-0.5 29.56 C2.4 24.06, -1.38 13.17, -0.15 -0.43 M1.35 26.21 C1.14 20.11, -1.5 8.67, 0.26 -0.2" stroke="#E23956" stroke-width="1" fill="none"></path></g><g transform="translate(26 108) rotate(0 74 14)"><text x="74" y="14.0" dominant-baseline="central" font-family="Cascadia, Segoe UI Emoji" font-size="11px" fill="#E23956" text-anchor="middle" style="white-space: pre;" direction="ltr">RS 2 follower</text></g><g stroke-linecap="round" transform="translate(22 152) rotate(0 78 28)"><path d="M-0.83 1.1 L155.49 0.29 L157.19 57.8 L2.41 56.45" stroke="none" stroke-width="0" fill="#FFE0D0"></path><path d="M-2.03 -0.59 C51.91 -3.65, 108.06 -4.75, 152.5 3.04 M-1.84 -0.95 C45.32 -2.25, 89.83 0.72, 156.27 -0.18 M154.19 -2.28 C157 20.69, 154.76 32.13, 154.13 57.53 M154.91 1.15 C158.51 20.08, 157.36 42.38, 157.42 57.19 M154.05 56.53 C96.33 58, 31.22 56.96, -2.32 53.41 M154.73 54.3 C92.09 53.18, 30.7 53.82, 1.53 55.5 M1.73 55.31 C-4.35 32.56, 2.01 12.07, -3.41 -2.08 M-0.91 54.19 C0.31 34.93, 1.72 13.57, -0.22 -0.3" stroke="#FF611D" stroke-width="1" fill="none"></path></g><g transform="translate(22 154) rotate(0 78 8)"><text x="78" y="8.0" dominant-baseline="central" font-family="Cascadia, Segoe UI Emoji" font-size="11px" fill="#FF611D" text-anchor="middle" style="white-space: pre;" direction="ltr">cold storage</text></g><g stroke-linecap="round" transform="translate(26 174) rotate(0 74 14)"><path d="M2.37 -3.52 L147.86 -1.22 L151.21 31.68 L1.82 24.71" stroke="none" stroke-width="0" fill="#FFF3EC"></path><path d="M-3.17 -0.88 C54.57 1.33, 106.04 1.08, 146.15 -1.82 M0.97 1.17 C55.17 1.13, 111.2 -0.46, 147.62 1.84 M150.48 -0.28 C148.25 7.76, 143.54 21.45, 149.26 30.58 M149.3 -1.25 C147.48 6.71, 146.52 13.62, 148.67 28.01 M146.47 26.82 C112.1 28.3, 72.79 30.91, -3.63 30.18 M147.18 29.15 C104.84 28.75, 59.97 27.22, 1.04 27.83 M3.97 25.05 C-1.32 20.96, -0.81 10.76, 1.32 -3.73 M0.83 26.18 C1.33 20.16, -1.21 15.3, -0.69 -0.39" stroke="#FF611D" stroke-width="1" fill="none"></path></g><g transform="translate(26 174) rotate(0 74 14)"><text x="74" y="14.0" dominant-baseline="central" font-family="Cascadia, Segoe UI Emoji" font-size="11px" fill="#FF611D" text-anchor="middle" style="white-space: pre;" direction="ltr">RS 1 leader</text></g><g stroke-linecap="round" transform="translate(22 218) rotate(0 78 28)"><path d="M-2.43 -0.15 L156.22 -2.74 L153.24 53.55 L1.22 56.97" stroke="none" stroke-width="0" fill="#CFD3D6"></path><path d="M3.69 -1.17 C54.79 0.15, 107.11 0.75, 155.8 1.32 M-0.22 -0.72 C39.8 0.47, 82.1 2.33, 154.98 -0.14 M154.78 1.73 C156.69 13.01, 157.51 31.16, 152.38 59.62 M155.68 0.36 C156.72 19.36, 155.95 36.9, 155.93 54.82 M154.9 53.12 C108.46 54.64, 51.56 52.91, 3.06 54.96 M155.64 56 C124.75 56.25, 91.56 56.55, 0.55 56.17 M-1.8 58.8 C0.04 38.02, 2.68 26.77, -1.94 2.62 M-1.42 54.16 C-1.14 41.5, 0.37 25.23, -1.17 -0.49" stroke="#16222E" stroke-width="1" fill="none"></path></g><g transform="translate(22 220) rotate(0 78 8)"><text x="78" y="8.0" dominant-baseline="central" font-family="Cascadia, Segoe UI Emoji" font-size="11px" fill="#16222E" text-anchor="middle" style="white-space: pre;" direction="ltr">compute</text></g><g stroke-linecap="round" transform="translate(26 240) rotate(0 74 14)"><path d="M0.77 3.22 L148.58 3.75 L147.27 27.42 L0.63 25.23" stroke="none" stroke-width="0" fill="#E8EAED"></path><path d="M2.55 -1.46 C49.46 5.06, 105.08 -1.48, 149.45 -3.54 M-1.41 1.4 C49.89 -0.24, 99.94 1.06, 146.34 1.89 M151.07 3.73 C150 9.76, 148.36 15.84, 147.51 24.67 M146.06 1.96 C147.64 7.47, 147.06 11.1, 147.18 29.64 M147.32 31.41 C94.03 24.95, 32.74 26.87, 1.75 31.73 M148.09 26.85 C102.35 31.68, 54.54 29.81, 0.06 28.5 M0.44 28.55 C2.96 23.46, -0.25 11.55, 2.79 0.97 M0.32 26.15 C0.4 18.61, -2.04 10.72, -1.64 -0.59" stroke="#16222E" stroke-width="1" fill="none"></path></g><g transform="translate(26 240) rotate(0 74 14)"><text x="74" y="14.0" dominant-baseline="central" font-family="Cascadia, Segoe UI Emoji" font-size="11px" fill="#16222E" text-anchor="middle" style="white-space: pre;" direction="ltr">node 1</text></g><g stroke-linecap="round" transform="translate(22 284) rotate(0 78 28)"><path d="M3.96 -1.4 L156.95 2.24 L157.3 57.29 L0.03 57.49" stroke="none" stroke-width="0" fill="#E8EAED"></path><path d="M1.41 -1.75 C57.68 -4.06, 106.16 -1.75, 159.1 -0.4 M1.4 -0.48 C34.27 3.2, 70.38 3.94, 157.69 -0.09 M155.36 -2.26 C158.61 24.54, 154.5 44.59, 158.63 53.71 M156.44 -0.43 C157.17 14.64, 156.78 31.42, 154.44 56.46 M155.74 57.7 C120.59 59.28, 79.91 56.86, 0.44 56.5 M156.54 57.7 C122.2 53.09, 90.02 53.05, -0.42 56.84 M2.67 54.3 C-3.57 32.27, 3.35 11.07, -0.47 -0.67 M-1.93 54.14 C-2.58 32.87, -0.98 10.49, 1.89 -0.68" stroke="#737A82" stroke-width="1" fill="none"></path></g><g transform="translate(22 286) rotate(0 78 8)"><text x="78" y="8.0" dominant-baseline="central" font-family="Cascadia, Segoe UI Emoji" font-size="11px" fill="#737A82" text-anchor="middle" style="white-space: pre;" direction="ltr">arbiter</text></g><g stroke-linecap="round" transform="translate(26 306) rotate(0 74 14)"><path d="M-0.84 1.97 L149.31 0.73 L151.33 31.17 L-0.56 25.75" stroke="none" stroke-width="0" fill="#F4F5F6"></path><path d="M0.26 -2.04 C52.35 0.8, 104.13 3.96, 144.75 2.74 M0.21 1.63 C44.6 2.4, 92.69 2.58, 149.05 1.93 M151.66 -0.26 C151.76 3.76, 145.18 18.23, 145.76 26.76 M146.82 1.18 C146.69 9.83, 146.48 19.78, 149.69 27.28 M148.16 27.99 C105.56 29.61, 51.89 30.83, -0.86 25.27 M149 28.55 C99.87 28.69, 53.12 26.47, -0.91 29.17 M-3.09 24.05 C-0.76 20.36, 0.31 9.14, -3.74 -2.32 M-0.19 26.12 C0.59 22.67, 2.24 13.35, 1.41 -0.78" stroke="#737A82" stroke-width="1" fill="none"></path></g><g transform="translate(26 306) rotate(0 74 14)"><text x="74" y="14.0" dominant-baseline="central" font-family="Cascadia, Segoe UI Emoji" font-size="11px" fill="#737A82" text-anchor="middle" style="white-space: pre;" direction="ltr">node 1</text></g><g stroke-linecap="round" transform="translate(214 42) rotate(0 90 155)"><path d="M-0.88 -2.33 C60.9 -0.18, 121.87 3.84, 178.41 -2.13 M-0.98 -0.25 C73.55 -0.67, 144.24 -1.04, 180.41 -0.05 M179.97 1.25 C176.88 101.68, 181.87 204.72, 180.63 309.86 M180.86 -0.87 C183.1 72.74, 183.09 144.12, 180.68 308.64 M180.58 308.29 C108.49 309.9, 43.8 306.77, -2.17 312.04 M181.45 309.4 C138.37 310.21, 101.89 309.82, -1.4 311.51 M-0.61 311.29 C0.54 220.92, -2.89 136.37, 0.71 -2.85 M1.11 308.64 C-0.72 216.63, 0.5 122.73, 0.67 -0.63" stroke="#1e1e1e" stroke-width="2" fill="none"></path></g><g transform="translate(214 10) rotate(0 90 14)"><text x="90" y="14.0" dominant-baseline="central" font-family="Cascadia, Segoe UI Emoji" font-size="16px" fill="#2B1321" text-anchor="middle" style="white-space: pre;" direction="ltr">DC 2</text></g><g stroke-linecap="round" transform="translate(226 54) rotate(0 78 44)"><path d="M-2.44 0.72 L158.04 -2.29 L155.39 86.91 L-1.75 86.27" stroke="none" stroke-width="0" fill="#F8CDD6"></path><path d="M-2.02 -2.62 C58.02 -1.49, 108.74 -4.62, 156.06 1.01 M1.83 1.87 C45.59 -0.96, 89.99 -1.89, 155.77 1.98 M152.25 3.75 C153.49 17.89, 157.97 36.86, 152.01 88.85 M155.58 0.39 C154.6 24.96, 154.77 53.99, 156.2 88.91 M157.01 84.58 C115.18 86.25, 83.22 86.78, -3.48 86.82 M157.9 86.25 C106.79 87.71, 54.5 89.15, -1.89 89.84 M1.38 87.54 C1.3 69.13, -1.34 50.47, -2.27 2.38 M-0.7 86.09 C-0.7 55.7, 1.04 25.92, 0.46 -0.97" stroke="#E23956" stroke-width="1" fill="none"></path></g><g transform="translate(226 56) rotate(0 78 8)"><text x="78" y="8.0" dominant-baseline="central" font-family="Cascadia, Segoe UI Emoji" font-size="11px" fill="#E23956" text-anchor="middle" style="white-space: pre;" direction="ltr">hot storage</text></g><g stroke-linecap="round" transform="translate(230 76) rotate(0 74 14)"><path d="M0.75 -3.91 L150.41 -3.81 L149.42 28.78 L-2.35 30.53" stroke="none" stroke-width="0" fill="#FDECEF"></path><path d="M-3.16 -2.9 C52.69 3.43, 106.71 1.16, 149.71 -3.85 M0.64 -0.02 C55.47 -1.57, 111.4 0.95, 147.12 0 M148.54 -2.25 C146.39 9.57, 148.41 11.41, 147.13 29.89 M149.97 1.99 C148.37 9.77, 148.73 21.59, 147.46 27.73 M149.43 30.87 C100.05 24.6, 55.02 28.77, 3.21 31.59 M146.35 29.1 C114.94 31.09, 78.58 30.36, 1.62 26.18 M3.61 25.29 C-2.9 14.51, -3.41 3.12, 2.46 0.73 M1.04 26.08 C1.2 23.95, -1 17.68, -0.01 -1.07" stroke="#E23956" stroke-width="1" fill="none"></path></g><g transform="translate(230 76) rotate(0 74 14)"><text x="74" y="14.0" dominant-baseline="central" font-family="Cascadia, Segoe UI Emoji" font-size="11px" fill="#E23956" text-anchor="middle" style="white-space: pre;" direction="ltr">RS 1 follower</text></g><g stroke-linecap="round" transform="translate(230 108) rotate(0 74 14)"><path d="M3.95 -0.54 L150.77 2.68 L151.45 30.66 L-2.95 26.79" stroke="none" stroke-width="0" fill="#FDECEF"></path><path d="M3.7 -3.19 C50.13 2.34, 102.23 0.92, 151.36 -0.71 M-0.55 -1.9 C38.02 1.75, 74.18 -0.29, 146.48 -1.98 M144.83 -0.24 C147.27 13.37, 146.82 18.2, 150.25 30.94 M148.35 -0.4 C147.01 7.35, 147.56 14.73, 146.71 26.55 M149.85 29.16 C91.02 30.92, 38.99 30.76, 1.9 28.36 M146.81 27.95 C98.89 24.63, 50.26 25.73, 1.13 26.51 M-2.15 31.04 C-1.32 19.76, 0.31 7.52, -0.8 -0.92 M-1.22 26.06 C-0.14 21.17, 1.7 11.4, -0.48 -1.16" stroke="#E23956" stroke-width="1" fill="none"></path></g><g transform="translate(230 108) rotate(0 74 14)"><text x="74" y="14.0" dominant-baseline="central" font-family="Cascadia, Segoe UI Emoji" font-size="11px" fill="#E23956" text-anchor="middle" style="white-space: pre;" direction="ltr">RS 2 leader</text></g><g stroke-linecap="round" transform="translate(226 152) rotate(0 78 28)"><path d="M-0.85 2.83 L159.14 1.17 L153.48 52.53 L-3.54 59.05" stroke="none" stroke-width="0" fill="#FFE0D0"></path><path d="M2.55 -3.48 C50.35 -0.68, 111.31 6.75, 153.01 2.43 M-1.74 0.22 C52.91 1.13, 105.61 2.53, 157.84 0.04 M157.13 1.76 C156.39 9.51, 153.47 25.67, 153.38 59.98 M154.73 1.2 C156.29 19.68, 157.03 37.38, 157.97 57.37 M158.27 55.46 C117.77 57.22, 86.54 52.7, 0.59 53.13 M155.26 54.8 C118.57 56.09, 81.39 55.01, 0.65 54.85 M0.08 56.79 C1.59 37.44, -2.63 24.76, 3.93 -2.57 M0.53 54.05 C1.56 37.38, -0.54 19.06, -0.96 -1.26" stroke="#FF611D" stroke-width="1" fill="none"></path></g><g transform="translate(226 154) rotate(0 78 8)"><text x="78" y="8.0" dominant-baseline="central" font-family="Cascadia, Segoe UI Emoji" font-size="11px" fill="#FF611D" text-anchor="middle" style="white-space: pre;" direction="ltr">cold storage</text></g><g stroke-linecap="round" transform="translate(230 174) rotate(0 74 14)"><path d="M2.35 -1.79 L151.5 -0.34 L147.51 26.4 L3.86 27.31" stroke="none" stroke-width="0" fill="#FFF3EC"></path><path d="M1.41 -3.77 C53.02 -1.93, 101.28 -1.65, 146.66 -2.43 M1.07 -1.67 C32.73 0.39, 66.92 1.23, 149.19 -1.93 M145.42 3.77 C149.02 7.38, 151.63 12.59, 148.5 25.03 M149.11 -1.19 C147.17 4.1, 148.1 12.21, 149.22 28.19 M150.7 25.75 C102.55 27.58, 66.14 26.72, -0.71 29.9 M147.71 29.65 C96.41 27.57, 48.84 28.32, 0.16 27.18 M2.32 26.54 C2.96 22.26, 0.88 16.31, 0.67 3.79 M-1.73 26.04 C-1.07 15.63, 0.87 6.82, -1.43 -1.35" stroke="#FF611D" stroke-width="1" fill="none"></path></g><g transform="translate(230 174) rotate(0 74 14)"><text x="74" y="14.0" dominant-baseline="central" font-family="Cascadia, Segoe UI Emoji" font-size="11px" fill="#FF611D" text-anchor="middle" style="white-space: pre;" direction="ltr">RS 1 follower</text></g><g stroke-linecap="round" transform="translate(226 218) rotate(0 78 28)"><path d="M-2.46 1.58 L159.86 -1.85 L157.54 56.27 L3.27 59.57" stroke="none" stroke-width="0" fill="#CFD3D6"></path><path d="M0.27 3.94 C53.24 -3.13, 110.36 -2, 156.31 0.71 M-0.12 0.45 C47.39 3.85, 97.89 4.13, 156.55 0.09 M157.71 -2.23 C158.31 21.04, 158.46 39.1, 159.63 54.07 M155.49 0.42 C156.74 14.96, 157.86 31.9, 156.48 55 M159.12 52.04 C98.7 53.86, 44.48 56.64, -2.02 54.67 M156.16 56.5 C120.02 59.16, 79.85 57.75, -0.33 55.51 M-3.45 52.28 C-2.02 31.69, -1.96 17.06, -2.6 2.14 M0.01 54.02 C0.12 43.95, -1.89 30.72, -1.91 -1.45" stroke="#16222E" stroke-width="1" fill="none"></path></g><g transform="translate(226 220) rotate(0 78 8)"><text x="78" y="8.0" dominant-baseline="central" font-family="Cascadia, Segoe UI Emoji" font-size="11px" fill="#16222E" text-anchor="middle" style="white-space: pre;" direction="ltr">compute</text></g><g stroke-linecap="round" transform="translate(230 240) rotate(0 74 14)"><path d="M0.74 -3.05 L144.23 -3.37 L151.57 30.15 L2.67 27.83" stroke="none" stroke-width="0" fill="#E8EAED"></path><path d="M-0.87 3.65 C47.91 1.8, 100.33 3.79, 149.96 3.85 M-1.3 -1.43 C57.05 -2.9, 118.86 -3.17, 147.91 -1.89 M146.01 -0.22 C150.77 9.38, 148.45 14.98, 146.75 27.12 M149.87 -1.98 C146.22 10.46, 147.52 20.89, 147.73 29.82 M151.54 30.33 C114.08 24.24, 85.29 30.68, -3.33 31.45 M148.62 27.35 C97.92 24.58, 47.41 24.99, -0.82 27.85 M-1.21 30.03 C-0.76 19.16, 1.44 13.9, 2.14 0.49 M1.76 26.01 C-0.88 19.68, 1.16 13.45, 1.62 -1.54" stroke="#16222E" stroke-width="1" fill="none"></path></g><g transform="translate(230 240) rotate(0 74 14)"><text x="74" y="14.0" dominant-baseline="central" font-family="Cascadia, Segoe UI Emoji" font-size="11px" fill="#16222E" text-anchor="middle" style="white-space: pre;" direction="ltr">node 2</text></g><g stroke-linecap="round" transform="translate(226 284) rotate(0 78 28)"><path d="M3.94 0.33 L152.59 3.12 L153.6 52.02 L2.08 52.09" stroke="none" stroke-width="0" fill="#E8EAED"></path><path d="M-2.01 3.36 C56.13 0.66, 109.41 -4.5, 159.62 -1.02 M1.51 0.68 C45.87 -3.67, 90.16 -0.5, 155.26 0.13 M158.3 1.78 C158 13.36, 153.21 30.13, 157.88 56.16 M156.25 -0.37 C157.2 14.24, 154.69 26.42, 154.99 56.64 M159.96 56.63 C110.82 58.5, 72.83 52.59, 3.36 56.22 M157.07 54.2 C117.48 56, 78.3 54.24, -1.31 56.18 M1.02 55.78 C2.37 45.15, -1.29 23.76, -1.13 -1.16 M-0.5 57.99 C0.92 35.32, -1 15.98, 1.15 -1.64" stroke="#737A82" stroke-width="1" fill="none"></path></g><g transform="translate(226 286) rotate(0 78 8)"><text x="78" y="8.0" dominant-baseline="central" font-family="Cascadia, Segoe UI Emoji" font-size="11px" fill="#737A82" text-anchor="middle" style="white-space: pre;" direction="ltr">arbiter</text></g><g stroke-linecap="round" transform="translate(230 306) rotate(0 74 14)"><path d="M-0.86 3.7 L144.96 1.61 L147.63 25.89 L1.48 28.35" stroke="none" stroke-width="0" fill="#F4F5F6"></path><path d="M-3.15 3.07 C50.8 5.54, 99.38 1.23, 145.27 2.12 M0.32 -1.2 C55.76 -0.26, 107.61 -1.65, 146.62 -1.84 M146.59 3.79 C151.41 8.99, 144.15 20.57, 145 29.21 M146.64 1.23 C146.38 7.22, 148.06 18.37, 146.24 27.46 M144.39 26.92 C96.01 28.9, 45.24 26.64, 2.05 24.99 M149.52 29.05 C95.43 27.51, 41.99 27.58, -1.8 28.52 M3.26 25.53 C3.53 21.66, 2 14.69, 3.6 -2.81 M1.25 29.98 C-1.81 18.13, 0.33 4.87, 0.67 -1.74" stroke="#737A82" stroke-width="1" fill="none"></path></g><g transform="translate(230 306) rotate(0 74 14)"><text x="74" y="14.0" dominant-baseline="central" font-family="Cascadia, Segoe UI Emoji" font-size="11px" fill="#737A82" text-anchor="middle" style="white-space: pre;" direction="ltr">node 2</text></g><g stroke-linecap="round" transform="translate(418 42) rotate(0 50 155)"><path d="M3.7 2.78 C31.57 -3.64, 69.56 0.91, 98.92 -2.74 M-0.87 0.92 C26.13 -0.94, 50.01 1.11, 101.98 0.18 M102.07 -1.58 C94.74 72.45, 99.23 146.17, 100.09 311.62 M100.73 -0.83 C96.39 114.27, 94.86 227.03, 101.07 308.76 M96.81 307.21 C78.32 309.7, 59.91 311.09, 0.74 311.76 M101.97 309.9 C73.33 312.34, 49.54 310.23, 1.72 310.85 M-1.8 312.35 C2.61 202.59, 3.05 90.35, 0.24 2.54 M-0.72 311.41 C-2.03 231.7, -3.34 153.3, 0.14 -1.31" stroke="#1e1e1e" stroke-width="2" fill="none"></path></g><g transform="translate(418 10) rotate(0 50 14)"><text x="50" y="14.0" dominant-baseline="central" font-family="Cascadia, Segoe UI Emoji" font-size="16px" fill="#2B1321" text-anchor="middle" style="white-space: pre;" direction="ltr">DC 3</text></g><g stroke-linecap="round" transform="translate(430 284) rotate(0 38 28)"><path d="M-2.47 2.44 L73.69 -1.41 L79.69 57.64 L0.29 56.87" stroke="none" stroke-width="0" fill="#E8EAED"></path><path d="M2.56 2.5 C28.68 -3.6, 56.42 1.8, 76.57 0.4 M1.94 -0.97 C26.05 1.98, 51.5 -0.52, 77.34 -1.8 M75.18 -0.21 C72.89 19.45, 76.7 31.88, 79.25 59.3 M75.4 0.44 C74.76 14.76, 76.81 25.4, 76.75 57.09 M73.23 59.5 C54.67 54.33, 38.65 51.37, -0.56 54.53 M74.43 54.75 C46.91 53.79, 20.49 53.51, 1.23 57.19 M-0.27 57.03 C-0.16 38.13, 2.59 23.41, -2.93 1.89 M0.73 57.95 C0.75 37.57, -1.02 22.26, -0.28 -1.93" stroke="#737A82" stroke-width="1" fill="none"></path></g><g transform="translate(430 286) rotate(0 38 8)"><text x="38" y="8.0" dominant-baseline="central" font-family="Cascadia, Segoe UI Emoji" font-size="11px" fill="#737A82" text-anchor="middle" style="white-space: pre;" direction="ltr">arbiter</text></g><g stroke-linecap="round" transform="translate(434 306) rotate(0 34 14)"><path d="M0.73 -2.18 L66.05 -2.92 L65.72 31.51 L-0.31 25.13" stroke="none" stroke-width="0" fill="#F4F5F6"></path><path d="M1.42 2.21 C23.35 -0.56, 46.38 -2.31, 70.22 3.54 M0.75 1.15 C15.06 0.82, 31.18 1.76, 68.69 0.22 M71.48 1.8 C66.04 6.79, 67.38 21.75, 66.37 24.35 M69.78 -1.95 C68.06 7.16, 66.31 16.18, 68.01 27.91 M65.65 29.8 C44.78 24.81, 20.91 25.51, -1.87 31.31 M66.88 29.6 C51.65 28.66, 33.73 26.21, 0.74 29.52 M1.96 26.77 C1.39 23.81, -1.72 16.67, 1.81 0.24 M-1.52 29.94 C-0.08 19.41, 2.2 9.21, -0.75 1.98" stroke="#737A82" stroke-width="1" fill="none"></path></g><g transform="translate(434 306) rotate(0 34 14)"><text x="34" y="14.0" dominant-baseline="central" font-family="Cascadia, Segoe UI Emoji" font-size="11px" fill="#737A82" text-anchor="middle" style="white-space: pre;" direction="ltr">node 3</text></g><g stroke-linecap="round" transform="translate(10 372) rotate(0 254 18)"><path d="M3.93 1.19 L506.42 3.56 L507.75 33.38 L-0.9 37.39" stroke="none" stroke-width="0" fill="#F0E8ED"></path><path d="M0.11 0.77 C175.31 -1.37, 353.95 -1.73, 509.55 -0.53 M-0.18 -0.29 C157.21 2.77, 315.51 2.92, 508.02 -0.7 M507.77 3.8 C506.89 6.93, 505.76 21.22, 509.5 33.39 M508.16 -0.34 C506.85 13.45, 509.28 26.75, 507.26 34.73 M507.23 36.03 C309.07 31.89, 110.7 33.63, -1.27 36.03 M507.73 36.18 C321.45 35.88, 134.18 35.63, 0.1 36.74 M-3.8 32.52 C4.13 20.3, 3.17 3.53, -1.46 -1.4 M0.22 37.92 C1.48 28.5, -0.19 18.64, -1.22 1.88" stroke="#2B1321" stroke-width="2" fill="none"></path></g><g transform="translate(10 372) rotate(0 254 18)"><text x="254" y="18.0" dominant-baseline="central" font-family="Cascadia, Segoe UI Emoji" font-size="13px" fill="#2B1321" text-anchor="middle" style="white-space: pre;" direction="ltr">Raft ring — schema · topology · bucket map</text></g><g stroke-linecap="round"><g transform="translate(100 352) rotate(0 0 10)"><path d="M-2.35 -0.6 C-2.38 2.6, 0.58 18.61, 1.14 21.83" stroke="#2B1321" stroke-width="1.5" fill="none" stroke-dasharray="8 9"></path></g></g><g stroke-linecap="round"><g transform="translate(304 352) rotate(0 0 10)"><path d="M-1.22 1.8 C-1.73 5.63, -1.74 17.44, -1.76 20.93" stroke="#2B1321" stroke-width="1.5" fill="none" stroke-dasharray="8 9"></path></g></g><g stroke-linecap="round"><g transform="translate(468 352) rotate(0 0 10)"><path d="M-0.08 -1.4 C-0.15 2.12, 0.61 16.27, 0.94 20.04" stroke="#2B1321" stroke-width="1.5" fill="none" stroke-dasharray="8 9"></path></g></g></svg>