<svg version="1.1" xmlns="http://www.w3.org/2000/svg" viewBox="0 0 600 240" width="600" height="240">
  <!-- svg-source:excalidraw -->
  
  <defs>
    <style>
      @font-face {
        font-family: "Virgil";
        src: url("https://excalidraw.com/Virgil.woff2");
      }
      @font-face {
        font-family: "Cascadia";
        src: url("https://excalidraw.com/Cascadia.woff2");
      }
    </style>
  </defs>
  <rect x="0" y="0" width="600" height="240" fill="transparent"></rect><g stroke-linecap="round" transform="translate(10 10) rotate(0 90 40)"><path d="M1.92 0.3 L179.27 -1.37 L180.32 78.63 L-0.85 78.5" stroke="none" stroke-width="0" fill="#F8CDD6"></path><path d="M-1.63 0.55 C72.29 -1.71, 143.01 -2.58, 179.76 1.2 M0.45 0.04 C45.2 0.58, 89.2 -0.17, 180.56 0.15 M180.33 0.76 C181.22 22.85, 179.34 50.4, 181.8 79.23 M180.63 0.71 C180.13 21.14, 179.5 44.37, 179.36 80.31 M179.63 79.54 C110.34 77.26, 44.79 77.22, 0.39 78.03 M180.55 80.64 C124.94 81.59, 68.25 80.32, 0.49 80.98 M0.69 79 C-0.08 49.52, 0.78 18.73, 1.13 1.57 M-0.72 79.86 C-0.92 48.2, 0.68 18.08, -0.65 -0.89" stroke="#E23956" stroke-width="2" fill="none"></path></g><g transform="translate(10 14) rotate(0 90 11)"><text x="90" y="15.9" font-family="Cascadia, Segoe UI Emoji" font-size="14px" fill="#E23956" text-anchor="middle" style="white-space: pre;" direction="ltr">Banking &amp; Finance</text></g><g transform="translate(10 38) rotate(0 90 24)"><text x="90" y="20.1" font-family="Cascadia, Segoe UI Emoji" font-size="11px" fill="#2B1321" text-anchor="middle" style="white-space: pre;" direction="ltr">Real-time tarification</text><text x="90" y="33.3" font-family="Cascadia, Segoe UI Emoji" font-size="11px" fill="#2B1321" text-anchor="middle" style="white-space: pre;" direction="ltr">Fraud detection</text></g><g stroke-linecap="round" transform="translate(210 10) rotate(0 90 40)"><path d="M0.32 0.83 L181.54 1.49 L181.84 80.03 L0.7 79.69" stroke="none" stroke-width="0" fill="#F8CDD6"></path><path d="M-0.48 -1.67 C70.38 -1.32, 139.66 0.45, 178.99 -0.45 M0.56 -0.37 C66.9 0.4, 135.84 0.23, 179.08 0.67 M181.55 -1.73 C179.2 18.64, 181.47 33.36, 178.14 78.02 M180.42 -0.08 C179.49 22.81, 181.01 46.19, 179.8 80.42 M181.95 78.26 C131.6 79.98, 80.83 80.69, -0.59 79.61 M180.89 79.78 C114.42 78.81, 49.06 79.91, 0.12 79.24 M0.36 81.32 C-0.8 54.68, -2.33 28.47, 0.68 -1.67 M0.59 79.85 C0.68 49.67, -0.69 19.46, 0 -0.96" stroke="#E23956" stroke-width="2" fill="none"></path></g><g transform="translate(210 14) rotate(0 90 11)"><text x="90" y="15.9" font-family="Cascadia, Segoe UI Emoji" font-size="14px" fill="#E23956" text-anchor="middle" style="white-space: pre;" direction="ltr">Telecom</text></g><g transform="translate(210 38) rotate(0 90 24)"><text x="90" y="20.1" font-family="Cascadia, Segoe UI Emoji" font-size="11px" fill="#2B1321" text-anchor="middle" style="white-space: pre;" direction="ltr">Unified customer profile</text><text x="90" y="33.3" font-family="Cascadia, Segoe UI Emoji" font-size="11px" fill="#2B1321" text-anchor="middle" style="white-space: pre;" direction="ltr">Session management</text></g><g stroke-linecap="round" transform="translate(410 10) rotate(0 90 40)"><path d="M-1.28 1.36 L179.81 0.36 L179.37 81.44 L-1.74 80.89" stroke="none" stroke-width="0" fill="#F8CDD6"></path><path d="M0.66 0.11 C72.46 -0.53, 140.31 -0.12, 178.23 1.9 M0.67 -0.79 C54.6 -1.78, 110.48 -1.37, 179.6 -0.82 M178.77 -0.23 C181.18 26.42, 179.59 52.32, 178.48 80.8 M180.21 -0.88 C180.86 24.48, 180.51 48.02, 180.24 80.54 M180.26 80.98 C112.85 78.71, 48.88 80.15, -1.57 81.19 M179.23 80.91 C139.91 79.63, 101.86 81.1, -0.24 79.49 M0.04 79.63 C-1.52 59.84, -1.45 42.21, 0.23 -0.91 M-0.1 79.84 C0.27 51.13, -0.06 22.84, 0.64 0.97" stroke="#E23956" stroke-width="2" fill="none"></path></g><g transform="translate(410 14) rotate(0 90 11)"><text x="90" y="15.9" font-family="Cascadia, Segoe UI Emoji" font-size="14px" fill="#E23956" text-anchor="middle" style="white-space: pre;" direction="ltr">Government</text></g><g transform="translate(410 38) rotate(0 90 24)"><text x="90" y="20.1" font-family="Cascadia, Segoe UI Emoji" font-size="11px" fill="#2B1321" text-anchor="middle" style="white-space: pre;" direction="ltr">Network analysis</text><text x="90" y="33.3" font-family="Cascadia, Segoe UI Emoji" font-size="11px" fill="#2B1321" text-anchor="middle" style="white-space: pre;" direction="ltr">Document processing</text></g><g stroke-linecap="round" transform="translate(10 106) rotate(0 90 40)"><path d="M1.12 1.89 L178.09 -0.78 L180.89 78.84 L-0.19 78.08" stroke="none" stroke-width="0" fill="#F8CDD6"></path><path d="M1.8 1.9 C70.55 -0.14, 140.96 -1.09, 181.47 0.26 M0.77 0.8 C42.29 1.64, 83.12 0.64, 180.11 -0.3 M179.99 1.27 C180.76 18.2, 179.32 35.27, 178.83 79.59 M179.99 0.32 C180.22 24.15, 180.01 49.84, 180.68 80.65 M178.58 79.7 C134.11 77.43, 84.93 79.62, 1.45 78.77 M179.57 80.05 C131.4 80.45, 80.67 82.29, -0.61 79.74 M-0.28 81.94 C-0.64 53, 1.04 23.96, -0.22 -0.14 M-0.8 79.83 C-0.14 52.6, 0.57 26.22, -0.71 0.9" stroke="#E23956" stroke-width="2" fill="none"></path></g><g transform="translate(10 110) rotate(0 90 11)"><text x="90" y="15.9" font-family="Cascadia, Segoe UI Emoji" font-size="14px" fill="#E23956" text-anchor="middle" style="white-space: pre;" direction="ltr">Manufacturing &amp; IoT</text></g><g transform="translate(10 134) rotate(0 90 24)"><text x="90" y="20.1" font-family="Cascadia, Segoe UI Emoji" font-size="11px" fill="#2B1321" text-anchor="middle" style="white-space: pre;" direction="ltr">Sensor data pipelines</text><text x="90" y="33.3" font-family="Cascadia, Segoe UI Emoji" font-size="11px" fill="#2B1321" text-anchor="middle" style="white-space: pre;" direction="ltr">Cost calculation</text></g><g stroke-linecap="round" transform="translate(210 106) rotate(0 90 40)"><path d="M-0.48 -1.58 L180.36 -1.91 L178.41 80.25 L1.36 79.28" stroke="none" stroke-width="0" fill="#F8CDD6"></path><path d="M-1.05 -0.32 C72.64 0.25, 141.61 1.94, 180.71 -1.39 M0.88 0.39 C63.99 -0.54, 129.76 -0.96, 180.63 0.22 M181.21 -1.22 C178.73 25.98, 181.45 54.23, 179.17 78.37 M179.78 -0.47 C179.58 25.82, 179.52 51.66, 179.13 80.76 M180.9 78.42 C115.37 80.16, 52.97 79.08, 0.47 80.35 M179.91 79.19 C120.89 79.67, 61.47 79.88, -0.98 79.99 M-0.61 80.25 C-1.36 58.16, 1.93 33.7, -0.67 0.62 M0.51 79.82 C-0.15 54.07, -0.4 27.6, -0.07 0.82" stroke="#E23956" stroke-width="2" fill="none"></path></g><g transform="translate(210 110) rotate(0 90 11)"><text x="90" y="15.9" font-family="Cascadia, Segoe UI Emoji" font-size="14px" fill="#E23956" text-anchor="middle" style="white-space: pre;" direction="ltr">E-commerce</text></g><g transform="translate(210 134) rotate(0 90 24)"><text x="90" y="20.1" font-family="Cascadia, Segoe UI Emoji" font-size="11px" fill="#2B1321" text-anchor="middle" style="white-space: pre;" direction="ltr">Inventory &amp; pricing</text><text x="90" y="33.3" font-family="Cascadia, Segoe UI Emoji" font-size="11px" fill="#2B1321" text-anchor="middle" style="white-space: pre;" direction="ltr">Recommendations</text></g><g stroke-linecap="round" transform="translate(410 106) rotate(0 90 40)"><path d="M1.91 -1.05 L178.63 0.96 L179.93 81.65 L-1.08 80.47" stroke="none" stroke-width="0" fill="#F8CDD6"></path><path d="M0.09 1.46 C70.72 -2.96, 142.26 -2.63, 179.95 0.97 M0.99 -0.02 C51.69 -0.72, 104.39 -0.56, 179.15 0.73 M178.43 0.28 C182.31 17.77, 181.17 37.19, 179.51 81.15 M179.56 0.73 C178.95 25.48, 179.02 51.49, 179.57 80.88 M179.21 81.14 C136.62 78.89, 89.02 78.55, -0.51 81.93 M180.25 80.33 C110.37 80.49, 40.28 81.07, 0.66 80.24 M-0.93 78.56 C1.93 47.32, -1.19 15.44, -1.12 1.39 M-0.18 79.8 C-0.55 55.54, 0.22 30.98, 0.57 0.75" stroke="#E23956" stroke-width="2" fill="none"></path></g><g transform="translate(410 110) rotate(0 90 11)"><text x="90" y="15.9" font-family="Cascadia, Segoe UI Emoji" font-size="14px" fill="#E23956" text-anchor="middle" style="white-space: pre;" direction="ltr">Gaming &amp; AdTech</text></g><g transform="translate(410 134) rotate(0 90 24)"><text x="90" y="20.1" font-family="Cascadia, Segoe UI Emoji" font-size="11px" fill="#2B1321" text-anchor="middle" style="white-space: pre;" direction="ltr">Leaderboards</text><text x="90" y="33.3" font-family="Cascadia, Segoe UI Emoji" font-size="11px" fill="#2B1321" text-anchor="middle" style="white-space: pre;" direction="ltr">Real-time bidding</text></g><g transform="translate(10 210) rotate(0 290 10)"><text x="290" y="14.9" font-family="Cascadia, Segoe UI Emoji" font-size="14px" fill="#737A82" text-anchor="middle" style="white-space: pre;" direction="ltr">10K+ TPS  •  microsecond latency  •  ACID across data centers</text></g></svg>